solid csg.js
facet normal 0 0 -1
outer loop
vertex 9.5 9.5 0
vertex 9.5 7 0
vertex 7 7 0
endloop
endfacet
facet normal 0 0 -1
outer loop
vertex 9.5 9.5 0
vertex 7 7 0
vertex -7 7 0
endloop
endfacet
facet normal 0 0 -1
outer loop
vertex 9.5 9.5 0
vertex -7 7 0
vertex -9.5 7 0
endloop
endfacet
facet normal 0 0 -1
outer loop
vertex 9.5 9.5 0
vertex -9.5 7 0
vertex -9.5 9.5 0
endloop
endfacet
facet normal 0 0 -1
outer loop
vertex -7 7 0
vertex -7 -7 0
vertex -9.5 -7 0
endloop
endfacet
facet normal 0 0 -1
outer loop
vertex -7 7 0
vertex -9.5 -7 0
vertex -9.5 7 0
endloop
endfacet
facet normal 0 0 -1
outer loop
vertex 9.5 7 0
vertex 9.5 -7 0
vertex 7 -7 0
endloop
endfacet
facet normal 0 0 -1
outer loop
vertex 9.5 7 0
vertex 7 -7 0
vertex 7 7 0
endloop
endfacet
facet normal 0 0 -1
outer loop
vertex -7 -7 0
vertex 7 -7 0
vertex 9.5 -7 0
endloop
endfacet
facet normal 0 0 -1
outer loop
vertex -7 -7 0
vertex 9.5 -7 0
vertex 9.5 -9.5 0
endloop
endfacet
facet normal 0 0 -1
outer loop
vertex -7 -7 0
vertex 9.5 -9.5 0
vertex -9.5 -9.5 0
endloop
endfacet
facet normal 0 0 -1
outer loop
vertex -7 -7 0
vertex -9.5 -9.5 0
vertex -9.5 -7 0
endloop
endfacet
facet normal 0 0 1
outer loop
vertex 9.5 -9.5 1.5
vertex 9.5 -7 1.5
vertex 7 -7 1.5
endloop
endfacet
facet normal 0 0 1
outer loop
vertex 9.5 -9.5 1.5
vertex 7 -7 1.5
vertex -7 -7 1.5
endloop
endfacet
facet normal 0 0 1
outer loop
vertex 9.5 -9.5 1.5
vertex -7 -7 1.5
vertex -9.5 -7 1.5
endloop
endfacet
facet normal 0 0 1
outer loop
vertex 9.5 -9.5 1.5
vertex -9.5 -7 1.5
vertex -9.5 -9.5 1.5
endloop
endfacet
facet normal 0 0 1
outer loop
vertex -7 -7 1.5
vertex -7 7 1.5
vertex -9.5 7 1.5
endloop
endfacet
facet normal 0 0 1
outer loop
vertex -7 -7 1.5
vertex -9.5 7 1.5
vertex -9.5 -7 1.5
endloop
endfacet
facet normal 0 0 1
outer loop
vertex 9.5 -7 1.5
vertex 9.5 7 1.5
vertex 7 7 1.5
endloop
endfacet
facet normal 0 0 1
outer loop
vertex 9.5 -7 1.5
vertex 7 7 1.5
vertex 7 -7 1.5
endloop
endfacet
facet normal 0 0 1
outer loop
vertex -7 7 1.5
vertex 7 7 1.5
vertex 9.5 7 1.5
endloop
endfacet
facet normal 0 0 1
outer loop
vertex -7 7 1.5
vertex 9.5 7 1.5
vertex 9.5 9.5 1.5
endloop
endfacet
facet normal 0 0 1
outer loop
vertex -7 7 1.5
vertex 9.5 9.5 1.5
vertex -9.5 9.5 1.5
endloop
endfacet
facet normal 0 0 1
outer loop
vertex -7 7 1.5
vertex -9.5 9.5 1.5
vertex -9.5 7 1.5
endloop
endfacet
facet normal 0 -1 0
outer loop
vertex 9.5 -9.5 0
vertex 9.5 -9.5 1.5
vertex -9.5 -9.5 1.5
endloop
endfacet
facet normal 0 -1 0
outer loop
vertex 9.5 -9.5 0
vertex -9.5 -9.5 1.5
vertex -9.5 -9.5 0
endloop
endfacet
facet normal 1 0 0
outer loop
vertex 9.5 -7 0
vertex 9.5 7 0
vertex 9.5 9.5 0
endloop
endfacet
facet normal 1 0 0
outer loop
vertex 9.5 -7 0
vertex 9.5 9.5 0
vertex 9.5 9.5 1.5
endloop
endfacet
facet normal 1 0 0
outer loop
vertex 9.5 -7 0
vertex 9.5 9.5 1.5
vertex 9.5 7 1.5
endloop
endfacet
facet normal 1 0 0
outer loop
vertex 9.5 -7 0
vertex 9.5 7 1.5
vertex 9.5 -7 1.5
endloop
endfacet
facet normal 1 0 0
outer loop
vertex 9.5 -7 0
vertex 9.5 -7 1.5
vertex 9.5 -9.5 1.5
endloop
endfacet
facet normal 1 0 0
outer loop
vertex 9.5 -7 0
vertex 9.5 -9.5 1.5
vertex 9.5 -9.5 0
endloop
endfacet
facet normal 0 1 0
outer loop
vertex 9.5 9.5 1.5
vertex 9.5 9.5 0
vertex -9.5 9.5 0
endloop
endfacet
facet normal 0 1 0
outer loop
vertex 9.5 9.5 1.5
vertex -9.5 9.5 0
vertex -9.5 9.5 1.5
endloop
endfacet
facet normal -1 0 0
outer loop
vertex -9.5 -7 1.5
vertex -9.5 7 1.5
vertex -9.5 9.5 1.5
endloop
endfacet
facet normal -1 0 0
outer loop
vertex -9.5 -7 1.5
vertex -9.5 9.5 1.5
vertex -9.5 9.5 0
endloop
endfacet
facet normal -1 0 0
outer loop
vertex -9.5 -7 1.5
vertex -9.5 9.5 0
vertex -9.5 7 0
endloop
endfacet
facet normal -1 0 0
outer loop
vertex -9.5 -7 1.5
vertex -9.5 7 0
vertex -9.5 -7 0
endloop
endfacet
facet normal -1 0 0
outer loop
vertex -9.5 -7 1.5
vertex -9.5 -7 0
vertex -9.5 -9.5 0
endloop
endfacet
facet normal -1 0 0
outer loop
vertex -9.5 -7 1.5
vertex -9.5 -9.5 0
vertex -9.5 -9.5 1.5
endloop
endfacet
facet normal 0 1 0
outer loop
vertex 7 -7 1.5
vertex 7 -7 0
vertex -7 -7 0
endloop
endfacet
facet normal 0 1 0
outer loop
vertex 7 -7 1.5
vertex -7 -7 0
vertex -7 -7 1.5
endloop
endfacet
facet normal -1 0 0
outer loop
vertex 7 7 1.5
vertex 7 7 0
vertex 7 -7 0
endloop
endfacet
facet normal -1 0 0
outer loop
vertex 7 7 1.5
vertex 7 -7 0
vertex 7 -7 1.5
endloop
endfacet
facet normal 0 -1 0
outer loop
vertex 7 7 0
vertex 7 7 1.5
vertex -7 7 1.5
endloop
endfacet
facet normal 0 -1 0
outer loop
vertex 7 7 0
vertex -7 7 1.5
vertex -7 7 0
endloop
endfacet
facet normal 1 0 0
outer loop
vertex -7 7 0
vertex -7 7 1.5
vertex -7 -7 1.5
endloop
endfacet
facet normal 1 0 0
outer loop
vertex -7 7 0
vertex -7 -7 1.5
vertex -7 -7 0
endloop
endfacet
endsolid csg.js
