%TF.GenerationSoftware,KiCad,Pcbnew,8.0.8-2.fc41*%
%TF.CreationDate,2025-01-20T23:34:32+01:00*%
%TF.ProjectId,laserraven_traced_and_silked_screws,6c617365-7272-4617-9665-6e5f74726163,1.0.0*%
%TF.SameCoordinates,Original*%
%TF.FileFunction,Legend,Top*%
%TF.FilePolarity,Positive*%
%FSLAX46Y46*%
G04 Gerber Fmt 4.6, Leading zero omitted, Abs format (unit mm)*
G04 Created by KiCad (PCBNEW 8.0.8-2.fc41) date 2025-01-20 23:34:32*
%MOMM*%
%LPD*%
G01*
G04 APERTURE LIST*
G04 Aperture macros list*
%AMRotRect*
0 Rectangle, with rotation*
0 The origin of the aperture is its center*
0 $1 length*
0 $2 width*
0 $3 Rotation angle, in degrees counterclockwise*
0 Add horizontal line*
21,1,$1,$2,0,0,$3*%
G04 Aperture macros list end*
%ADD10C,0.150000*%
%ADD11C,0.100000*%
%ADD12RotRect,1.752600X1.752600X299.000000*%
%ADD13C,1.752600*%
G04 APERTURE END LIST*
D10*
X234298651Y-197801024D02*
X233910803Y-197101328D01*
X233910803Y-197101328D02*
X234177354Y-196953577D01*
X234177354Y-196953577D02*
X234262461Y-196949958D01*
X234262461Y-196949958D02*
X234314248Y-196964808D01*
X234314248Y-196964808D02*
X234384505Y-197012976D01*
X234384505Y-197012976D02*
X234439912Y-197112933D01*
X234439912Y-197112933D02*
X234443531Y-197198040D01*
X234443531Y-197198040D02*
X234428681Y-197249827D01*
X234428681Y-197249827D02*
X234380512Y-197320084D01*
X234380512Y-197320084D02*
X234113962Y-197467836D01*
X235364854Y-197210018D02*
X234965028Y-197431645D01*
X235164941Y-197320832D02*
X234777093Y-196621136D01*
X234777093Y-196621136D02*
X234765862Y-196758030D01*
X234765862Y-196758030D02*
X234736163Y-196861606D01*
X234736163Y-196861606D02*
X234687994Y-196931863D01*
X235706028Y-196411113D02*
X235964593Y-196877577D01*
X235391683Y-196236907D02*
X235502122Y-196829035D01*
X235502122Y-196829035D02*
X235935267Y-196588938D01*
X232843670Y-175374578D02*
X232455822Y-174674882D01*
X232455822Y-174674882D02*
X232722373Y-174527131D01*
X232722373Y-174527131D02*
X232807480Y-174523512D01*
X232807480Y-174523512D02*
X232859267Y-174538362D01*
X232859267Y-174538362D02*
X232929524Y-174586530D01*
X232929524Y-174586530D02*
X232984931Y-174686487D01*
X232984931Y-174686487D02*
X232988550Y-174771594D01*
X232988550Y-174771594D02*
X232973700Y-174823381D01*
X232973700Y-174823381D02*
X232925531Y-174893638D01*
X232925531Y-174893638D02*
X232658981Y-175041390D01*
X233288793Y-174213159D02*
X233355431Y-174176221D01*
X233355431Y-174176221D02*
X233440538Y-174172602D01*
X233440538Y-174172602D02*
X233492325Y-174187452D01*
X233492325Y-174187452D02*
X233562582Y-174235621D01*
X233562582Y-174235621D02*
X233669777Y-174350427D01*
X233669777Y-174350427D02*
X233762122Y-174517021D01*
X233762122Y-174517021D02*
X233802678Y-174668766D01*
X233802678Y-174668766D02*
X233806297Y-174753872D01*
X233806297Y-174753872D02*
X233791448Y-174805660D01*
X233791448Y-174805660D02*
X233743279Y-174875917D01*
X233743279Y-174875917D02*
X233676641Y-174912855D01*
X233676641Y-174912855D02*
X233591534Y-174916474D01*
X233591534Y-174916474D02*
X233539747Y-174901624D01*
X233539747Y-174901624D02*
X233469490Y-174853455D01*
X233469490Y-174853455D02*
X233362295Y-174738649D01*
X233362295Y-174738649D02*
X233269951Y-174572054D01*
X233269951Y-174572054D02*
X233229394Y-174420310D01*
X233229394Y-174420310D02*
X233225775Y-174335203D01*
X233225775Y-174335203D02*
X233240625Y-174283416D01*
X233240625Y-174283416D02*
X233288793Y-174213159D01*
X233955171Y-173843780D02*
X234021808Y-173806842D01*
X234021808Y-173806842D02*
X234106915Y-173803223D01*
X234106915Y-173803223D02*
X234158703Y-173818073D01*
X234158703Y-173818073D02*
X234228959Y-173866242D01*
X234228959Y-173866242D02*
X234336154Y-173981048D01*
X234336154Y-173981048D02*
X234428499Y-174147642D01*
X234428499Y-174147642D02*
X234469056Y-174299387D01*
X234469056Y-174299387D02*
X234472675Y-174384493D01*
X234472675Y-174384493D02*
X234457825Y-174436281D01*
X234457825Y-174436281D02*
X234409656Y-174506538D01*
X234409656Y-174506538D02*
X234343018Y-174543476D01*
X234343018Y-174543476D02*
X234257912Y-174547095D01*
X234257912Y-174547095D02*
X234206124Y-174532245D01*
X234206124Y-174532245D02*
X234135867Y-174484076D01*
X234135867Y-174484076D02*
X234028672Y-174369270D01*
X234028672Y-174369270D02*
X233936328Y-174202675D01*
X233936328Y-174202675D02*
X233895771Y-174050931D01*
X233895771Y-174050931D02*
X233892152Y-173965825D01*
X233892152Y-173965825D02*
X233907002Y-173914037D01*
X233907002Y-173914037D02*
X233955171Y-173843780D01*
X236537918Y-182039179D02*
X236150070Y-181339483D01*
X236150070Y-181339483D02*
X236416621Y-181191732D01*
X236416621Y-181191732D02*
X236501728Y-181188113D01*
X236501728Y-181188113D02*
X236553515Y-181202963D01*
X236553515Y-181202963D02*
X236623772Y-181251131D01*
X236623772Y-181251131D02*
X236679179Y-181351088D01*
X236679179Y-181351088D02*
X236682798Y-181436195D01*
X236682798Y-181436195D02*
X236667948Y-181487982D01*
X236667948Y-181487982D02*
X236619779Y-181558239D01*
X236619779Y-181558239D02*
X236353229Y-181705991D01*
X236983041Y-180877760D02*
X237049679Y-180840822D01*
X237049679Y-180840822D02*
X237134786Y-180837203D01*
X237134786Y-180837203D02*
X237186573Y-180852053D01*
X237186573Y-180852053D02*
X237256830Y-180900222D01*
X237256830Y-180900222D02*
X237364025Y-181015028D01*
X237364025Y-181015028D02*
X237456370Y-181181622D01*
X237456370Y-181181622D02*
X237496926Y-181333367D01*
X237496926Y-181333367D02*
X237500545Y-181418473D01*
X237500545Y-181418473D02*
X237485696Y-181470261D01*
X237485696Y-181470261D02*
X237437527Y-181540518D01*
X237437527Y-181540518D02*
X237370889Y-181577456D01*
X237370889Y-181577456D02*
X237285782Y-181581075D01*
X237285782Y-181581075D02*
X237233995Y-181566225D01*
X237233995Y-181566225D02*
X237163738Y-181518056D01*
X237163738Y-181518056D02*
X237056543Y-181403250D01*
X237056543Y-181403250D02*
X236964199Y-181236655D01*
X236964199Y-181236655D02*
X236923642Y-181084911D01*
X236923642Y-181084911D02*
X236920023Y-180999804D01*
X236920023Y-180999804D02*
X236934873Y-180948017D01*
X236934873Y-180948017D02*
X236983041Y-180877760D01*
X237519762Y-180667363D02*
X237534612Y-180615576D01*
X237534612Y-180615576D02*
X237582781Y-180545319D01*
X237582781Y-180545319D02*
X237749375Y-180452974D01*
X237749375Y-180452974D02*
X237834482Y-180449355D01*
X237834482Y-180449355D02*
X237886269Y-180464205D01*
X237886269Y-180464205D02*
X237956526Y-180512374D01*
X237956526Y-180512374D02*
X237993464Y-180579012D01*
X237993464Y-180579012D02*
X238015552Y-180697437D01*
X238015552Y-180697437D02*
X237837353Y-181318890D01*
X237837353Y-181318890D02*
X238270498Y-181078794D01*
X239000751Y-186482247D02*
X238612903Y-185782551D01*
X238612903Y-185782551D02*
X238879454Y-185634800D01*
X238879454Y-185634800D02*
X238964561Y-185631181D01*
X238964561Y-185631181D02*
X239016348Y-185646031D01*
X239016348Y-185646031D02*
X239086605Y-185694199D01*
X239086605Y-185694199D02*
X239142012Y-185794156D01*
X239142012Y-185794156D02*
X239145631Y-185879263D01*
X239145631Y-185879263D02*
X239130781Y-185931050D01*
X239130781Y-185931050D02*
X239082612Y-186001307D01*
X239082612Y-186001307D02*
X238816062Y-186149059D01*
X239445874Y-185320828D02*
X239512512Y-185283890D01*
X239512512Y-185283890D02*
X239597619Y-185280271D01*
X239597619Y-185280271D02*
X239649406Y-185295121D01*
X239649406Y-185295121D02*
X239719663Y-185343290D01*
X239719663Y-185343290D02*
X239826858Y-185458096D01*
X239826858Y-185458096D02*
X239919203Y-185624690D01*
X239919203Y-185624690D02*
X239959759Y-185776435D01*
X239959759Y-185776435D02*
X239963378Y-185861541D01*
X239963378Y-185861541D02*
X239948529Y-185913329D01*
X239948529Y-185913329D02*
X239900360Y-185983586D01*
X239900360Y-185983586D02*
X239833722Y-186020524D01*
X239833722Y-186020524D02*
X239748615Y-186024143D01*
X239748615Y-186024143D02*
X239696828Y-186009293D01*
X239696828Y-186009293D02*
X239626571Y-185961124D01*
X239626571Y-185961124D02*
X239519376Y-185846318D01*
X239519376Y-185846318D02*
X239427032Y-185679723D01*
X239427032Y-185679723D02*
X239386475Y-185527979D01*
X239386475Y-185527979D02*
X239382856Y-185442872D01*
X239382856Y-185442872D02*
X239397706Y-185391085D01*
X239397706Y-185391085D02*
X239445874Y-185320828D01*
X240408128Y-185092336D02*
X240666693Y-185558800D01*
X240093783Y-184918130D02*
X240204222Y-185510258D01*
X240204222Y-185510258D02*
X240637367Y-185270161D01*
X229372987Y-188914887D02*
X228985139Y-188215191D01*
X228985139Y-188215191D02*
X229251690Y-188067440D01*
X229251690Y-188067440D02*
X229336797Y-188063821D01*
X229336797Y-188063821D02*
X229388584Y-188078671D01*
X229388584Y-188078671D02*
X229458841Y-188126839D01*
X229458841Y-188126839D02*
X229514248Y-188226796D01*
X229514248Y-188226796D02*
X229517867Y-188311903D01*
X229517867Y-188311903D02*
X229503017Y-188363690D01*
X229503017Y-188363690D02*
X229454848Y-188433947D01*
X229454848Y-188433947D02*
X229188298Y-188581699D01*
X229688454Y-187912450D02*
X229703304Y-187860662D01*
X229703304Y-187860662D02*
X229751473Y-187790406D01*
X229751473Y-187790406D02*
X229918067Y-187698061D01*
X229918067Y-187698061D02*
X230003174Y-187694442D01*
X230003174Y-187694442D02*
X230054961Y-187709292D01*
X230054961Y-187709292D02*
X230125218Y-187757461D01*
X230125218Y-187757461D02*
X230162156Y-187824098D01*
X230162156Y-187824098D02*
X230184244Y-187942524D01*
X230184244Y-187942524D02*
X230006045Y-188563977D01*
X230006045Y-188563977D02*
X230439190Y-188323881D01*
X230484488Y-187384089D02*
X230551125Y-187347151D01*
X230551125Y-187347151D02*
X230636232Y-187343532D01*
X230636232Y-187343532D02*
X230688020Y-187358382D01*
X230688020Y-187358382D02*
X230758276Y-187406551D01*
X230758276Y-187406551D02*
X230865471Y-187521357D01*
X230865471Y-187521357D02*
X230957816Y-187687951D01*
X230957816Y-187687951D02*
X230998373Y-187839696D01*
X230998373Y-187839696D02*
X231001992Y-187924802D01*
X231001992Y-187924802D02*
X230987142Y-187976590D01*
X230987142Y-187976590D02*
X230938973Y-188046847D01*
X230938973Y-188046847D02*
X230872335Y-188083785D01*
X230872335Y-188083785D02*
X230787229Y-188087404D01*
X230787229Y-188087404D02*
X230735441Y-188072554D01*
X230735441Y-188072554D02*
X230665184Y-188024385D01*
X230665184Y-188024385D02*
X230557989Y-187909579D01*
X230557989Y-187909579D02*
X230465645Y-187742984D01*
X230465645Y-187742984D02*
X230425088Y-187591240D01*
X230425088Y-187591240D02*
X230421469Y-187506134D01*
X230421469Y-187506134D02*
X230436319Y-187454346D01*
X230436319Y-187454346D02*
X230484488Y-187384089D01*
X233067235Y-195579487D02*
X232679387Y-194879791D01*
X232679387Y-194879791D02*
X232945938Y-194732040D01*
X232945938Y-194732040D02*
X233031045Y-194728421D01*
X233031045Y-194728421D02*
X233082832Y-194743271D01*
X233082832Y-194743271D02*
X233153089Y-194791439D01*
X233153089Y-194791439D02*
X233208496Y-194891396D01*
X233208496Y-194891396D02*
X233212115Y-194976503D01*
X233212115Y-194976503D02*
X233197265Y-195028290D01*
X233197265Y-195028290D02*
X233149096Y-195098547D01*
X233149096Y-195098547D02*
X232882546Y-195246299D01*
X234133438Y-194988481D02*
X233733612Y-195210108D01*
X233933525Y-195099295D02*
X233545677Y-194399599D01*
X233545677Y-194399599D02*
X233534446Y-194536493D01*
X233534446Y-194536493D02*
X233504747Y-194640069D01*
X233504747Y-194640069D02*
X233456578Y-194710326D01*
X234378649Y-193937875D02*
X234045460Y-194122565D01*
X234045460Y-194122565D02*
X234196831Y-194474222D01*
X234196831Y-194474222D02*
X234211681Y-194422434D01*
X234211681Y-194422434D02*
X234259849Y-194352178D01*
X234259849Y-194352178D02*
X234426444Y-194259833D01*
X234426444Y-194259833D02*
X234511550Y-194256214D01*
X234511550Y-194256214D02*
X234563338Y-194271064D01*
X234563338Y-194271064D02*
X234633595Y-194319233D01*
X234633595Y-194319233D02*
X234725939Y-194485827D01*
X234725939Y-194485827D02*
X234729558Y-194570933D01*
X234729558Y-194570933D02*
X234714709Y-194622721D01*
X234714709Y-194622721D02*
X234666540Y-194692978D01*
X234666540Y-194692978D02*
X234499946Y-194785323D01*
X234499946Y-194785323D02*
X234414839Y-194788942D01*
X234414839Y-194788942D02*
X234363051Y-194774092D01*
X236761484Y-202244089D02*
X236373636Y-201544393D01*
X236373636Y-201544393D02*
X236640187Y-201396642D01*
X236640187Y-201396642D02*
X236725294Y-201393023D01*
X236725294Y-201393023D02*
X236777081Y-201407873D01*
X236777081Y-201407873D02*
X236847338Y-201456041D01*
X236847338Y-201456041D02*
X236902745Y-201555998D01*
X236902745Y-201555998D02*
X236906364Y-201641105D01*
X236906364Y-201641105D02*
X236891514Y-201692892D01*
X236891514Y-201692892D02*
X236843345Y-201763149D01*
X236843345Y-201763149D02*
X236576795Y-201910901D01*
X237827687Y-201653083D02*
X237427861Y-201874710D01*
X237627774Y-201763897D02*
X237239926Y-201064201D01*
X237239926Y-201064201D02*
X237228695Y-201201095D01*
X237228695Y-201201095D02*
X237198996Y-201304671D01*
X237198996Y-201304671D02*
X237150827Y-201374928D01*
X237872985Y-200713291D02*
X237939622Y-200676353D01*
X237939622Y-200676353D02*
X238024729Y-200672734D01*
X238024729Y-200672734D02*
X238076517Y-200687584D01*
X238076517Y-200687584D02*
X238146773Y-200735753D01*
X238146773Y-200735753D02*
X238253968Y-200850559D01*
X238253968Y-200850559D02*
X238346313Y-201017153D01*
X238346313Y-201017153D02*
X238386870Y-201168898D01*
X238386870Y-201168898D02*
X238390489Y-201254004D01*
X238390489Y-201254004D02*
X238375639Y-201305792D01*
X238375639Y-201305792D02*
X238327470Y-201376049D01*
X238327470Y-201376049D02*
X238260832Y-201412987D01*
X238260832Y-201412987D02*
X238175726Y-201416606D01*
X238175726Y-201416606D02*
X238123938Y-201401756D01*
X238123938Y-201401756D02*
X238053681Y-201353587D01*
X238053681Y-201353587D02*
X237946486Y-201238781D01*
X237946486Y-201238781D02*
X237854142Y-201072186D01*
X237854142Y-201072186D02*
X237813585Y-200920442D01*
X237813585Y-200920442D02*
X237809966Y-200835336D01*
X237809966Y-200835336D02*
X237824816Y-200783548D01*
X237824816Y-200783548D02*
X237872985Y-200713291D01*
X231612254Y-173153045D02*
X231224406Y-172453349D01*
X231224406Y-172453349D02*
X231490957Y-172305598D01*
X231490957Y-172305598D02*
X231576064Y-172301979D01*
X231576064Y-172301979D02*
X231627851Y-172316829D01*
X231627851Y-172316829D02*
X231698108Y-172364997D01*
X231698108Y-172364997D02*
X231753515Y-172464954D01*
X231753515Y-172464954D02*
X231757134Y-172550061D01*
X231757134Y-172550061D02*
X231742284Y-172601848D01*
X231742284Y-172601848D02*
X231694115Y-172672105D01*
X231694115Y-172672105D02*
X231427565Y-172819857D01*
X232057377Y-171991626D02*
X232124015Y-171954688D01*
X232124015Y-171954688D02*
X232209122Y-171951069D01*
X232209122Y-171951069D02*
X232260909Y-171965919D01*
X232260909Y-171965919D02*
X232331166Y-172014088D01*
X232331166Y-172014088D02*
X232438361Y-172128894D01*
X232438361Y-172128894D02*
X232530706Y-172295488D01*
X232530706Y-172295488D02*
X232571262Y-172447233D01*
X232571262Y-172447233D02*
X232574881Y-172532339D01*
X232574881Y-172532339D02*
X232560032Y-172584127D01*
X232560032Y-172584127D02*
X232511863Y-172654384D01*
X232511863Y-172654384D02*
X232445225Y-172691322D01*
X232445225Y-172691322D02*
X232360118Y-172694941D01*
X232360118Y-172694941D02*
X232308331Y-172680091D01*
X232308331Y-172680091D02*
X232238074Y-172631922D01*
X232238074Y-172631922D02*
X232130879Y-172517116D01*
X232130879Y-172517116D02*
X232038535Y-172350521D01*
X232038535Y-172350521D02*
X231997978Y-172198777D01*
X231997978Y-172198777D02*
X231994359Y-172113670D01*
X231994359Y-172113670D02*
X232009209Y-172061883D01*
X232009209Y-172061883D02*
X232057377Y-171991626D01*
X233344834Y-172192660D02*
X232945008Y-172414287D01*
X233144921Y-172303474D02*
X232757073Y-171603778D01*
X232757073Y-171603778D02*
X232745842Y-171740672D01*
X232745842Y-171740672D02*
X232716143Y-171844248D01*
X232716143Y-171844248D02*
X232667974Y-171914505D01*
X231835820Y-193357955D02*
X231447972Y-192658259D01*
X231447972Y-192658259D02*
X231714523Y-192510508D01*
X231714523Y-192510508D02*
X231799630Y-192506889D01*
X231799630Y-192506889D02*
X231851417Y-192521739D01*
X231851417Y-192521739D02*
X231921674Y-192569907D01*
X231921674Y-192569907D02*
X231977081Y-192669864D01*
X231977081Y-192669864D02*
X231980700Y-192754971D01*
X231980700Y-192754971D02*
X231965850Y-192806758D01*
X231965850Y-192806758D02*
X231917681Y-192877015D01*
X231917681Y-192877015D02*
X231651131Y-193024767D01*
X232902023Y-192766949D02*
X232502197Y-192988576D01*
X232702110Y-192877763D02*
X232314262Y-192178067D01*
X232314262Y-192178067D02*
X232303031Y-192314961D01*
X232303031Y-192314961D02*
X232273332Y-192418537D01*
X232273332Y-192418537D02*
X232225163Y-192488794D01*
X233080222Y-192145496D02*
X232995115Y-192149115D01*
X232995115Y-192149115D02*
X232943328Y-192134265D01*
X232943328Y-192134265D02*
X232873071Y-192086096D01*
X232873071Y-192086096D02*
X232854602Y-192052777D01*
X232854602Y-192052777D02*
X232850983Y-191967670D01*
X232850983Y-191967670D02*
X232865833Y-191915883D01*
X232865833Y-191915883D02*
X232914002Y-191845626D01*
X232914002Y-191845626D02*
X233047277Y-191771750D01*
X233047277Y-191771750D02*
X233132384Y-191768131D01*
X233132384Y-191768131D02*
X233184171Y-191782981D01*
X233184171Y-191782981D02*
X233254428Y-191831150D01*
X233254428Y-191831150D02*
X233272897Y-191864469D01*
X233272897Y-191864469D02*
X233276516Y-191949575D01*
X233276516Y-191949575D02*
X233261666Y-192001363D01*
X233261666Y-192001363D02*
X233213497Y-192071620D01*
X233213497Y-192071620D02*
X233080222Y-192145496D01*
X233080222Y-192145496D02*
X233032053Y-192215752D01*
X233032053Y-192215752D02*
X233017203Y-192267540D01*
X233017203Y-192267540D02*
X233020822Y-192352647D01*
X233020822Y-192352647D02*
X233094698Y-192485922D01*
X233094698Y-192485922D02*
X233164955Y-192534091D01*
X233164955Y-192534091D02*
X233216743Y-192548941D01*
X233216743Y-192548941D02*
X233301849Y-192545322D01*
X233301849Y-192545322D02*
X233435125Y-192471446D01*
X233435125Y-192471446D02*
X233483294Y-192401189D01*
X233483294Y-192401189D02*
X233498143Y-192349401D01*
X233498143Y-192349401D02*
X233494524Y-192264295D01*
X233494524Y-192264295D02*
X233420649Y-192131019D01*
X233420649Y-192131019D02*
X233350392Y-192082851D01*
X233350392Y-192082851D02*
X233298604Y-192068001D01*
X233298604Y-192068001D02*
X233213497Y-192071620D01*
X223582413Y-177604059D02*
X223164492Y-177400153D01*
X223182587Y-177825686D02*
X222794740Y-177125990D01*
X222794740Y-177125990D02*
X223061290Y-176978239D01*
X223061290Y-176978239D02*
X223146397Y-176974620D01*
X223146397Y-176974620D02*
X223198185Y-176989470D01*
X223198185Y-176989470D02*
X223268442Y-177037638D01*
X223268442Y-177037638D02*
X223323848Y-177137595D01*
X223323848Y-177137595D02*
X223327467Y-177222701D01*
X223327467Y-177222701D02*
X223312617Y-177274489D01*
X223312617Y-177274489D02*
X223264449Y-177344746D01*
X223264449Y-177344746D02*
X222997898Y-177492497D01*
X223738151Y-177256394D02*
X224071339Y-177071705D01*
X223782327Y-177493245D02*
X223627711Y-176664267D01*
X223627711Y-176664267D02*
X224248790Y-177234680D01*
X224027537Y-176442640D02*
X224581979Y-177049991D01*
X224581979Y-177049991D02*
X224438220Y-176476332D01*
X224438220Y-176476332D02*
X224848529Y-176902239D01*
X224848529Y-176902239D02*
X224627276Y-176110199D01*
X226145201Y-181991721D02*
X225727280Y-181787815D01*
X225745375Y-182213348D02*
X225357527Y-181513652D01*
X225357527Y-181513652D02*
X225624078Y-181365901D01*
X225624078Y-181365901D02*
X225709185Y-181362282D01*
X225709185Y-181362282D02*
X225760973Y-181377132D01*
X225760973Y-181377132D02*
X225831229Y-181425300D01*
X225831229Y-181425300D02*
X225886636Y-181525257D01*
X225886636Y-181525257D02*
X225890255Y-181610363D01*
X225890255Y-181610363D02*
X225875405Y-181662151D01*
X225875405Y-181662151D02*
X225827236Y-181732408D01*
X225827236Y-181732408D02*
X225560686Y-181880159D01*
X226393283Y-181810650D02*
X226511709Y-181788562D01*
X226511709Y-181788562D02*
X226678303Y-181696218D01*
X226678303Y-181696218D02*
X226726472Y-181625961D01*
X226726472Y-181625961D02*
X226741321Y-181574173D01*
X226741321Y-181574173D02*
X226737702Y-181489067D01*
X226737702Y-181489067D02*
X226700765Y-181422429D01*
X226700765Y-181422429D02*
X226630508Y-181374260D01*
X226630508Y-181374260D02*
X226578720Y-181359410D01*
X226578720Y-181359410D02*
X226493613Y-181363029D01*
X226493613Y-181363029D02*
X226341869Y-181403586D01*
X226341869Y-181403586D02*
X226256762Y-181407205D01*
X226256762Y-181407205D02*
X226204975Y-181392355D01*
X226204975Y-181392355D02*
X226134718Y-181344187D01*
X226134718Y-181344187D02*
X226097780Y-181277549D01*
X226097780Y-181277549D02*
X226094161Y-181192442D01*
X226094161Y-181192442D02*
X226109011Y-181140654D01*
X226109011Y-181140654D02*
X226157180Y-181070398D01*
X226157180Y-181070398D02*
X226323774Y-180978053D01*
X226323774Y-180978053D02*
X226442199Y-180955965D01*
X226623644Y-180811832D02*
X227023470Y-180590205D01*
X227211405Y-181400715D02*
X226823557Y-180701019D01*
X242695001Y-193146848D02*
X242307153Y-192447152D01*
X242307153Y-192447152D02*
X242573704Y-192299401D01*
X242573704Y-192299401D02*
X242658811Y-192295782D01*
X242658811Y-192295782D02*
X242710598Y-192310632D01*
X242710598Y-192310632D02*
X242780855Y-192358800D01*
X242780855Y-192358800D02*
X242836262Y-192458757D01*
X242836262Y-192458757D02*
X242839881Y-192543864D01*
X242839881Y-192543864D02*
X242825031Y-192595651D01*
X242825031Y-192595651D02*
X242776862Y-192665908D01*
X242776862Y-192665908D02*
X242510312Y-192813660D01*
X243140124Y-191985429D02*
X243206762Y-191948491D01*
X243206762Y-191948491D02*
X243291869Y-191944872D01*
X243291869Y-191944872D02*
X243343656Y-191959722D01*
X243343656Y-191959722D02*
X243413913Y-192007891D01*
X243413913Y-192007891D02*
X243521108Y-192122697D01*
X243521108Y-192122697D02*
X243613453Y-192289291D01*
X243613453Y-192289291D02*
X243654009Y-192441036D01*
X243654009Y-192441036D02*
X243657628Y-192526142D01*
X243657628Y-192526142D02*
X243642779Y-192577930D01*
X243642779Y-192577930D02*
X243594610Y-192648187D01*
X243594610Y-192648187D02*
X243527972Y-192685125D01*
X243527972Y-192685125D02*
X243442865Y-192688744D01*
X243442865Y-192688744D02*
X243391078Y-192673894D01*
X243391078Y-192673894D02*
X243320821Y-192625725D01*
X243320821Y-192625725D02*
X243213626Y-192510919D01*
X243213626Y-192510919D02*
X243121282Y-192344324D01*
X243121282Y-192344324D02*
X243080725Y-192192580D01*
X243080725Y-192192580D02*
X243077106Y-192107473D01*
X243077106Y-192107473D02*
X243091956Y-192055686D01*
X243091956Y-192055686D02*
X243140124Y-191985429D01*
X243606588Y-191726864D02*
X244073052Y-191468298D01*
X244073052Y-191468298D02*
X244161030Y-192334215D01*
X228141572Y-186693351D02*
X227753724Y-185993655D01*
X227753724Y-185993655D02*
X228020275Y-185845904D01*
X228020275Y-185845904D02*
X228105382Y-185842285D01*
X228105382Y-185842285D02*
X228157169Y-185857135D01*
X228157169Y-185857135D02*
X228227426Y-185905303D01*
X228227426Y-185905303D02*
X228282833Y-186005260D01*
X228282833Y-186005260D02*
X228286452Y-186090367D01*
X228286452Y-186090367D02*
X228271602Y-186142154D01*
X228271602Y-186142154D02*
X228223433Y-186212411D01*
X228223433Y-186212411D02*
X227956883Y-186360163D01*
X228457039Y-185690914D02*
X228471889Y-185639126D01*
X228471889Y-185639126D02*
X228520058Y-185568870D01*
X228520058Y-185568870D02*
X228686652Y-185476525D01*
X228686652Y-185476525D02*
X228771759Y-185472906D01*
X228771759Y-185472906D02*
X228823546Y-185487756D01*
X228823546Y-185487756D02*
X228893803Y-185535925D01*
X228893803Y-185535925D02*
X228930741Y-185602562D01*
X228930741Y-185602562D02*
X228952829Y-185720988D01*
X228952829Y-185720988D02*
X228774630Y-186342441D01*
X228774630Y-186342441D02*
X229207775Y-186102345D01*
X229874152Y-185732966D02*
X229474326Y-185954593D01*
X229674239Y-185843780D02*
X229286391Y-185144084D01*
X229286391Y-185144084D02*
X229275160Y-185280978D01*
X229275160Y-185280978D02*
X229245461Y-185384554D01*
X229245461Y-185384554D02*
X229197292Y-185454811D01*
X226439009Y-183818295D02*
X227060089Y-184388709D01*
X227060089Y-184388709D02*
X226905473Y-183559730D01*
X227889441Y-183841879D02*
X227874591Y-183893667D01*
X227874591Y-183893667D02*
X227793103Y-183982392D01*
X227793103Y-183982392D02*
X227726466Y-184019330D01*
X227726466Y-184019330D02*
X227608040Y-184041418D01*
X227608040Y-184041418D02*
X227504465Y-184011718D01*
X227504465Y-184011718D02*
X227434208Y-183963549D01*
X227434208Y-183963549D02*
X227327013Y-183848743D01*
X227327013Y-183848743D02*
X227271607Y-183748786D01*
X227271607Y-183748786D02*
X227231050Y-183597042D01*
X227231050Y-183597042D02*
X227227431Y-183511936D01*
X227227431Y-183511936D02*
X227257130Y-183408360D01*
X227257130Y-183408360D02*
X227338618Y-183319634D01*
X227338618Y-183319634D02*
X227405256Y-183282696D01*
X227405256Y-183282696D02*
X227523681Y-183260608D01*
X227523681Y-183260608D02*
X227575469Y-183275458D01*
X228589137Y-183454031D02*
X228574287Y-183505819D01*
X228574287Y-183505819D02*
X228492799Y-183594544D01*
X228492799Y-183594544D02*
X228426162Y-183631482D01*
X228426162Y-183631482D02*
X228307736Y-183653570D01*
X228307736Y-183653570D02*
X228204160Y-183623871D01*
X228204160Y-183623871D02*
X228133904Y-183575702D01*
X228133904Y-183575702D02*
X228026709Y-183460895D01*
X228026709Y-183460895D02*
X227971302Y-183360939D01*
X227971302Y-183360939D02*
X227930745Y-183209194D01*
X227930745Y-183209194D02*
X227927126Y-183124088D01*
X227927126Y-183124088D02*
X227956826Y-183020512D01*
X227956826Y-183020512D02*
X228038314Y-182931787D01*
X228038314Y-182931787D02*
X228104952Y-182894849D01*
X228104952Y-182894849D02*
X228223377Y-182872761D01*
X228223377Y-182872761D02*
X228275165Y-182887611D01*
X237769335Y-184260714D02*
X237381487Y-183561018D01*
X237381487Y-183561018D02*
X237648038Y-183413267D01*
X237648038Y-183413267D02*
X237733145Y-183409648D01*
X237733145Y-183409648D02*
X237784932Y-183424498D01*
X237784932Y-183424498D02*
X237855189Y-183472666D01*
X237855189Y-183472666D02*
X237910596Y-183572623D01*
X237910596Y-183572623D02*
X237914215Y-183657730D01*
X237914215Y-183657730D02*
X237899365Y-183709517D01*
X237899365Y-183709517D02*
X237851196Y-183779774D01*
X237851196Y-183779774D02*
X237584646Y-183927526D01*
X238214458Y-183099295D02*
X238281096Y-183062357D01*
X238281096Y-183062357D02*
X238366203Y-183058738D01*
X238366203Y-183058738D02*
X238417990Y-183073588D01*
X238417990Y-183073588D02*
X238488247Y-183121757D01*
X238488247Y-183121757D02*
X238595442Y-183236563D01*
X238595442Y-183236563D02*
X238687787Y-183403157D01*
X238687787Y-183403157D02*
X238728343Y-183554902D01*
X238728343Y-183554902D02*
X238731962Y-183640008D01*
X238731962Y-183640008D02*
X238717113Y-183691796D01*
X238717113Y-183691796D02*
X238668944Y-183762053D01*
X238668944Y-183762053D02*
X238602306Y-183798991D01*
X238602306Y-183798991D02*
X238517199Y-183802610D01*
X238517199Y-183802610D02*
X238465412Y-183787760D01*
X238465412Y-183787760D02*
X238395155Y-183739591D01*
X238395155Y-183739591D02*
X238287960Y-183624785D01*
X238287960Y-183624785D02*
X238195616Y-183458190D01*
X238195616Y-183458190D02*
X238155059Y-183306446D01*
X238155059Y-183306446D02*
X238151440Y-183221339D01*
X238151440Y-183221339D02*
X238166290Y-183169552D01*
X238166290Y-183169552D02*
X238214458Y-183099295D01*
X238680922Y-182840730D02*
X239114067Y-182600633D01*
X239114067Y-182600633D02*
X239028587Y-182996467D01*
X239028587Y-182996467D02*
X239128544Y-182941060D01*
X239128544Y-182941060D02*
X239213650Y-182937441D01*
X239213650Y-182937441D02*
X239265438Y-182952291D01*
X239265438Y-182952291D02*
X239335695Y-183000460D01*
X239335695Y-183000460D02*
X239428039Y-183167054D01*
X239428039Y-183167054D02*
X239431658Y-183252160D01*
X239431658Y-183252160D02*
X239416809Y-183303948D01*
X239416809Y-183303948D02*
X239368640Y-183374205D01*
X239368640Y-183374205D02*
X239168727Y-183485019D01*
X239168727Y-183485019D02*
X239083620Y-183488638D01*
X239083620Y-183488638D02*
X239031832Y-183473788D01*
X235253654Y-178975815D02*
X235168547Y-178979434D01*
X235168547Y-178979434D02*
X235068591Y-179034841D01*
X235068591Y-179034841D02*
X234987103Y-179123566D01*
X234987103Y-179123566D02*
X234957403Y-179227142D01*
X234957403Y-179227142D02*
X234961022Y-179312249D01*
X234961022Y-179312249D02*
X235001579Y-179463993D01*
X235001579Y-179463993D02*
X235056986Y-179563949D01*
X235056986Y-179563949D02*
X235164181Y-179678756D01*
X235164181Y-179678756D02*
X235234437Y-179726925D01*
X235234437Y-179726925D02*
X235338013Y-179756624D01*
X235338013Y-179756624D02*
X235456438Y-179734536D01*
X235456438Y-179734536D02*
X235523076Y-179697599D01*
X235523076Y-179697599D02*
X235604564Y-179608873D01*
X235604564Y-179608873D02*
X235619414Y-179557085D01*
X235619414Y-179557085D02*
X235490131Y-179323853D01*
X235490131Y-179323853D02*
X235356856Y-179397729D01*
X235956221Y-179457502D02*
X235568373Y-178757807D01*
X235568373Y-178757807D02*
X236356047Y-179235875D01*
X236356047Y-179235875D02*
X235968200Y-178536179D01*
X236689236Y-179051186D02*
X236301388Y-178351490D01*
X236301388Y-178351490D02*
X236467982Y-178259145D01*
X236467982Y-178259145D02*
X236586408Y-178237057D01*
X236586408Y-178237057D02*
X236689983Y-178266757D01*
X236689983Y-178266757D02*
X236760240Y-178314926D01*
X236760240Y-178314926D02*
X236867434Y-178429732D01*
X236867434Y-178429732D02*
X236922841Y-178529689D01*
X236922841Y-178529689D02*
X236963398Y-178681433D01*
X236963398Y-178681433D02*
X236967017Y-178766540D01*
X236967017Y-178766540D02*
X236937317Y-178870116D01*
X236937317Y-178870116D02*
X236855830Y-178958841D01*
X236855830Y-178958841D02*
X236689236Y-179051186D01*
X234022238Y-176754278D02*
X233937131Y-176757897D01*
X233937131Y-176757897D02*
X233837175Y-176813304D01*
X233837175Y-176813304D02*
X233755687Y-176902029D01*
X233755687Y-176902029D02*
X233725987Y-177005605D01*
X233725987Y-177005605D02*
X233729606Y-177090712D01*
X233729606Y-177090712D02*
X233770163Y-177242456D01*
X233770163Y-177242456D02*
X233825570Y-177342412D01*
X233825570Y-177342412D02*
X233932765Y-177457219D01*
X233932765Y-177457219D02*
X234003021Y-177505388D01*
X234003021Y-177505388D02*
X234106597Y-177535087D01*
X234106597Y-177535087D02*
X234225022Y-177512999D01*
X234225022Y-177512999D02*
X234291660Y-177476062D01*
X234291660Y-177476062D02*
X234373148Y-177387336D01*
X234373148Y-177387336D02*
X234387998Y-177335548D01*
X234387998Y-177335548D02*
X234258715Y-177102316D01*
X234258715Y-177102316D02*
X234125440Y-177176192D01*
X234724805Y-177235965D02*
X234336957Y-176536270D01*
X234336957Y-176536270D02*
X235124631Y-177014338D01*
X235124631Y-177014338D02*
X234736784Y-176314642D01*
X235457820Y-176829649D02*
X235069972Y-176129953D01*
X235069972Y-176129953D02*
X235236566Y-176037608D01*
X235236566Y-176037608D02*
X235354992Y-176015520D01*
X235354992Y-176015520D02*
X235458567Y-176045220D01*
X235458567Y-176045220D02*
X235528824Y-176093389D01*
X235528824Y-176093389D02*
X235636018Y-176208195D01*
X235636018Y-176208195D02*
X235691425Y-176308152D01*
X235691425Y-176308152D02*
X235731982Y-176459896D01*
X235731982Y-176459896D02*
X235735601Y-176545003D01*
X235735601Y-176545003D02*
X235705901Y-176648579D01*
X235705901Y-176648579D02*
X235624414Y-176737304D01*
X235624414Y-176737304D02*
X235457820Y-176829649D01*
X241463584Y-190925315D02*
X241075736Y-190225619D01*
X241075736Y-190225619D02*
X241342287Y-190077868D01*
X241342287Y-190077868D02*
X241427394Y-190074249D01*
X241427394Y-190074249D02*
X241479181Y-190089099D01*
X241479181Y-190089099D02*
X241549438Y-190137267D01*
X241549438Y-190137267D02*
X241604845Y-190237224D01*
X241604845Y-190237224D02*
X241608464Y-190322331D01*
X241608464Y-190322331D02*
X241593614Y-190374118D01*
X241593614Y-190374118D02*
X241545445Y-190444375D01*
X241545445Y-190444375D02*
X241278895Y-190592127D01*
X241908707Y-189763896D02*
X241975345Y-189726958D01*
X241975345Y-189726958D02*
X242060452Y-189723339D01*
X242060452Y-189723339D02*
X242112239Y-189738189D01*
X242112239Y-189738189D02*
X242182496Y-189786358D01*
X242182496Y-189786358D02*
X242289691Y-189901164D01*
X242289691Y-189901164D02*
X242382036Y-190067758D01*
X242382036Y-190067758D02*
X242422592Y-190219503D01*
X242422592Y-190219503D02*
X242426211Y-190304609D01*
X242426211Y-190304609D02*
X242411362Y-190356397D01*
X242411362Y-190356397D02*
X242363193Y-190426654D01*
X242363193Y-190426654D02*
X242296555Y-190463592D01*
X242296555Y-190463592D02*
X242211448Y-190467211D01*
X242211448Y-190467211D02*
X242159661Y-190452361D01*
X242159661Y-190452361D02*
X242089404Y-190404192D01*
X242089404Y-190404192D02*
X241982209Y-190289386D01*
X241982209Y-190289386D02*
X241889865Y-190122791D01*
X241889865Y-190122791D02*
X241849308Y-189971047D01*
X241849308Y-189971047D02*
X241845689Y-189885940D01*
X241845689Y-189885940D02*
X241860539Y-189834153D01*
X241860539Y-189834153D02*
X241908707Y-189763896D01*
X242741679Y-189302172D02*
X242608403Y-189376048D01*
X242608403Y-189376048D02*
X242560235Y-189446305D01*
X242560235Y-189446305D02*
X242545385Y-189498093D01*
X242545385Y-189498093D02*
X242534154Y-189634987D01*
X242534154Y-189634987D02*
X242574711Y-189786731D01*
X242574711Y-189786731D02*
X242722462Y-190053282D01*
X242722462Y-190053282D02*
X242792719Y-190101451D01*
X242792719Y-190101451D02*
X242844507Y-190116301D01*
X242844507Y-190116301D02*
X242929613Y-190112682D01*
X242929613Y-190112682D02*
X243062889Y-190038806D01*
X243062889Y-190038806D02*
X243111058Y-189968549D01*
X243111058Y-189968549D02*
X243125907Y-189916761D01*
X243125907Y-189916761D02*
X243122288Y-189831655D01*
X243122288Y-189831655D02*
X243029944Y-189665061D01*
X243029944Y-189665061D02*
X242959687Y-189616892D01*
X242959687Y-189616892D02*
X242907899Y-189602042D01*
X242907899Y-189602042D02*
X242822793Y-189605661D01*
X242822793Y-189605661D02*
X242689517Y-189679537D01*
X242689517Y-189679537D02*
X242641348Y-189749793D01*
X242641348Y-189749793D02*
X242626499Y-189801581D01*
X242626499Y-189801581D02*
X242630118Y-189886688D01*
X245157832Y-197589917D02*
X244769984Y-196890221D01*
X244769984Y-196890221D02*
X245036535Y-196742470D01*
X245036535Y-196742470D02*
X245121642Y-196738851D01*
X245121642Y-196738851D02*
X245173429Y-196753701D01*
X245173429Y-196753701D02*
X245243686Y-196801869D01*
X245243686Y-196801869D02*
X245299093Y-196901826D01*
X245299093Y-196901826D02*
X245302712Y-196986933D01*
X245302712Y-196986933D02*
X245287862Y-197038720D01*
X245287862Y-197038720D02*
X245239693Y-197108977D01*
X245239693Y-197108977D02*
X244973143Y-197256729D01*
X245602955Y-196428498D02*
X245669593Y-196391560D01*
X245669593Y-196391560D02*
X245754700Y-196387941D01*
X245754700Y-196387941D02*
X245806487Y-196402791D01*
X245806487Y-196402791D02*
X245876744Y-196450960D01*
X245876744Y-196450960D02*
X245983939Y-196565766D01*
X245983939Y-196565766D02*
X246076284Y-196732360D01*
X246076284Y-196732360D02*
X246116840Y-196884105D01*
X246116840Y-196884105D02*
X246120459Y-196969211D01*
X246120459Y-196969211D02*
X246105610Y-197020999D01*
X246105610Y-197020999D02*
X246057441Y-197091256D01*
X246057441Y-197091256D02*
X245990803Y-197128194D01*
X245990803Y-197128194D02*
X245905696Y-197131813D01*
X245905696Y-197131813D02*
X245853909Y-197116963D01*
X245853909Y-197116963D02*
X245783652Y-197068794D01*
X245783652Y-197068794D02*
X245676457Y-196953988D01*
X245676457Y-196953988D02*
X245584113Y-196787393D01*
X245584113Y-196787393D02*
X245543556Y-196635649D01*
X245543556Y-196635649D02*
X245539937Y-196550542D01*
X245539937Y-196550542D02*
X245554787Y-196498755D01*
X245554787Y-196498755D02*
X245602955Y-196428498D01*
X246557224Y-196814222D02*
X246690499Y-196740346D01*
X246690499Y-196740346D02*
X246738668Y-196670089D01*
X246738668Y-196670089D02*
X246753518Y-196618301D01*
X246753518Y-196618301D02*
X246764749Y-196481407D01*
X246764749Y-196481407D02*
X246724192Y-196329663D01*
X246724192Y-196329663D02*
X246576440Y-196063112D01*
X246576440Y-196063112D02*
X246506183Y-196014943D01*
X246506183Y-196014943D02*
X246454396Y-196000093D01*
X246454396Y-196000093D02*
X246369289Y-196003712D01*
X246369289Y-196003712D02*
X246236014Y-196077588D01*
X246236014Y-196077588D02*
X246187845Y-196147845D01*
X246187845Y-196147845D02*
X246172995Y-196199632D01*
X246172995Y-196199632D02*
X246176614Y-196284739D01*
X246176614Y-196284739D02*
X246268959Y-196451333D01*
X246268959Y-196451333D02*
X246339215Y-196499502D01*
X246339215Y-196499502D02*
X246391003Y-196514352D01*
X246391003Y-196514352D02*
X246476110Y-196510733D01*
X246476110Y-196510733D02*
X246609385Y-196436857D01*
X246609385Y-196436857D02*
X246657554Y-196366600D01*
X246657554Y-196366600D02*
X246672404Y-196314813D01*
X246672404Y-196314813D02*
X246668785Y-196229706D01*
X243926418Y-195368385D02*
X243538570Y-194668689D01*
X243538570Y-194668689D02*
X243805121Y-194520938D01*
X243805121Y-194520938D02*
X243890228Y-194517319D01*
X243890228Y-194517319D02*
X243942015Y-194532169D01*
X243942015Y-194532169D02*
X244012272Y-194580337D01*
X244012272Y-194580337D02*
X244067679Y-194680294D01*
X244067679Y-194680294D02*
X244071298Y-194765401D01*
X244071298Y-194765401D02*
X244056448Y-194817188D01*
X244056448Y-194817188D02*
X244008279Y-194887445D01*
X244008279Y-194887445D02*
X243741729Y-195035197D01*
X244371541Y-194206966D02*
X244438179Y-194170028D01*
X244438179Y-194170028D02*
X244523286Y-194166409D01*
X244523286Y-194166409D02*
X244575073Y-194181259D01*
X244575073Y-194181259D02*
X244645330Y-194229428D01*
X244645330Y-194229428D02*
X244752525Y-194344234D01*
X244752525Y-194344234D02*
X244844870Y-194510828D01*
X244844870Y-194510828D02*
X244885426Y-194662573D01*
X244885426Y-194662573D02*
X244889045Y-194747679D01*
X244889045Y-194747679D02*
X244874196Y-194799467D01*
X244874196Y-194799467D02*
X244826027Y-194869724D01*
X244826027Y-194869724D02*
X244759389Y-194906662D01*
X244759389Y-194906662D02*
X244674282Y-194910281D01*
X244674282Y-194910281D02*
X244622495Y-194895431D01*
X244622495Y-194895431D02*
X244552238Y-194847262D01*
X244552238Y-194847262D02*
X244445043Y-194732456D01*
X244445043Y-194732456D02*
X244352699Y-194565861D01*
X244352699Y-194565861D02*
X244312142Y-194414117D01*
X244312142Y-194414117D02*
X244308523Y-194329010D01*
X244308523Y-194329010D02*
X244323373Y-194277223D01*
X244323373Y-194277223D02*
X244371541Y-194206966D01*
X245170820Y-194155926D02*
X245085713Y-194159545D01*
X245085713Y-194159545D02*
X245033926Y-194144695D01*
X245033926Y-194144695D02*
X244963669Y-194096526D01*
X244963669Y-194096526D02*
X244945200Y-194063207D01*
X244945200Y-194063207D02*
X244941581Y-193978100D01*
X244941581Y-193978100D02*
X244956431Y-193926313D01*
X244956431Y-193926313D02*
X245004600Y-193856056D01*
X245004600Y-193856056D02*
X245137875Y-193782180D01*
X245137875Y-193782180D02*
X245222982Y-193778561D01*
X245222982Y-193778561D02*
X245274769Y-193793411D01*
X245274769Y-193793411D02*
X245345026Y-193841580D01*
X245345026Y-193841580D02*
X245363495Y-193874899D01*
X245363495Y-193874899D02*
X245367114Y-193960005D01*
X245367114Y-193960005D02*
X245352264Y-194011793D01*
X245352264Y-194011793D02*
X245304095Y-194082050D01*
X245304095Y-194082050D02*
X245170820Y-194155926D01*
X245170820Y-194155926D02*
X245122651Y-194226182D01*
X245122651Y-194226182D02*
X245107801Y-194277970D01*
X245107801Y-194277970D02*
X245111420Y-194363077D01*
X245111420Y-194363077D02*
X245185296Y-194496352D01*
X245185296Y-194496352D02*
X245255553Y-194544521D01*
X245255553Y-194544521D02*
X245307341Y-194559371D01*
X245307341Y-194559371D02*
X245392447Y-194555752D01*
X245392447Y-194555752D02*
X245525723Y-194481876D01*
X245525723Y-194481876D02*
X245573892Y-194411619D01*
X245573892Y-194411619D02*
X245588741Y-194359831D01*
X245588741Y-194359831D02*
X245585122Y-194274725D01*
X245585122Y-194274725D02*
X245511247Y-194141449D01*
X245511247Y-194141449D02*
X245440990Y-194093281D01*
X245440990Y-194093281D02*
X245389202Y-194078431D01*
X245389202Y-194078431D02*
X245304095Y-194082050D01*
X224394471Y-179186917D02*
X224309364Y-179190536D01*
X224309364Y-179190536D02*
X224209408Y-179245943D01*
X224209408Y-179245943D02*
X224127920Y-179334668D01*
X224127920Y-179334668D02*
X224098220Y-179438244D01*
X224098220Y-179438244D02*
X224101839Y-179523351D01*
X224101839Y-179523351D02*
X224142396Y-179675095D01*
X224142396Y-179675095D02*
X224197803Y-179775051D01*
X224197803Y-179775051D02*
X224304998Y-179889858D01*
X224304998Y-179889858D02*
X224375254Y-179938027D01*
X224375254Y-179938027D02*
X224478830Y-179967726D01*
X224478830Y-179967726D02*
X224597255Y-179945638D01*
X224597255Y-179945638D02*
X224663893Y-179908701D01*
X224663893Y-179908701D02*
X224745381Y-179819975D01*
X224745381Y-179819975D02*
X224760231Y-179768187D01*
X224760231Y-179768187D02*
X224630948Y-179534955D01*
X224630948Y-179534955D02*
X224497673Y-179608831D01*
X225097038Y-179668604D02*
X224709190Y-178968909D01*
X224709190Y-178968909D02*
X225496864Y-179446977D01*
X225496864Y-179446977D02*
X225109017Y-178747281D01*
X225830053Y-179262288D02*
X225442205Y-178562592D01*
X225442205Y-178562592D02*
X225608799Y-178470247D01*
X225608799Y-178470247D02*
X225727225Y-178448159D01*
X225727225Y-178448159D02*
X225830800Y-178477859D01*
X225830800Y-178477859D02*
X225901057Y-178526028D01*
X225901057Y-178526028D02*
X226008251Y-178640834D01*
X226008251Y-178640834D02*
X226063658Y-178740791D01*
X226063658Y-178740791D02*
X226104215Y-178892535D01*
X226104215Y-178892535D02*
X226107834Y-178977642D01*
X226107834Y-178977642D02*
X226078134Y-179081218D01*
X226078134Y-179081218D02*
X225996647Y-179169943D01*
X225996647Y-179169943D02*
X225830053Y-179262288D01*
X230604403Y-191136420D02*
X230216555Y-190436724D01*
X230216555Y-190436724D02*
X230483106Y-190288973D01*
X230483106Y-190288973D02*
X230568213Y-190285354D01*
X230568213Y-190285354D02*
X230620000Y-190300204D01*
X230620000Y-190300204D02*
X230690257Y-190348372D01*
X230690257Y-190348372D02*
X230745664Y-190448329D01*
X230745664Y-190448329D02*
X230749283Y-190533436D01*
X230749283Y-190533436D02*
X230734433Y-190585223D01*
X230734433Y-190585223D02*
X230686264Y-190655480D01*
X230686264Y-190655480D02*
X230419714Y-190803232D01*
X231670606Y-190545414D02*
X231270780Y-190767041D01*
X231470693Y-190656228D02*
X231082845Y-189956532D01*
X231082845Y-189956532D02*
X231071614Y-190093426D01*
X231071614Y-190093426D02*
X231041915Y-190197002D01*
X231041915Y-190197002D02*
X230993746Y-190267259D01*
X232003795Y-190360725D02*
X232137070Y-190286849D01*
X232137070Y-190286849D02*
X232185239Y-190216592D01*
X232185239Y-190216592D02*
X232200089Y-190164804D01*
X232200089Y-190164804D02*
X232211320Y-190027910D01*
X232211320Y-190027910D02*
X232170763Y-189876166D01*
X232170763Y-189876166D02*
X232023011Y-189609615D01*
X232023011Y-189609615D02*
X231952754Y-189561446D01*
X231952754Y-189561446D02*
X231900967Y-189546596D01*
X231900967Y-189546596D02*
X231815860Y-189550215D01*
X231815860Y-189550215D02*
X231682585Y-189624091D01*
X231682585Y-189624091D02*
X231634416Y-189694348D01*
X231634416Y-189694348D02*
X231619566Y-189746135D01*
X231619566Y-189746135D02*
X231623185Y-189831242D01*
X231623185Y-189831242D02*
X231715530Y-189997836D01*
X231715530Y-189997836D02*
X231785786Y-190046005D01*
X231785786Y-190046005D02*
X231837574Y-190060855D01*
X231837574Y-190060855D02*
X231922681Y-190057236D01*
X231922681Y-190057236D02*
X232055956Y-189983360D01*
X232055956Y-189983360D02*
X232104125Y-189913103D01*
X232104125Y-189913103D02*
X232118975Y-189861316D01*
X232118975Y-189861316D02*
X232115356Y-189776209D01*
X240232166Y-188703783D02*
X239844318Y-188004087D01*
X239844318Y-188004087D02*
X240110869Y-187856336D01*
X240110869Y-187856336D02*
X240195976Y-187852717D01*
X240195976Y-187852717D02*
X240247763Y-187867567D01*
X240247763Y-187867567D02*
X240318020Y-187915735D01*
X240318020Y-187915735D02*
X240373427Y-188015692D01*
X240373427Y-188015692D02*
X240377046Y-188100799D01*
X240377046Y-188100799D02*
X240362196Y-188152586D01*
X240362196Y-188152586D02*
X240314027Y-188222843D01*
X240314027Y-188222843D02*
X240047477Y-188370595D01*
X240677289Y-187542364D02*
X240743927Y-187505426D01*
X240743927Y-187505426D02*
X240829034Y-187501807D01*
X240829034Y-187501807D02*
X240880821Y-187516657D01*
X240880821Y-187516657D02*
X240951078Y-187564826D01*
X240951078Y-187564826D02*
X241058273Y-187679632D01*
X241058273Y-187679632D02*
X241150618Y-187846226D01*
X241150618Y-187846226D02*
X241191174Y-187997971D01*
X241191174Y-187997971D02*
X241194793Y-188083077D01*
X241194793Y-188083077D02*
X241179944Y-188134865D01*
X241179944Y-188134865D02*
X241131775Y-188205122D01*
X241131775Y-188205122D02*
X241065137Y-188242060D01*
X241065137Y-188242060D02*
X240980030Y-188245679D01*
X240980030Y-188245679D02*
X240928243Y-188230829D01*
X240928243Y-188230829D02*
X240857986Y-188182660D01*
X240857986Y-188182660D02*
X240750791Y-188067854D01*
X240750791Y-188067854D02*
X240658447Y-187901259D01*
X240658447Y-187901259D02*
X240617890Y-187749515D01*
X240617890Y-187749515D02*
X240614271Y-187664408D01*
X240614271Y-187664408D02*
X240629121Y-187612621D01*
X240629121Y-187612621D02*
X240677289Y-187542364D01*
X241543580Y-187062171D02*
X241210391Y-187246861D01*
X241210391Y-187246861D02*
X241361762Y-187598518D01*
X241361762Y-187598518D02*
X241376612Y-187546730D01*
X241376612Y-187546730D02*
X241424780Y-187476474D01*
X241424780Y-187476474D02*
X241591375Y-187384129D01*
X241591375Y-187384129D02*
X241676481Y-187380510D01*
X241676481Y-187380510D02*
X241728269Y-187395360D01*
X241728269Y-187395360D02*
X241798526Y-187443529D01*
X241798526Y-187443529D02*
X241890870Y-187610123D01*
X241890870Y-187610123D02*
X241894489Y-187695229D01*
X241894489Y-187695229D02*
X241879640Y-187747017D01*
X241879640Y-187747017D02*
X241831471Y-187817274D01*
X241831471Y-187817274D02*
X241664877Y-187909619D01*
X241664877Y-187909619D02*
X241579770Y-187913238D01*
X241579770Y-187913238D02*
X241527982Y-187898388D01*
X235530068Y-200022556D02*
X235142220Y-199322860D01*
X235142220Y-199322860D02*
X235408771Y-199175109D01*
X235408771Y-199175109D02*
X235493878Y-199171490D01*
X235493878Y-199171490D02*
X235545665Y-199186340D01*
X235545665Y-199186340D02*
X235615922Y-199234508D01*
X235615922Y-199234508D02*
X235671329Y-199334465D01*
X235671329Y-199334465D02*
X235674948Y-199419572D01*
X235674948Y-199419572D02*
X235660098Y-199471359D01*
X235660098Y-199471359D02*
X235611929Y-199541616D01*
X235611929Y-199541616D02*
X235345379Y-199689368D01*
X236596271Y-199431550D02*
X236196445Y-199653177D01*
X236396358Y-199542364D02*
X236008510Y-198842668D01*
X236008510Y-198842668D02*
X235997279Y-198979562D01*
X235997279Y-198979562D02*
X235967580Y-199083138D01*
X235967580Y-199083138D02*
X235919411Y-199153395D01*
X236808163Y-198399413D02*
X236674887Y-198473289D01*
X236674887Y-198473289D02*
X236626719Y-198543546D01*
X236626719Y-198543546D02*
X236611869Y-198595334D01*
X236611869Y-198595334D02*
X236600638Y-198732228D01*
X236600638Y-198732228D02*
X236641195Y-198883972D01*
X236641195Y-198883972D02*
X236788946Y-199150523D01*
X236788946Y-199150523D02*
X236859203Y-199198692D01*
X236859203Y-199198692D02*
X236910991Y-199213542D01*
X236910991Y-199213542D02*
X236996097Y-199209923D01*
X236996097Y-199209923D02*
X237129373Y-199136047D01*
X237129373Y-199136047D02*
X237177542Y-199065790D01*
X237177542Y-199065790D02*
X237192391Y-199014002D01*
X237192391Y-199014002D02*
X237188772Y-198928896D01*
X237188772Y-198928896D02*
X237096428Y-198762302D01*
X237096428Y-198762302D02*
X237026171Y-198714133D01*
X237026171Y-198714133D02*
X236974383Y-198699283D01*
X236974383Y-198699283D02*
X236889277Y-198702902D01*
X236889277Y-198702902D02*
X236756001Y-198776778D01*
X236756001Y-198776778D02*
X236707832Y-198847034D01*
X236707832Y-198847034D02*
X236692983Y-198898822D01*
X236692983Y-198898822D02*
X236696602Y-198983929D01*
D11*
%TO.C,D5*%
X118746386Y-148882022D02*
X119096234Y-149075945D01*
X119096234Y-149075945D02*
X118829588Y-149556984D01*
X119096234Y-149075945D02*
X119362878Y-148594905D01*
X119096234Y-149075945D02*
X119814930Y-149016982D01*
X119427082Y-149716677D02*
X119096234Y-149075945D01*
X119621006Y-149366830D02*
X120058316Y-149609234D01*
X119814930Y-149016982D02*
X119427082Y-149716677D01*
%TO.C,D22*%
X327868495Y-154106771D02*
X328218343Y-153912848D01*
X328218343Y-153912848D02*
X327951697Y-153431807D01*
X328218343Y-153912848D02*
X328484986Y-154393887D01*
X328218343Y-153912848D02*
X328549190Y-153272115D01*
X328549190Y-153272115D02*
X328937038Y-153971810D01*
X328743114Y-153621962D02*
X329180423Y-153379557D01*
X328937038Y-153971810D02*
X328218343Y-153912848D01*
%TO.C,D33*%
X254028300Y-177658083D02*
X254378148Y-177464160D01*
X254378148Y-177464160D02*
X254111502Y-176983119D01*
X254378148Y-177464160D02*
X254644791Y-177945199D01*
X254378148Y-177464160D02*
X254708995Y-176823427D01*
X254708995Y-176823427D02*
X255096843Y-177523122D01*
X254902919Y-177173274D02*
X255340228Y-176930869D01*
X255096843Y-177523122D02*
X254378148Y-177464160D01*
%TO.C,D23*%
X311250725Y-163318152D02*
X311600573Y-163124229D01*
X311600573Y-163124229D02*
X311333927Y-162643188D01*
X311600573Y-163124229D02*
X311867216Y-163605268D01*
X311600573Y-163124229D02*
X311931420Y-162483496D01*
X311931420Y-162483496D02*
X312319268Y-163183191D01*
X312125344Y-162833343D02*
X312562653Y-162590938D01*
X312319268Y-163183191D02*
X311600573Y-163124229D01*
%TO.C,D17*%
X133559172Y-200540337D02*
X133909020Y-200734260D01*
X133909020Y-200734260D02*
X133642374Y-201215299D01*
X133909020Y-200734260D02*
X134175664Y-200253220D01*
X133909020Y-200734260D02*
X134627716Y-200675297D01*
X134239868Y-201374992D02*
X133909020Y-200734260D01*
X134433792Y-201025145D02*
X134871102Y-201267549D01*
X134627716Y-200675297D02*
X134239868Y-201374992D01*
%TO.C,D19*%
X163110166Y-225610212D02*
X163460014Y-225804135D01*
X163460014Y-225804135D02*
X163193368Y-226285174D01*
X163460014Y-225804135D02*
X163726658Y-225323095D01*
X163460014Y-225804135D02*
X164178710Y-225745172D01*
X163790862Y-226444867D02*
X163460014Y-225804135D01*
X163984786Y-226095020D02*
X164422096Y-226337424D01*
X164178710Y-225745172D02*
X163790862Y-226444867D01*
%TO.C,D25*%
X292827958Y-130082600D02*
X293177806Y-129888677D01*
X293177806Y-129888677D02*
X292911160Y-129407636D01*
X293177806Y-129888677D02*
X293444449Y-130369716D01*
X293177806Y-129888677D02*
X293508653Y-129247944D01*
X293508653Y-129247944D02*
X293896501Y-129947639D01*
X293702577Y-129597791D02*
X294139886Y-129355386D01*
X293896501Y-129947639D02*
X293177806Y-129888677D01*
%TO.C,D15*%
X175968818Y-163221952D02*
X176318666Y-163415875D01*
X176318666Y-163415875D02*
X176052020Y-163896914D01*
X176318666Y-163415875D02*
X176585310Y-162934835D01*
X176318666Y-163415875D02*
X177037362Y-163356912D01*
X176649514Y-164056607D02*
X176318666Y-163415875D01*
X176843438Y-163706760D02*
X177280748Y-163949164D01*
X177037362Y-163356912D02*
X176649514Y-164056607D01*
%TO.C,D18*%
X148334670Y-213075271D02*
X148684518Y-213269194D01*
X148684518Y-213269194D02*
X148417872Y-213750233D01*
X148684518Y-213269194D02*
X148951162Y-212788154D01*
X148684518Y-213269194D02*
X149403214Y-213210231D01*
X149015366Y-213909926D02*
X148684518Y-213269194D01*
X149209290Y-213560079D02*
X149646600Y-213802483D01*
X149403214Y-213210231D02*
X149015366Y-213909926D01*
%TO.C,D31*%
X259592416Y-148505370D02*
X259942264Y-148311447D01*
X259942264Y-148311447D02*
X259675618Y-147830406D01*
X259942264Y-148311447D02*
X260208907Y-148792486D01*
X259942264Y-148311447D02*
X260273111Y-147670714D01*
X260273111Y-147670714D02*
X260660959Y-148370409D01*
X260467035Y-148020561D02*
X260904344Y-147778156D01*
X260660959Y-148370409D02*
X259942264Y-148311447D01*
%TO.C,D11*%
X151981937Y-167304783D02*
X152331785Y-167498706D01*
X152331785Y-167498706D02*
X152065139Y-167979745D01*
X152331785Y-167498706D02*
X152598429Y-167017666D01*
X152331785Y-167498706D02*
X153050481Y-167439743D01*
X152662633Y-168139438D02*
X152331785Y-167498706D01*
X152856557Y-167789591D02*
X153293867Y-168031995D01*
X153050481Y-167439743D02*
X152662633Y-168139438D01*
%TO.C,D26*%
X290027259Y-164220646D02*
X290377107Y-164026723D01*
X290377107Y-164026723D02*
X290110461Y-163545682D01*
X290377107Y-164026723D02*
X290643750Y-164507762D01*
X290377107Y-164026723D02*
X290707954Y-163385990D01*
X290707954Y-163385990D02*
X291095802Y-164085685D01*
X290901878Y-163735837D02*
X291339187Y-163493432D01*
X291095802Y-164085685D02*
X290377107Y-164026723D01*
%TO.C,D27*%
X280815876Y-147602873D02*
X281165724Y-147408950D01*
X281165724Y-147408950D02*
X280899078Y-146927909D01*
X281165724Y-147408950D02*
X281432367Y-147889989D01*
X281165724Y-147408950D02*
X281496571Y-146768217D01*
X281496571Y-146768217D02*
X281884419Y-147467912D01*
X281690495Y-147118064D02*
X282127804Y-146875659D01*
X281884419Y-147467912D02*
X281165724Y-147408950D01*
%TO.C,D32*%
X263239679Y-194275853D02*
X263589527Y-194081930D01*
X263589527Y-194081930D02*
X263322881Y-193600889D01*
X263589527Y-194081930D02*
X263856170Y-194562969D01*
X263589527Y-194081930D02*
X263920374Y-193441197D01*
X263920374Y-193441197D02*
X264308222Y-194140892D01*
X264114298Y-193791044D02*
X264551607Y-193548639D01*
X264308222Y-194140892D02*
X263589527Y-194081930D01*
%TO.C,D7*%
X130758472Y-166402293D02*
X131108320Y-166596216D01*
X131108320Y-166596216D02*
X130841674Y-167077255D01*
X131108320Y-166596216D02*
X131374964Y-166115176D01*
X131108320Y-166596216D02*
X131827016Y-166537253D01*
X131439168Y-167236948D02*
X131108320Y-166596216D01*
X131633092Y-166887101D02*
X132070402Y-167129505D01*
X131827016Y-166537253D02*
X131439168Y-167236948D01*
%TO.C,D2*%
X73694498Y-149065888D02*
X74091076Y-149118099D01*
X74091076Y-149118099D02*
X74019288Y-149663394D01*
X74091076Y-149118099D02*
X74162865Y-148572804D01*
X74091076Y-149118099D02*
X74738155Y-148799837D01*
X74633733Y-149592992D02*
X74091076Y-149118099D01*
X74685943Y-149196415D02*
X75181666Y-149261678D01*
X74738155Y-148799837D02*
X74633733Y-149592992D01*
%TO.C,D34*%
X244816917Y-161040305D02*
X245166765Y-160846382D01*
X245166765Y-160846382D02*
X244900119Y-160365341D01*
X245166765Y-160846382D02*
X245433408Y-161327421D01*
X245166765Y-160846382D02*
X245497612Y-160205649D01*
X245497612Y-160205649D02*
X245885460Y-160905344D01*
X245691536Y-160555496D02*
X246128845Y-160313091D01*
X245885460Y-160905344D02*
X245166765Y-160846382D01*
%TO.C,D38*%
X257675566Y-223428563D02*
X258025414Y-223234640D01*
X258025414Y-223234640D02*
X257758768Y-222753599D01*
X258025414Y-223234640D02*
X258292057Y-223715679D01*
X258025414Y-223234640D02*
X258356261Y-222593907D01*
X258356261Y-222593907D02*
X258744109Y-223293602D01*
X258550185Y-222943754D02*
X258987494Y-222701349D01*
X258744109Y-223293602D02*
X258025414Y-223234640D01*
%TO.C,D8*%
X139969850Y-149784517D02*
X140319698Y-149978440D01*
X140319698Y-149978440D02*
X140053052Y-150459479D01*
X140319698Y-149978440D02*
X140586342Y-149497400D01*
X140319698Y-149978440D02*
X141038394Y-149919477D01*
X140650546Y-150619172D02*
X140319698Y-149978440D01*
X140844470Y-150269325D02*
X141281780Y-150511729D01*
X141038394Y-149919477D02*
X140650546Y-150619172D01*
%TO.C,D6*%
X127957772Y-132264250D02*
X128307620Y-132458173D01*
X128307620Y-132458173D02*
X128040974Y-132939212D01*
X128307620Y-132458173D02*
X128574264Y-131977133D01*
X128307620Y-132458173D02*
X129026316Y-132399210D01*
X128638468Y-133098905D02*
X128307620Y-132458173D01*
X128832392Y-132749058D02*
X129269702Y-132991462D01*
X129026316Y-132399210D02*
X128638468Y-133098905D01*
%TO.C,D3*%
X92917232Y-156288415D02*
X93267080Y-156482338D01*
X93267080Y-156482338D02*
X93000434Y-156963377D01*
X93267080Y-156482338D02*
X93533724Y-156001298D01*
X93267080Y-156482338D02*
X93985776Y-156423375D01*
X93597928Y-157123070D02*
X93267080Y-156482338D01*
X93791852Y-156773223D02*
X94229162Y-157015627D01*
X93985776Y-156423375D02*
X93597928Y-157123070D01*
%TO.C,D36*%
X287226561Y-198358694D02*
X287576409Y-198164771D01*
X287576409Y-198164771D02*
X287309763Y-197683730D01*
X287576409Y-198164771D02*
X287843052Y-198645810D01*
X287576409Y-198164771D02*
X287907256Y-197524038D01*
X287907256Y-197524038D02*
X288295104Y-198223733D01*
X288101180Y-197873885D02*
X288538489Y-197631480D01*
X288295104Y-198223733D02*
X287576409Y-198164771D01*
%TO.C,D9*%
X149181239Y-133166743D02*
X149531087Y-133360666D01*
X149531087Y-133360666D02*
X149264441Y-133841705D01*
X149531087Y-133360666D02*
X149797731Y-132879626D01*
X149531087Y-133360666D02*
X150249783Y-133301703D01*
X149861935Y-134001398D02*
X149531087Y-133360666D01*
X150055859Y-133651551D02*
X150493169Y-133893955D01*
X150249783Y-133301703D02*
X149861935Y-134001398D01*
%TO.C,D12*%
X161193318Y-150687008D02*
X161543166Y-150880931D01*
X161543166Y-150880931D02*
X161276520Y-151361970D01*
X161543166Y-150880931D02*
X161809810Y-150399891D01*
X161543166Y-150880931D02*
X162261862Y-150821968D01*
X161874014Y-151521663D02*
X161543166Y-150880931D01*
X162067938Y-151171816D02*
X162505248Y-151414220D01*
X162261862Y-150821968D02*
X161874014Y-151521663D01*
%TO.C,D16*%
X106734306Y-131361753D02*
X107084154Y-131555676D01*
X107084154Y-131555676D02*
X106817508Y-132036715D01*
X107084154Y-131555676D02*
X107350798Y-131074636D01*
X107084154Y-131555676D02*
X107802850Y-131496713D01*
X107415002Y-132196408D02*
X107084154Y-131555676D01*
X107608926Y-131846561D02*
X108046236Y-132088965D01*
X107802850Y-131496713D02*
X107415002Y-132196408D01*
%TO.C,D13*%
X157546053Y-196457494D02*
X157895901Y-196651417D01*
X157895901Y-196651417D02*
X157629255Y-197132456D01*
X157895901Y-196651417D02*
X158162545Y-196170377D01*
X157895901Y-196651417D02*
X158614597Y-196592454D01*
X158226749Y-197292149D02*
X157895901Y-196651417D01*
X158420673Y-196942302D02*
X158857983Y-197184706D01*
X158614597Y-196592454D02*
X158226749Y-197292149D01*
%TO.C,D24*%
X302039343Y-146700377D02*
X302389191Y-146506454D01*
X302389191Y-146506454D02*
X302122545Y-146025413D01*
X302389191Y-146506454D02*
X302655834Y-146987493D01*
X302389191Y-146506454D02*
X302720038Y-145865721D01*
X302720038Y-145865721D02*
X303107886Y-146565416D01*
X302913962Y-146215568D02*
X303351271Y-145973163D01*
X303107886Y-146565416D02*
X302389191Y-146506454D01*
%TO.C,D28*%
X271604494Y-130985099D02*
X271954342Y-130791176D01*
X271954342Y-130791176D02*
X271687696Y-130310135D01*
X271954342Y-130791176D02*
X272220985Y-131272215D01*
X271954342Y-130791176D02*
X272285189Y-130150443D01*
X272285189Y-130150443D02*
X272673037Y-130850138D01*
X272479113Y-130500290D02*
X272916422Y-130257885D01*
X272673037Y-130850138D02*
X271954342Y-130791176D01*
%TO.C,D1*%
X53162267Y-149391088D02*
X53550386Y-149294318D01*
X53550386Y-149294318D02*
X53417330Y-148760655D01*
X53550386Y-149294318D02*
X53683446Y-149827980D01*
X53550386Y-149294318D02*
X54035795Y-148761046D01*
X54035795Y-148761046D02*
X54229332Y-149537282D01*
X54132566Y-149149164D02*
X54617715Y-149028202D01*
X54229332Y-149537282D02*
X53550386Y-149294318D01*
%TO.C,D35*%
X314051426Y-129180108D02*
X314401274Y-128986185D01*
X314401274Y-128986185D02*
X314134628Y-128505144D01*
X314401274Y-128986185D02*
X314667917Y-129467224D01*
X314401274Y-128986185D02*
X314732121Y-128345452D01*
X314732121Y-128345452D02*
X315119969Y-129045147D01*
X314926045Y-128695299D02*
X315363354Y-128452894D01*
X315119969Y-129045147D02*
X314401274Y-128986185D01*
D10*
%TO.C,MCU1*%
X218465572Y-175669958D02*
X234473986Y-204549897D01*
X221918523Y-176660077D02*
X219696988Y-177891492D01*
X221918523Y-176660077D02*
X223149940Y-178881610D01*
X223149940Y-178881610D02*
X220928405Y-180113026D01*
X234016309Y-167050043D02*
X218465572Y-175669958D01*
X234473986Y-204549897D02*
X250024724Y-195929986D01*
X250024724Y-195929986D02*
X234016309Y-167050043D01*
D11*
%TO.C,D10*%
X142770556Y-183922566D02*
X143120404Y-184116489D01*
X143120404Y-184116489D02*
X142853758Y-184597528D01*
X143120404Y-184116489D02*
X143387048Y-183635449D01*
X143120404Y-184116489D02*
X143839100Y-184057526D01*
X143451252Y-184757221D02*
X143120404Y-184116489D01*
X143645176Y-184407374D02*
X144082486Y-184649778D01*
X143839100Y-184057526D02*
X143451252Y-184757221D01*
%TO.C,D21*%
X347616944Y-148478522D02*
X348013522Y-148426311D01*
X348013522Y-148426311D02*
X347941735Y-147881013D01*
X348013522Y-148426311D02*
X348085313Y-148971607D01*
X348013522Y-148426311D02*
X348556178Y-147951421D01*
X348556178Y-147951421D02*
X348660600Y-148744574D01*
X348608389Y-148347995D02*
X349104112Y-148282732D01*
X348660600Y-148744574D02*
X348013522Y-148426311D01*
%TO.C,D4*%
X109535006Y-165499794D02*
X109884854Y-165693717D01*
X109884854Y-165693717D02*
X109618208Y-166174756D01*
X109884854Y-165693717D02*
X110151498Y-165212677D01*
X109884854Y-165693717D02*
X110603550Y-165634754D01*
X110215702Y-166334449D02*
X109884854Y-165693717D01*
X110409626Y-165984602D02*
X110846936Y-166227006D01*
X110603550Y-165634754D02*
X110215702Y-166334449D01*
%TO.C,D29*%
X278015180Y-181740920D02*
X278365028Y-181546997D01*
X278365028Y-181546997D02*
X278098382Y-181065956D01*
X278365028Y-181546997D02*
X278631671Y-182028036D01*
X278365028Y-181546997D02*
X278695875Y-180906264D01*
X278695875Y-180906264D02*
X279083723Y-181605959D01*
X278889799Y-181256111D02*
X279327108Y-181013706D01*
X279083723Y-181605959D02*
X278365028Y-181546997D01*
%TO.C,D37*%
X272451065Y-210893627D02*
X272800913Y-210699704D01*
X272800913Y-210699704D02*
X272534267Y-210218663D01*
X272800913Y-210699704D02*
X273067556Y-211180743D01*
X272800913Y-210699704D02*
X273131760Y-210058971D01*
X273131760Y-210058971D02*
X273519608Y-210758666D01*
X273325684Y-210408818D02*
X273762993Y-210166413D01*
X273519608Y-210758666D02*
X272800913Y-210699704D01*
%TO.C,D14*%
X166757433Y-179839721D02*
X167107281Y-180033644D01*
X167107281Y-180033644D02*
X166840635Y-180514683D01*
X167107281Y-180033644D02*
X167373925Y-179552604D01*
X167107281Y-180033644D02*
X167825977Y-179974681D01*
X167438129Y-180674376D02*
X167107281Y-180033644D01*
X167632053Y-180324529D02*
X168069363Y-180566933D01*
X167825977Y-179974681D02*
X167438129Y-180674376D01*
%TO.C,D20*%
X368054005Y-150479733D02*
X368442119Y-150576497D01*
X368442119Y-150576497D02*
X368309065Y-151110164D01*
X368442119Y-150576497D02*
X368575181Y-150042839D01*
X368442119Y-150576497D02*
X369121067Y-150333536D01*
X368927530Y-151109773D02*
X368442119Y-150576497D01*
X369024300Y-150721654D02*
X369509447Y-150842615D01*
X369121067Y-150333536D02*
X368927530Y-151109773D01*
%TO.C,D30*%
X268803794Y-165123145D02*
X269153642Y-164929222D01*
X269153642Y-164929222D02*
X268886996Y-164448181D01*
X269153642Y-164929222D02*
X269420285Y-165410261D01*
X269153642Y-164929222D02*
X269484489Y-164288489D01*
X269484489Y-164288489D02*
X269872337Y-164988184D01*
X269678413Y-164638336D02*
X270115722Y-164395931D01*
X269872337Y-164988184D02*
X269153642Y-164929222D01*
%TD*%
D12*
%TO.C,MCU1*%
X221423463Y-178386551D03*
D13*
X222654880Y-180608086D03*
X223886295Y-182829619D03*
X225117714Y-185051154D03*
X226349129Y-187272685D03*
X227580546Y-189494220D03*
X228811962Y-191715754D03*
X230043378Y-193937289D03*
X231274795Y-196158822D03*
X232506210Y-198380358D03*
X233737628Y-200601892D03*
X234969044Y-202823426D03*
X234752668Y-170998052D03*
X235984084Y-173219586D03*
X237215502Y-175441120D03*
X238446917Y-177662656D03*
X239678334Y-179884189D03*
X240909750Y-182105724D03*
X242141166Y-184327258D03*
X243372583Y-186548793D03*
X244603998Y-188770324D03*
X245835417Y-190991859D03*
X247066832Y-193213392D03*
X248298249Y-195434927D03*
%TD*%
M02*
