%TF.GenerationSoftware,KiCad,Pcbnew,8.0.8-2.fc41*%
%TF.CreationDate,2025-01-20T23:34:32+01:00*%
%TF.ProjectId,laserraven_traced_and_silked_screws,6c617365-7272-4617-9665-6e5f74726163,1.0.0*%
%TF.SameCoordinates,Original*%
%TF.FileFunction,Paste,Top*%
%TF.FilePolarity,Positive*%
%FSLAX46Y46*%
G04 Gerber Fmt 4.6, Leading zero omitted, Abs format (unit mm)*
G04 Created by KiCad (PCBNEW 8.0.8-2.fc41) date 2025-01-20 23:34:32*
%MOMM*%
%LPD*%
G01*
G04 APERTURE LIST*
G04 Aperture macros list*
%AMRotRect*
0 Rectangle, with rotation*
0 The origin of the aperture is its center*
0 $1 length*
0 $2 width*
0 $3 Rotation angle, in degrees counterclockwise*
0 Add horizontal line*
21,1,$1,$2,0,0,$3*%
G04 Aperture macros list end*
%ADD10RotRect,0.900000X1.200000X331.000000*%
%ADD11RotRect,0.900000X1.200000X29.000000*%
%ADD12RotRect,0.900000X1.200000X352.500000*%
%ADD13RotRect,0.900000X1.200000X14.000000*%
%ADD14RotRect,0.900000X1.200000X7.500000*%
%ADD15RotRect,0.900000X1.200000X346.000000*%
G04 APERTURE END LIST*
D10*
%TO.C,D5*%
X117959228Y-148445692D03*
X120845474Y-150045564D03*
%TD*%
D11*
%TO.C,D22*%
X327081336Y-154543103D03*
X329967582Y-152943225D03*
%TD*%
%TO.C,D33*%
X253241141Y-178094415D03*
X256127387Y-176494537D03*
%TD*%
%TO.C,D23*%
X310463566Y-163754484D03*
X313349812Y-162154606D03*
%TD*%
D10*
%TO.C,D17*%
X132772014Y-200104007D03*
X135658260Y-201703879D03*
%TD*%
%TO.C,D19*%
X162323008Y-225173882D03*
X165209254Y-226773754D03*
%TD*%
D11*
%TO.C,D25*%
X292040799Y-130518932D03*
X294927045Y-128919054D03*
%TD*%
D10*
%TO.C,D15*%
X175181660Y-162785622D03*
X178067906Y-164385494D03*
%TD*%
%TO.C,D18*%
X147547512Y-212638941D03*
X150433758Y-214238813D03*
%TD*%
D11*
%TO.C,D31*%
X258805257Y-148941702D03*
X261691503Y-147341824D03*
%TD*%
D10*
%TO.C,D11*%
X151194779Y-166868453D03*
X154081025Y-168468325D03*
%TD*%
D11*
%TO.C,D26*%
X289240100Y-164656978D03*
X292126346Y-163057100D03*
%TD*%
%TO.C,D27*%
X280028717Y-148039205D03*
X282914963Y-146439327D03*
%TD*%
%TO.C,D32*%
X262452520Y-194712185D03*
X265338766Y-193112307D03*
%TD*%
D10*
%TO.C,D7*%
X129971314Y-165965963D03*
X132857560Y-167565835D03*
%TD*%
D12*
%TO.C,D2*%
X72802196Y-148948417D03*
X76073968Y-149379149D03*
%TD*%
D11*
%TO.C,D34*%
X244029758Y-161476637D03*
X246916004Y-159876759D03*
%TD*%
%TO.C,D38*%
X256888407Y-223864895D03*
X259774653Y-222265017D03*
%TD*%
D10*
%TO.C,D8*%
X139182692Y-149348187D03*
X142068938Y-150948059D03*
%TD*%
%TO.C,D6*%
X127170614Y-131827920D03*
X130056860Y-133427792D03*
%TD*%
%TO.C,D3*%
X92130074Y-155852085D03*
X95016320Y-157451957D03*
%TD*%
D11*
%TO.C,D36*%
X286439402Y-198795026D03*
X289325648Y-197195148D03*
%TD*%
D10*
%TO.C,D9*%
X148394081Y-132730413D03*
X151280327Y-134330285D03*
%TD*%
%TO.C,D12*%
X160406160Y-150250678D03*
X163292406Y-151850550D03*
%TD*%
%TO.C,D16*%
X105947148Y-130925423D03*
X108833394Y-132525295D03*
%TD*%
%TO.C,D13*%
X156758895Y-196021164D03*
X159645141Y-197621036D03*
%TD*%
D11*
%TO.C,D24*%
X301252184Y-147136709D03*
X304138430Y-145536831D03*
%TD*%
%TO.C,D28*%
X270817335Y-131421431D03*
X273703581Y-129821553D03*
%TD*%
D13*
%TO.C,D1*%
X52289001Y-149608815D03*
X55490981Y-148810475D03*
%TD*%
D11*
%TO.C,D35*%
X313264267Y-129616440D03*
X316150513Y-128016562D03*
%TD*%
D10*
%TO.C,D10*%
X141983398Y-183486236D03*
X144869644Y-185086108D03*
%TD*%
D14*
%TO.C,D21*%
X346724641Y-148595994D03*
X349996415Y-148165260D03*
%TD*%
D10*
%TO.C,D4*%
X108747848Y-165063464D03*
X111634094Y-166663336D03*
%TD*%
D11*
%TO.C,D29*%
X277228021Y-182177252D03*
X280114267Y-180577374D03*
%TD*%
%TO.C,D37*%
X271663906Y-211329959D03*
X274550152Y-209730081D03*
%TD*%
D10*
%TO.C,D14*%
X165970275Y-179403391D03*
X168856521Y-181003263D03*
%TD*%
D15*
%TO.C,D20*%
X367180737Y-150262004D03*
X370382715Y-151060344D03*
%TD*%
D11*
%TO.C,D30*%
X268016635Y-165559477D03*
X270902881Y-163959599D03*
%TD*%
M02*
