M48
; DRILL file {KiCad 8.0.8-2.fc41} date 2025-01-20T23:34:38+0100
; FORMAT={-:-/ absolute / inch / decimal}
; #@! TF.CreationDate,2025-01-20T23:34:38+01:00
; #@! TF.GenerationSoftware,Kicad,Pcbnew,8.0.8-2.fc41
; #@! TF.FileFunction,Plated,1,2,PTH
FMAT,2
INCH
; #@! TA.AperFunction,Plated,PTH,ViaDrill
T1C0.0157
; #@! TA.AperFunction,Plated,PTH,ComponentDrill
T2C0.0390
; #@! TA.AperFunction,Plated,PTH,ComponentDrill
T3C0.0430
%
G90
G05
T1
X4.1548Y-5.9553
X4.5322Y-5.3611
X5.2154Y-7.335
X6.4673Y-6.4084
X6.4972Y-6.533
X8.9343Y-7.7584
X8.9737Y-7.8372
X9.013Y-7.9159
X9.365Y-6.689
X9.4415Y-6.6646
X9.489Y-6.5392
X9.4951Y-6.5988
X9.5854Y-6.5668
X9.5862Y-6.5033
X10.6733Y-7.7823
X11.1637Y-5.2238
X11.1639Y-6.5561
X11.2461Y-6.7044
X12.0367Y-5.253
T2
X1.9761Y-5.9107
X2.2672Y-5.8381
X2.7819Y-5.853
X3.0793Y-5.8922
X3.5528Y-6.0947
X3.8152Y-6.2401
X4.0968Y-5.1133
X4.207Y-6.4573
X4.3592Y-5.2588
X4.4694Y-6.6028
X4.5697Y-5.8031
X4.8321Y-5.9485
X4.9323Y-5.1488
X5.0426Y-6.4929
X5.1529Y-7.8369
X5.1947Y-5.2943
X5.305Y-6.6383
X5.4053Y-5.8386
X5.4153Y-7.9823
X5.5155Y-7.1826
X5.6676Y-5.9841
X5.7346Y-8.3304
X5.7679Y-5.1844
X5.7779Y-7.3281
X5.8782Y-6.5284
X5.997Y-8.4758
X6.0303Y-5.3298
X6.0972Y-7.6761
X6.1406Y-6.6738
X6.2408Y-5.8742
X6.3163Y-8.8239
X6.3596Y-7.8216
X6.4599Y-7.0219
X6.5032Y-6.0196
X6.5787Y-8.9693
X6.7223Y-7.1673
X6.8225Y-6.3677
X7.0849Y-6.5131
X9.5331Y-6.3986
X9.7955Y-6.2531
X9.8957Y-7.0528
X10.0393Y-8.8548
X10.1148Y-5.9051
X10.1581Y-6.9074
X10.2584Y-7.7071
X10.3017Y-8.7094
X10.3772Y-5.7596
X10.4775Y-6.5593
X10.5208Y-7.5616
X10.5877Y-5.2153
X10.6211Y-8.3613
X10.7398Y-6.4139
X10.8401Y-7.2136
X10.8501Y-5.0699
X10.8834Y-8.2159
X10.9504Y-5.8695
X11.1025Y-7.0681
X11.2028Y-7.8678
X11.2128Y-5.7241
X11.313Y-6.5238
X11.4233Y-5.1798
X11.4652Y-7.7224
X11.5754Y-6.3783
X11.6857Y-5.0343
X11.7859Y-5.834
X12.0483Y-5.6886
X12.1486Y-6.4883
X12.2589Y-5.1442
X12.411Y-6.3428
X12.5212Y-4.9988
X12.8028Y-6.1256
X13.0652Y-5.9802
X13.5663Y-5.8613
X13.8637Y-5.8222
X14.3734Y-5.8953
X14.6645Y-5.9678
T3
X8.7175Y-7.0231
X8.7659Y-7.1106
X8.8144Y-7.198
X8.8629Y-7.2855
X8.9114Y-7.3729
X8.9599Y-7.4604
X9.0083Y-7.5479
X9.0568Y-7.6353
X9.1053Y-7.7228
X9.1538Y-7.8103
X9.2023Y-7.8977
X9.2422Y-6.7322
X9.2507Y-7.9852
X9.2907Y-6.8197
X9.3392Y-6.9071
X9.3877Y-6.9946
X9.4362Y-7.0821
X9.4846Y-7.1695
X9.5331Y-7.257
X9.5816Y-7.3444
X9.6301Y-7.4319
X9.6786Y-7.5194
X9.727Y-7.6068
X9.7755Y-7.6943
M30
