%TF.GenerationSoftware,KiCad,Pcbnew,8.0.8-2.fc41*%
%TF.CreationDate,2025-01-20T23:34:33+01:00*%
%TF.ProjectId,laserraven_traced_and_silked_screws,6c617365-7272-4617-9665-6e5f74726163,1.0.0*%
%TF.SameCoordinates,Original*%
%TF.FileFunction,Profile,NP*%
%FSLAX46Y46*%
G04 Gerber Fmt 4.6, Leading zero omitted, Abs format (unit mm)*
G04 Created by KiCad (PCBNEW 8.0.8-2.fc41) date 2025-01-20 23:34:33*
%MOMM*%
%LPD*%
G01*
G04 APERTURE LIST*
%TA.AperFunction,Profile*%
%ADD10C,0.150000*%
%TD*%
%TA.AperFunction,Profile*%
%ADD11C,0.200000*%
%TD*%
G04 APERTURE END LIST*
D10*
X145934194Y-114788245D02*
X141328504Y-123097126D01*
X298549900Y-164641569D02*
X303155584Y-172950451D01*
X56689045Y-133567862D02*
X38253423Y-138164377D01*
X234168799Y-166066916D02*
X182681137Y-166066917D01*
X189339551Y-154054832D02*
X172721776Y-144843452D01*
X336554833Y-154473709D02*
X303155584Y-172950451D01*
X120105035Y-122194632D02*
X103487262Y-112983253D01*
X352912287Y-133156259D02*
X334074834Y-135636254D01*
X150651739Y-223849481D02*
X167269519Y-233060868D01*
X292139212Y-113885749D02*
X275521440Y-123097126D01*
X118300044Y-164641566D02*
X134917822Y-173852948D01*
X327179756Y-137909914D02*
X315547311Y-144357878D01*
X266198205Y-223849482D02*
X264355924Y-220525931D01*
X336554833Y-154473709D02*
X355392289Y-151993711D01*
X244128168Y-144843453D02*
X227510393Y-154054834D01*
X182681137Y-166066917D02*
X189339551Y-154054832D01*
X162551968Y-123999630D02*
X145934194Y-114788245D01*
X270915749Y-114788248D02*
X254297972Y-123999628D01*
X295749192Y-198779607D02*
X281932121Y-173852950D01*
X141328504Y-123097126D02*
X124710728Y-113885748D01*
X94275877Y-129601030D02*
X103487262Y-112983253D01*
X315547311Y-144357878D02*
X315511510Y-133515866D01*
X280973696Y-211314551D02*
X279131420Y-207990994D01*
X275521440Y-123097126D02*
X270915749Y-114788248D01*
X134917822Y-173852948D02*
X121100743Y-198779613D01*
X360160893Y-133567863D02*
X352912287Y-133156259D01*
X227510393Y-154054834D02*
X234168799Y-166066916D01*
X242285890Y-141519895D02*
X244128168Y-144843453D01*
D11*
X263113171Y-216387308D02*
G75*
G02*
X261113173Y-216387308I-999999J0D01*
G01*
X261113173Y-216387308D02*
G75*
G02*
X263113171Y-216387308I999999J0D01*
G01*
D10*
X101338438Y-133515856D02*
X101302636Y-144357882D01*
D11*
X171018454Y-149844604D02*
G75*
G02*
X169018456Y-149844604I-999999J0D01*
G01*
X169018456Y-149844604D02*
G75*
G02*
X171018454Y-149844604I999999J0D01*
G01*
X61890958Y-142341843D02*
G75*
G02*
X59890960Y-142341843I-999999J0D01*
G01*
X59890960Y-142341843D02*
G75*
G02*
X61890958Y-142341843I999999J0D01*
G01*
D10*
X258903667Y-132308513D02*
X242285890Y-141519895D01*
X135876245Y-211314547D02*
X152494020Y-220525932D01*
X101338438Y-133515856D02*
X94275877Y-129601030D01*
X256986813Y-207231709D02*
X256276120Y-205949578D01*
X281932121Y-173852950D02*
X298549900Y-164641569D01*
X334074834Y-135636254D02*
X327179756Y-137909914D01*
X80295109Y-154473709D02*
X113694356Y-172950453D01*
X240369041Y-216443099D02*
X249580424Y-233060867D01*
X355392289Y-151993711D02*
X374000000Y-156600000D01*
D11*
X155856958Y-216387308D02*
G75*
G02*
X153856960Y-216387308I-999999J0D01*
G01*
X153856960Y-216387308D02*
G75*
G02*
X155856958Y-216387308I999999J0D01*
G01*
D10*
X176480902Y-216443095D02*
X159863125Y-207231707D01*
X42849946Y-156599998D02*
X38253423Y-138164377D01*
X296744907Y-122194639D02*
X292139212Y-113885749D01*
X124710728Y-113885748D02*
X120105035Y-122194632D01*
X256276120Y-205949578D02*
X160573825Y-205949571D01*
X279131420Y-207990994D02*
X295749192Y-198779607D01*
X315511510Y-133515866D02*
X322574060Y-129601029D01*
X42849946Y-156599998D02*
X61285562Y-152003483D01*
X378596517Y-138164381D02*
X374000000Y-156600000D01*
X322574060Y-129601029D02*
X313362679Y-112983250D01*
X357079172Y-142341843D02*
G75*
G02*
X355079174Y-142341843I-999999J0D01*
G01*
X355079174Y-142341843D02*
G75*
G02*
X357079172Y-142341843I999999J0D01*
G01*
X82775103Y-135636256D02*
X63937648Y-133156255D01*
X254297972Y-123999628D02*
X258903667Y-132308513D01*
X167269519Y-233060868D02*
X176480902Y-216443095D01*
D11*
X118862286Y-126364899D02*
G75*
G02*
X116862284Y-126364899I-1000001J0D01*
G01*
X116862284Y-126364899D02*
G75*
G02*
X118862286Y-126364899I1000001J0D01*
G01*
D10*
X249580424Y-233060867D02*
X266198205Y-223849482D01*
D11*
X247951677Y-149844604D02*
G75*
G02*
X245951675Y-149844604I-1000001J0D01*
G01*
X245951675Y-149844604D02*
G75*
G02*
X247951677Y-149844604I1000001J0D01*
G01*
D10*
X61285562Y-152003483D02*
X61457653Y-151993711D01*
X159863125Y-207231707D02*
X160573825Y-205949571D01*
X137718515Y-207990992D02*
X135876245Y-211314547D01*
X152494020Y-220525932D02*
X150651739Y-223849481D01*
X172721776Y-144843452D02*
X174564054Y-141519895D01*
X121100743Y-198779613D02*
X137718515Y-207990992D01*
X256986813Y-207231709D02*
X240369041Y-216443099D01*
X157946276Y-132308514D02*
X162551968Y-123999630D01*
X80295109Y-154473709D02*
X61457653Y-151993711D01*
X113694356Y-172950453D02*
X118300044Y-164641566D01*
X63937648Y-133156255D02*
X56689045Y-133567862D01*
X313362679Y-112983250D02*
X296744907Y-122194639D01*
X89670187Y-137909913D02*
X82775103Y-135636256D01*
D11*
X299976652Y-126437621D02*
G75*
G02*
X297976650Y-126437621I-1000001J0D01*
G01*
X297976650Y-126437621D02*
G75*
G02*
X299976652Y-126437621I1000001J0D01*
G01*
D10*
X174564054Y-141519895D02*
X157946276Y-132308514D01*
X101302636Y-144357882D02*
X89670187Y-137909913D01*
X264355924Y-220525931D02*
X280973696Y-211314551D01*
X360160893Y-133567863D02*
X378596517Y-138164381D01*
M02*
