%TF.GenerationSoftware,KiCad,Pcbnew,8.0.8-2.fc41*%
%TF.CreationDate,2025-01-20T23:27:37+01:00*%
%TF.ProjectId,laserraven_traced_and_silked_screws,6c617365-7272-4617-9665-6e5f74726163,1.0.0*%
%TF.SameCoordinates,Original*%
%TF.FileFunction,Copper,L1,Top*%
%TF.FilePolarity,Positive*%
%FSLAX46Y46*%
G04 Gerber Fmt 4.6, Leading zero omitted, Abs format (unit mm)*
G04 Created by KiCad (PCBNEW 8.0.8-2.fc41) date 2025-01-20 23:27:37*
%MOMM*%
%LPD*%
G01*
G04 APERTURE LIST*
G04 Aperture macros list*
%AMRotRect*
0 Rectangle, with rotation*
0 The origin of the aperture is its center*
0 $1 length*
0 $2 width*
0 $3 Rotation angle, in degrees counterclockwise*
0 Add horizontal line*
21,1,$1,$2,0,0,$3*%
G04 Aperture macros list end*
%TA.AperFunction,ComponentPad*%
%ADD10RotRect,1.778000X1.778000X331.000000*%
%TD*%
%TA.AperFunction,SMDPad,CuDef*%
%ADD11RotRect,0.900000X1.200000X331.000000*%
%TD*%
%TA.AperFunction,ComponentPad*%
%ADD12C,1.905000*%
%TD*%
%TA.AperFunction,ComponentPad*%
%ADD13RotRect,1.778000X1.778000X29.000000*%
%TD*%
%TA.AperFunction,SMDPad,CuDef*%
%ADD14RotRect,0.900000X1.200000X29.000000*%
%TD*%
%TA.AperFunction,ComponentPad*%
%ADD15RotRect,1.778000X1.778000X352.500000*%
%TD*%
%TA.AperFunction,SMDPad,CuDef*%
%ADD16RotRect,0.900000X1.200000X352.500000*%
%TD*%
%TA.AperFunction,ComponentPad*%
%ADD17RotRect,1.778000X1.778000X14.000000*%
%TD*%
%TA.AperFunction,SMDPad,CuDef*%
%ADD18RotRect,0.900000X1.200000X14.000000*%
%TD*%
%TA.AperFunction,ComponentPad*%
%ADD19RotRect,1.752600X1.752600X299.000000*%
%TD*%
%TA.AperFunction,ComponentPad*%
%ADD20C,1.752600*%
%TD*%
%TA.AperFunction,ComponentPad*%
%ADD21RotRect,1.778000X1.778000X7.500000*%
%TD*%
%TA.AperFunction,SMDPad,CuDef*%
%ADD22RotRect,0.900000X1.200000X7.500000*%
%TD*%
%TA.AperFunction,ComponentPad*%
%ADD23RotRect,1.778000X1.778000X346.000000*%
%TD*%
%TA.AperFunction,SMDPad,CuDef*%
%ADD24RotRect,0.900000X1.200000X346.000000*%
%TD*%
%TA.AperFunction,ViaPad*%
%ADD25C,0.800000*%
%TD*%
%TA.AperFunction,Conductor*%
%ADD26C,0.250000*%
%TD*%
G04 APERTURE END LIST*
D10*
%TO.P,D5,1*%
%TO.N,P14*%
X116070049Y-147398503D03*
D11*
X117959228Y-148445692D03*
%TO.P,D5,2*%
%TO.N,ring_home*%
X120845474Y-150045564D03*
D12*
X122734653Y-151092753D03*
%TD*%
D13*
%TO.P,D22,1*%
%TO.N,P7*%
X325192158Y-155590290D03*
D14*
X327081336Y-154543103D03*
%TO.P,D22,2*%
%TO.N,mirror_pinky_home*%
X329967582Y-152943225D03*
D12*
X331856760Y-151896038D03*
%TD*%
D13*
%TO.P,D33,1*%
%TO.N,P7*%
X251351963Y-179141602D03*
D14*
X253241141Y-178094415D03*
%TO.P,D33,2*%
%TO.N,mirror_inner_home*%
X256127387Y-176494537D03*
D12*
X258016565Y-175447350D03*
%TD*%
D13*
%TO.P,D23,1*%
%TO.N,P8*%
X308574388Y-164801671D03*
D14*
X310463566Y-163754484D03*
%TO.P,D23,2*%
%TO.N,mirror_ring_bottom*%
X313349812Y-162154606D03*
D12*
X315238990Y-161107419D03*
%TD*%
D10*
%TO.P,D17,1*%
%TO.N,P10*%
X130882835Y-199056818D03*
D11*
X132772014Y-200104007D03*
%TO.P,D17,2*%
%TO.N,out_thumb*%
X135658260Y-201703879D03*
D12*
X137547439Y-202751068D03*
%TD*%
D10*
%TO.P,D19,1*%
%TO.N,P10*%
X160433829Y-224126693D03*
D11*
X162323008Y-225173882D03*
%TO.P,D19,2*%
%TO.N,in_thumb*%
X165209254Y-226773754D03*
D12*
X167098433Y-227820943D03*
%TD*%
D13*
%TO.P,D25,1*%
%TO.N,P6*%
X290151621Y-131566119D03*
D14*
X292040799Y-130518932D03*
%TO.P,D25,2*%
%TO.N,mirror_ring_top*%
X294927045Y-128919054D03*
D12*
X296816223Y-127871867D03*
%TD*%
D10*
%TO.P,D15,1*%
%TO.N,P15*%
X173292481Y-161738433D03*
D11*
X175181660Y-162785622D03*
%TO.P,D15,2*%
%TO.N,inner_top*%
X178067906Y-164385494D03*
D12*
X179957085Y-165432683D03*
%TD*%
D10*
%TO.P,D18,1*%
%TO.N,P10*%
X145658333Y-211591752D03*
D11*
X147547512Y-212638941D03*
%TO.P,D18,2*%
%TO.N,home_thumb*%
X150433758Y-214238813D03*
D12*
X152322937Y-215286002D03*
%TD*%
D13*
%TO.P,D31,1*%
%TO.N,P6*%
X256916079Y-149988889D03*
D14*
X258805257Y-148941702D03*
%TO.P,D31,2*%
%TO.N,mirror_index_top*%
X261691503Y-147341824D03*
D12*
X263580681Y-146294637D03*
%TD*%
D10*
%TO.P,D11,1*%
%TO.N,P14*%
X149305600Y-165821264D03*
D11*
X151194779Y-166868453D03*
%TO.P,D11,2*%
%TO.N,index_home*%
X154081025Y-168468325D03*
D12*
X155970204Y-169515514D03*
%TD*%
D13*
%TO.P,D26,1*%
%TO.N,P8*%
X287350922Y-165704165D03*
D14*
X289240100Y-164656978D03*
%TO.P,D26,2*%
%TO.N,mirror_middle_bottom*%
X292126346Y-163057100D03*
D12*
X294015524Y-162009913D03*
%TD*%
D13*
%TO.P,D27,1*%
%TO.N,P7*%
X278139539Y-149086392D03*
D14*
X280028717Y-148039205D03*
%TO.P,D27,2*%
%TO.N,mirror_middle_home*%
X282914963Y-146439327D03*
D12*
X284804141Y-145392140D03*
%TD*%
D13*
%TO.P,D32,1*%
%TO.N,P8*%
X260563342Y-195759372D03*
D14*
X262452520Y-194712185D03*
%TO.P,D32,2*%
%TO.N,mirror_inner_bottom*%
X265338766Y-193112307D03*
D12*
X267227944Y-192065120D03*
%TD*%
D10*
%TO.P,D7,1*%
%TO.N,P16*%
X128082135Y-164918774D03*
D11*
X129971314Y-165965963D03*
%TO.P,D7,2*%
%TO.N,middle_bottom*%
X132857560Y-167565835D03*
D12*
X134746739Y-168613024D03*
%TD*%
D15*
%TO.P,D2,1*%
%TO.N,P16*%
X70660677Y-148666478D03*
D16*
X72802196Y-148948417D03*
%TO.P,D2,2*%
%TO.N,mid_home*%
X76073968Y-149379149D03*
D12*
X78215487Y-149661088D03*
%TD*%
D13*
%TO.P,D34,1*%
%TO.N,P6*%
X242140580Y-162523824D03*
D14*
X244029758Y-161476637D03*
%TO.P,D34,2*%
%TO.N,mirror_inner_top*%
X246916004Y-159876759D03*
D12*
X248805182Y-158829572D03*
%TD*%
D13*
%TO.P,D38,1*%
%TO.N,P9*%
X254999229Y-224912082D03*
D14*
X256888407Y-223864895D03*
%TO.P,D38,2*%
%TO.N,mirror_in_thumb*%
X259774653Y-222265017D03*
D12*
X261663831Y-221217830D03*
%TD*%
D10*
%TO.P,D8,1*%
%TO.N,P14*%
X137293513Y-148300998D03*
D11*
X139182692Y-149348187D03*
%TO.P,D8,2*%
%TO.N,middle_home*%
X142068938Y-150948059D03*
D12*
X143958117Y-151995248D03*
%TD*%
D10*
%TO.P,D6,1*%
%TO.N,P15*%
X125281435Y-130780731D03*
D11*
X127170614Y-131827920D03*
%TO.P,D6,2*%
%TO.N,ring_top*%
X130056860Y-133427792D03*
D12*
X131946039Y-134474981D03*
%TD*%
D10*
%TO.P,D3,1*%
%TO.N,P14*%
X90240895Y-154804896D03*
D11*
X92130074Y-155852085D03*
%TO.P,D3,2*%
%TO.N,pinky_home*%
X95016320Y-157451957D03*
D12*
X96905499Y-158499146D03*
%TD*%
D13*
%TO.P,D36,1*%
%TO.N,P9*%
X284550224Y-199842213D03*
D14*
X286439402Y-198795026D03*
%TO.P,D36,2*%
%TO.N,mirror_out_thumb*%
X289325648Y-197195148D03*
D12*
X291214826Y-196147961D03*
%TD*%
D10*
%TO.P,D9,1*%
%TO.N,P15*%
X146504902Y-131683224D03*
D11*
X148394081Y-132730413D03*
%TO.P,D9,2*%
%TO.N,middle_top*%
X151280327Y-134330285D03*
D12*
X153169506Y-135377474D03*
%TD*%
D10*
%TO.P,D12,1*%
%TO.N,P15*%
X158516981Y-149203489D03*
D11*
X160406160Y-150250678D03*
%TO.P,D12,2*%
%TO.N,index_top*%
X163292406Y-151850550D03*
D12*
X165181585Y-152897739D03*
%TD*%
D10*
%TO.P,D16,1*%
%TO.N,P15*%
X104057969Y-129878234D03*
D11*
X105947148Y-130925423D03*
%TO.P,D16,2*%
%TO.N,ring_midtop*%
X108833394Y-132525295D03*
D12*
X110722573Y-133572484D03*
%TD*%
D10*
%TO.P,D13,1*%
%TO.N,P16*%
X154869716Y-194973975D03*
D11*
X156758895Y-196021164D03*
%TO.P,D13,2*%
%TO.N,inner_bottom*%
X159645141Y-197621036D03*
D12*
X161534320Y-198668225D03*
%TD*%
D13*
%TO.P,D24,1*%
%TO.N,P7*%
X299363006Y-148183896D03*
D14*
X301252184Y-147136709D03*
%TO.P,D24,2*%
%TO.N,mirror_ring_home*%
X304138430Y-145536831D03*
D12*
X306027608Y-144489644D03*
%TD*%
D13*
%TO.P,D28,1*%
%TO.N,P6*%
X268928157Y-132468618D03*
D14*
X270817335Y-131421431D03*
%TO.P,D28,2*%
%TO.N,mirror_middle_top*%
X273703581Y-129821553D03*
D12*
X275592759Y-128774366D03*
%TD*%
D17*
%TO.P,D1,1*%
%TO.N,P10*%
X50193164Y-150131367D03*
D18*
X52289001Y-149608815D03*
%TO.P,D1,2*%
%TO.N,far_home*%
X55490981Y-148810475D03*
D12*
X57586818Y-148287923D03*
%TD*%
D13*
%TO.P,D35,1*%
%TO.N,P6*%
X311375089Y-130663627D03*
D14*
X313264267Y-129616440D03*
%TO.P,D35,2*%
%TO.N,mirror_ring_midtop*%
X316150513Y-128016562D03*
D12*
X318039691Y-126969375D03*
%TD*%
D19*
%TO.P,MCU1,1*%
%TO.N,RAW*%
X221423463Y-178386551D03*
D20*
%TO.P,MCU1,2*%
%TO.N,GND*%
X222654880Y-180608086D03*
%TO.P,MCU1,3*%
%TO.N,RST*%
X223886295Y-182829619D03*
%TO.P,MCU1,4*%
%TO.N,VCC*%
X225117714Y-185051154D03*
%TO.P,MCU1,5*%
%TO.N,P21*%
X226349129Y-187272685D03*
%TO.P,MCU1,6*%
%TO.N,P20*%
X227580546Y-189494220D03*
%TO.P,MCU1,7*%
%TO.N,P19*%
X228811962Y-191715754D03*
%TO.P,MCU1,8*%
%TO.N,P18*%
X230043378Y-193937289D03*
%TO.P,MCU1,9*%
%TO.N,P15*%
X231274795Y-196158822D03*
%TO.P,MCU1,10*%
%TO.N,P14*%
X232506210Y-198380358D03*
%TO.P,MCU1,11*%
%TO.N,P16*%
X233737628Y-200601892D03*
%TO.P,MCU1,12*%
%TO.N,P10*%
X234969044Y-202823426D03*
%TO.P,MCU1,13*%
%TO.N,P1*%
X234752668Y-170998052D03*
%TO.P,MCU1,14*%
%TO.N,P0*%
X235984084Y-173219586D03*
%TO.P,MCU1,15*%
%TO.N,GND*%
X237215502Y-175441120D03*
%TO.P,MCU1,16*%
X238446917Y-177662656D03*
%TO.P,MCU1,17*%
%TO.N,P2*%
X239678334Y-179884189D03*
%TO.P,MCU1,18*%
%TO.N,P3*%
X240909750Y-182105724D03*
%TO.P,MCU1,19*%
%TO.N,P4*%
X242141166Y-184327258D03*
%TO.P,MCU1,20*%
%TO.N,P5*%
X243372583Y-186548793D03*
%TO.P,MCU1,21*%
%TO.N,P6*%
X244603998Y-188770324D03*
%TO.P,MCU1,22*%
%TO.N,P7*%
X245835417Y-190991859D03*
%TO.P,MCU1,23*%
%TO.N,P8*%
X247066832Y-193213392D03*
%TO.P,MCU1,24*%
%TO.N,P9*%
X248298249Y-195434927D03*
%TD*%
D10*
%TO.P,D10,1*%
%TO.N,P16*%
X140094219Y-182439047D03*
D11*
X141983398Y-183486236D03*
%TO.P,D10,2*%
%TO.N,index_bottom*%
X144869644Y-185086108D03*
D12*
X146758823Y-186133297D03*
%TD*%
D21*
%TO.P,D21,1*%
%TO.N,P8*%
X344583123Y-148877932D03*
D22*
X346724641Y-148595994D03*
%TO.P,D21,2*%
%TO.N,mirror_mid_home*%
X349996415Y-148165260D03*
D12*
X352137933Y-147883322D03*
%TD*%
D10*
%TO.P,D4,1*%
%TO.N,P16*%
X106858669Y-164016275D03*
D11*
X108747848Y-165063464D03*
%TO.P,D4,2*%
%TO.N,ring_bottom*%
X111634094Y-166663336D03*
D12*
X113523273Y-167710525D03*
%TD*%
D13*
%TO.P,D29,1*%
%TO.N,P8*%
X275338843Y-183224439D03*
D14*
X277228021Y-182177252D03*
%TO.P,D29,2*%
%TO.N,mirror_index_bottom*%
X280114267Y-180577374D03*
D12*
X282003445Y-179530187D03*
%TD*%
D13*
%TO.P,D37,1*%
%TO.N,P9*%
X269774728Y-212377146D03*
D14*
X271663906Y-211329959D03*
%TO.P,D37,2*%
%TO.N,mirror_home_thumb*%
X274550152Y-209730081D03*
D12*
X276439330Y-208682894D03*
%TD*%
D10*
%TO.P,D14,1*%
%TO.N,P14*%
X164081096Y-178356202D03*
D11*
X165970275Y-179403391D03*
%TO.P,D14,2*%
%TO.N,inner_home*%
X168856521Y-181003263D03*
D12*
X170745700Y-182050452D03*
%TD*%
D23*
%TO.P,D20,1*%
%TO.N,P9*%
X365084899Y-149739452D03*
D24*
X367180737Y-150262004D03*
%TO.P,D20,2*%
%TO.N,mirror_far_home*%
X370382715Y-151060344D03*
D12*
X372478553Y-151582896D03*
%TD*%
D13*
%TO.P,D30,1*%
%TO.N,P7*%
X266127457Y-166606664D03*
D14*
X268016635Y-165559477D03*
%TO.P,D30,2*%
%TO.N,mirror_index_home*%
X270902881Y-163959599D03*
D12*
X272792059Y-162912412D03*
%TD*%
D25*
%TO.N,P20*%
X243468733Y-166796782D03*
X227930943Y-199064595D03*
X305732255Y-133426903D03*
X241175722Y-167610475D03*
X105530944Y-151264594D03*
%TO.N,P21*%
X243489698Y-165184465D03*
X226930944Y-197064593D03*
X283557090Y-132684558D03*
X115118455Y-136171992D03*
X241021763Y-166095122D03*
%TO.N,P19*%
X228930944Y-201064594D03*
X271101543Y-197671169D03*
X132471918Y-186309160D03*
%TO.N,P1*%
X164268830Y-162773728D03*
X165029450Y-165939398D03*
X237871167Y-169899561D03*
X239814331Y-169279791D03*
%TO.N,P9*%
X283563693Y-166524182D03*
X285651630Y-170290920D03*
%TD*%
D26*
%TO.N,P20*%
X271491264Y-135256680D02*
X305732255Y-133426903D01*
X227930943Y-199064595D02*
X164130943Y-186064595D01*
X227580545Y-189494220D02*
X231986641Y-168359322D01*
X164130943Y-186064595D02*
X164161397Y-185864594D01*
X231986641Y-168359322D02*
X241175722Y-167610475D01*
X164161397Y-185864594D02*
X164811263Y-181596739D01*
X147569792Y-170210272D02*
X164811263Y-181596739D01*
X265746961Y-149645672D02*
X243118885Y-166990705D01*
X265746961Y-149645672D02*
X271491264Y-135256680D01*
X122513745Y-153120086D02*
X136828696Y-151222148D01*
X136828696Y-151222148D02*
X147569792Y-170210272D01*
X105530944Y-151264594D02*
X122513745Y-153120086D01*
%TO.N,far_home*%
X57586819Y-148287923D02*
X55490982Y-148810476D01*
%TO.N,mid_home*%
X76073967Y-149379149D02*
X78215486Y-149661089D01*
%TO.N,pinky_home*%
X95016319Y-157451955D02*
X96905499Y-158499145D01*
%TO.N,P21*%
X173944683Y-164707079D02*
X174530944Y-170664594D01*
X115118455Y-136171992D02*
X149535112Y-136772215D01*
X270399278Y-133421110D02*
X270249758Y-133429480D01*
X174530944Y-170664594D02*
X226930944Y-197064593D01*
X264874305Y-148071356D02*
X248874339Y-161285024D01*
X270249758Y-133429480D02*
X264874305Y-148071356D01*
X283557090Y-132684558D02*
X270399278Y-133421110D01*
X226349128Y-187272685D02*
X230958059Y-167328779D01*
X157965683Y-153105725D02*
X173944683Y-164707079D01*
X248874339Y-161285024D02*
X243489698Y-165184465D01*
X230958059Y-167328779D02*
X241021763Y-166095122D01*
X149535112Y-136772215D02*
X157965683Y-153105725D01*
%TO.N,ring_bottom*%
X111634093Y-166663336D02*
X113523272Y-167710525D01*
%TO.N,ring_home*%
X122734654Y-151092752D02*
X120845475Y-150045565D01*
%TO.N,ring_top*%
X130056859Y-133427791D02*
X131946037Y-134474981D01*
%TO.N,P19*%
X231130942Y-190464594D02*
X228811962Y-191715756D01*
X271101543Y-197671169D02*
X266324368Y-197671169D01*
X266324368Y-197671169D02*
X258930943Y-205064594D01*
X160930944Y-201064593D02*
X132471918Y-186309160D01*
X258930943Y-205064594D02*
X239330944Y-205064595D01*
X228930944Y-201064594D02*
X160930944Y-201064593D01*
X239330944Y-205064595D02*
X231130942Y-190464594D01*
%TO.N,middle_bottom*%
X132857559Y-167565836D02*
X134746739Y-168613025D01*
%TO.N,middle_home*%
X143958118Y-151995249D02*
X142068939Y-150948060D01*
%TO.N,middle_top*%
X151280328Y-134330284D02*
X153169507Y-135377472D01*
%TO.N,P1*%
X164268830Y-162773728D02*
X165029450Y-165939398D01*
X239814331Y-169279791D02*
X237871167Y-169899561D01*
%TO.N,index_bottom*%
X144869643Y-185086108D02*
X146758823Y-186133297D01*
%TO.N,index_home*%
X155970204Y-169515514D02*
X154081025Y-168468325D01*
%TO.N,index_top*%
X163292407Y-151850551D02*
X165181585Y-152897739D01*
%TO.N,inner_bottom*%
X161534320Y-198668225D02*
X159645141Y-197621036D01*
%TO.N,inner_home*%
X170745699Y-182050452D02*
X168856521Y-181003263D01*
%TO.N,inner_top*%
X179957085Y-165432682D02*
X178067905Y-164385494D01*
%TO.N,ring_midtop*%
X110722572Y-133572483D02*
X108833394Y-132525295D01*
%TO.N,out_thumb*%
X137547439Y-202751069D02*
X135658259Y-201703879D01*
%TO.N,home_thumb*%
X150433758Y-214238813D02*
X152322937Y-215286002D01*
%TO.N,in_thumb*%
X165209254Y-226773754D02*
X167098433Y-227820943D01*
%TO.N,mirror_far_home*%
X372478553Y-151582897D02*
X370382715Y-151060344D01*
%TO.N,mirror_mid_home*%
X352137933Y-147883321D02*
X349996414Y-148165261D01*
%TO.N,mirror_pinky_home*%
X331856760Y-151896038D02*
X329967583Y-152943225D01*
%TO.N,mirror_ring_bottom*%
X315238990Y-161107418D02*
X313349812Y-162154605D01*
%TO.N,mirror_ring_home*%
X306027607Y-144489643D02*
X304138430Y-145536831D01*
%TO.N,mirror_ring_top*%
X294927045Y-128919056D02*
X296816223Y-127871869D01*
%TO.N,mirror_middle_bottom*%
X292126346Y-163057100D02*
X294015524Y-162009913D01*
%TO.N,mirror_middle_home*%
X282914965Y-146439325D02*
X284804142Y-145392140D01*
%TO.N,mirror_middle_top*%
X275592759Y-128774365D02*
X273703581Y-129821554D01*
%TO.N,mirror_index_bottom*%
X280114267Y-180577374D02*
X282003445Y-179530187D01*
%TO.N,mirror_index_home*%
X270902882Y-163959599D02*
X272792059Y-162912413D01*
%TO.N,mirror_index_top*%
X261691502Y-147341823D02*
X263580682Y-146294636D01*
%TO.N,mirror_inner_bottom*%
X265338766Y-193112308D02*
X267227944Y-192065121D01*
%TO.N,mirror_inner_home*%
X256127387Y-176494537D02*
X258016564Y-175447349D01*
%TO.N,mirror_inner_top*%
X246916004Y-159876757D02*
X248805182Y-158829571D01*
%TO.N,mirror_ring_midtop*%
X316150513Y-128016563D02*
X318039690Y-126969376D01*
%TO.N,mirror_out_thumb*%
X289325648Y-197195149D02*
X291214826Y-196147961D01*
%TO.N,mirror_home_thumb*%
X274550154Y-209730081D02*
X276439331Y-208682895D01*
%TO.N,mirror_in_thumb*%
X259774654Y-222265017D02*
X261663831Y-221217830D01*
%TO.N,P10*%
X145658333Y-211591752D02*
X147547513Y-212638942D01*
X80330943Y-153664593D02*
X52289002Y-149608815D01*
X236530943Y-205064594D02*
X160530944Y-205064595D01*
X135703778Y-173465676D02*
X131209453Y-186524049D01*
X118424304Y-162972825D02*
X113503486Y-170307706D01*
X159600000Y-205200000D02*
X154400000Y-213200000D01*
X131209453Y-186524049D02*
X137647565Y-195123507D01*
X147631966Y-215064213D02*
X152558810Y-218551942D01*
X118424304Y-162972825D02*
X135703778Y-173465676D01*
X160433828Y-224126693D02*
X162323008Y-225173882D01*
X132772013Y-200104006D02*
X136018211Y-197650404D01*
X137647565Y-195123507D02*
X136018211Y-197650404D01*
X147547513Y-212638944D02*
X147631966Y-215064213D01*
X52289002Y-149608815D02*
X50193164Y-150131368D01*
X152558810Y-218551942D02*
X160433831Y-224126691D01*
X234969043Y-202823425D02*
X236530943Y-205064594D01*
X132772013Y-200104006D02*
X130882835Y-199056818D01*
X113503486Y-170307706D02*
X80330943Y-153664593D01*
X160530944Y-205064595D02*
X159600000Y-205200000D01*
X132772013Y-200104006D02*
X133653124Y-202742199D01*
X154400000Y-213200000D02*
X147547512Y-212638941D01*
X133653124Y-202742199D02*
X145658333Y-211591751D01*
%TO.N,P16*%
X233737627Y-200601890D02*
X156758896Y-196021166D01*
X128082135Y-164918774D02*
X129971314Y-165965962D01*
X156758895Y-196021164D02*
X154869717Y-194973975D01*
X73730944Y-151864594D02*
X80530942Y-153064595D01*
X142183813Y-185289768D02*
X141983397Y-183486234D01*
X129130944Y-168664593D02*
X136198458Y-173197078D01*
X140094219Y-182439047D02*
X141983397Y-183486236D01*
X108747848Y-165063466D02*
X114193370Y-160399930D01*
X72802196Y-148948418D02*
X73730944Y-151864594D01*
X106858668Y-164016275D02*
X108747848Y-165063464D01*
X136198458Y-173197078D02*
X140094219Y-182439047D01*
X103330943Y-164464594D02*
X106858668Y-164016275D01*
X129971314Y-165965962D02*
X129130944Y-168664593D01*
X70660676Y-148666479D02*
X72802196Y-148948418D01*
X154869717Y-194973975D02*
X142183813Y-185289768D01*
X80530942Y-153064595D02*
X103330943Y-164464594D01*
X114193370Y-160399930D02*
X128082135Y-164918774D01*
%TO.N,P14*%
X151194778Y-166868453D02*
X149305599Y-165821265D01*
X151194778Y-166868456D02*
X151376195Y-169118804D01*
X230330943Y-198664593D02*
X227930943Y-198264594D01*
X232506210Y-198380358D02*
X230330943Y-198664593D01*
X106330943Y-147464593D02*
X97130943Y-156464593D01*
X151376195Y-169118804D02*
X164081097Y-178356199D01*
X97130943Y-156464593D02*
X92130074Y-155852083D01*
X227930943Y-198264594D02*
X166930943Y-182464595D01*
X139182693Y-149348189D02*
X137293514Y-148300999D01*
X92130074Y-155852083D02*
X90240895Y-154804895D01*
X165970276Y-179403391D02*
X164081097Y-178356202D01*
X117959230Y-148445691D02*
X137293514Y-148300998D01*
X165970276Y-179403391D02*
X166930943Y-182464595D01*
X116070050Y-147398503D02*
X106330943Y-147464593D01*
X139182697Y-149348187D02*
X149305599Y-165821265D01*
X117959229Y-148445692D02*
X116070050Y-147398503D01*
%TO.N,P15*%
X146504902Y-131683223D02*
X148394081Y-132730412D01*
X105947147Y-130925422D02*
X104057969Y-129878233D01*
X158516982Y-149203490D02*
X160406161Y-150250680D01*
X148394082Y-132730413D02*
X158516983Y-149203490D01*
X177130944Y-165664594D02*
X230330944Y-198064594D01*
X127170613Y-131827920D02*
X146504905Y-131683225D01*
X230330944Y-198064594D02*
X231274794Y-196158822D01*
X175181659Y-162785623D02*
X177130944Y-165664594D01*
X160406164Y-150250680D02*
X160334692Y-152132181D01*
X105947148Y-130925424D02*
X125281435Y-130780729D01*
X175181659Y-162785623D02*
X173292480Y-161738433D01*
X127170614Y-131827920D02*
X125281433Y-130780731D01*
X160334692Y-152132181D02*
X173292480Y-161738433D01*
%TO.N,P9*%
X298768132Y-163845938D02*
X285651630Y-170290920D01*
X248298247Y-195434927D02*
X264249983Y-171284502D01*
X280080289Y-173028479D02*
X285505151Y-182369654D01*
X254999230Y-224912083D02*
X256888408Y-223864895D01*
X269774730Y-212377146D02*
X271663907Y-211329959D01*
X367180738Y-150262005D02*
X365084900Y-149739453D01*
X264249983Y-171284502D02*
X273851799Y-165504786D01*
X284550224Y-199842212D02*
X272470162Y-208803415D01*
X290126328Y-190326948D02*
X286439401Y-198795025D01*
X273851799Y-165504786D02*
X283563693Y-166524182D01*
X304113019Y-169768435D02*
X298768132Y-163845938D01*
X285505151Y-182369654D02*
X290126328Y-190326948D01*
X257169893Y-221629237D02*
X256888409Y-223864895D01*
X269774727Y-212377147D02*
X257169893Y-221629237D01*
X365084900Y-149739453D02*
X336200099Y-153811643D01*
X284550224Y-199842213D02*
X286439401Y-198795026D01*
X285651630Y-170290920D02*
X280080289Y-173028479D01*
X272470162Y-208803415D02*
X271663906Y-211329960D01*
X336200099Y-153811643D02*
X304113019Y-169768435D01*
%TO.N,P8*%
X287350923Y-165704164D02*
X289240100Y-164656978D01*
X247066829Y-193213394D02*
X263590252Y-170506845D01*
X294074203Y-165271524D02*
X298738188Y-163372248D01*
X262452521Y-194712188D02*
X262753006Y-192923335D01*
X289240099Y-164656978D02*
X294074203Y-165271524D01*
X273716839Y-164436245D02*
X287350920Y-165704165D01*
X298738188Y-163372248D02*
X308574386Y-164801670D01*
X275338842Y-183224438D02*
X277228020Y-182177252D01*
X263590252Y-170506845D02*
X273716839Y-164436245D01*
X310463564Y-163754483D02*
X308574388Y-164801669D01*
X260563341Y-195759373D02*
X262452518Y-194712186D01*
X287350920Y-165704165D02*
X275513267Y-175102680D01*
X262753006Y-192923335D02*
X275338844Y-183224439D01*
X277228021Y-182177255D02*
X277412543Y-179766664D01*
X275513267Y-175102680D02*
X277412543Y-179766664D01*
X310463565Y-163754484D02*
X312140520Y-164861379D01*
X346724642Y-148595991D02*
X344583124Y-148877931D01*
X312140520Y-164861379D02*
X344583122Y-148877933D01*
%TO.N,P7*%
X268016635Y-165559476D02*
X266127457Y-166606664D01*
X251351963Y-179141601D02*
X253241141Y-178094414D01*
X327081336Y-154543102D02*
X325192159Y-155590289D01*
X252123232Y-176634446D02*
X266127455Y-166606665D01*
X268016635Y-165559478D02*
X278139541Y-149086392D01*
X245835415Y-190991860D02*
X251351961Y-179141601D01*
X317025278Y-155522258D02*
X325192158Y-155590287D01*
X278139541Y-149086392D02*
X280028719Y-148039204D01*
X280028719Y-148039204D02*
X299363004Y-148183895D01*
X301252184Y-147136711D02*
X316173582Y-152335627D01*
X301252182Y-147136708D02*
X299363004Y-148183895D01*
X316173582Y-152335627D02*
X317025278Y-155522258D01*
X251351961Y-179141601D02*
X252123232Y-176634446D01*
%TO.N,P6*%
X290151621Y-131566120D02*
X292040800Y-130518934D01*
X311375089Y-130663628D02*
X292040800Y-130518934D01*
X242803112Y-172196498D02*
X241692644Y-175556092D01*
X242140580Y-162523823D02*
X244029758Y-161476635D01*
X268928158Y-132468620D02*
X258805258Y-148941701D01*
X311375088Y-130663629D02*
X313264266Y-129616440D01*
X270817335Y-131421431D02*
X268928156Y-132468617D01*
X242140579Y-162523823D02*
X242803112Y-172196498D01*
X244311240Y-159240975D02*
X244029757Y-161476636D01*
X245898045Y-186030566D02*
X244603997Y-188770325D01*
X256916082Y-149988888D02*
X244311240Y-159240975D01*
X241692644Y-175556092D02*
X245898045Y-186030566D01*
X290151620Y-131566121D02*
X270817336Y-131421430D01*
X256916080Y-149988887D02*
X258805258Y-148941701D01*
%TD*%
M02*
