%TF.GenerationSoftware,KiCad,Pcbnew,8.0.8-2.fc41*%
%TF.CreationDate,2025-01-20T23:27:37+01:00*%
%TF.ProjectId,laserraven_traced_and_silked_screws,6c617365-7272-4617-9665-6e5f74726163,1.0.0*%
%TF.SameCoordinates,Original*%
%TF.FileFunction,Paste,Bot*%
%TF.FilePolarity,Positive*%
%FSLAX46Y46*%
G04 Gerber Fmt 4.6, Leading zero omitted, Abs format (unit mm)*
G04 Created by KiCad (PCBNEW 8.0.8-2.fc41) date 2025-01-20 23:27:37*
%MOMM*%
%LPD*%
G01*
G04 APERTURE LIST*
G04 Aperture macros list*
%AMRotRect*
0 Rectangle, with rotation*
0 The origin of the aperture is its center*
0 $1 length*
0 $2 width*
0 $3 Rotation angle, in degrees counterclockwise*
0 Add horizontal line*
21,1,$1,$2,0,0,$3*%
G04 Aperture macros list end*
%ADD10RotRect,2.550000X2.500000X331.000000*%
%ADD11RotRect,0.900000X1.200000X331.000000*%
%ADD12RotRect,0.900000X1.200000X29.000000*%
%ADD13RotRect,2.550000X2.500000X29.000000*%
%ADD14RotRect,2.550000X2.500000X14.000000*%
%ADD15RotRect,2.550000X2.500000X7.500000*%
%ADD16RotRect,0.900000X1.200000X352.500000*%
%ADD17RotRect,2.550000X2.500000X346.000000*%
%ADD18RotRect,0.900000X1.200000X14.000000*%
%ADD19RotRect,2.550000X2.500000X352.500000*%
%ADD20RotRect,0.900000X1.200000X7.500000*%
%ADD21RotRect,0.900000X1.200000X346.000000*%
G04 APERTURE END LIST*
D10*
%TO.C,S12*%
X156684203Y-139566678D03*
X169221830Y-143612275D03*
%TD*%
D11*
%TO.C,D5*%
X117959228Y-148445692D03*
X120845474Y-150045564D03*
%TD*%
D12*
%TO.C,D22*%
X327081336Y-154543103D03*
X329967582Y-152943225D03*
%TD*%
%TO.C,D33*%
X253241141Y-178094415D03*
X256127387Y-176494537D03*
%TD*%
D10*
%TO.C,S3*%
X88408119Y-145168082D03*
X100945746Y-149213679D03*
%TD*%
D12*
%TO.C,D23*%
X310463566Y-163754484D03*
X313349812Y-162154606D03*
%TD*%
D10*
%TO.C,S11*%
X147472824Y-156184450D03*
X160010451Y-160230047D03*
%TD*%
D13*
%TO.C,S23*%
X299430686Y-161249218D03*
X309505479Y-152760549D03*
%TD*%
D10*
%TO.C,S5*%
X114237278Y-137761693D03*
X126774905Y-141807290D03*
%TD*%
D11*
%TO.C,D17*%
X132772014Y-200104007D03*
X135658260Y-201703879D03*
%TD*%
D10*
%TO.C,S13*%
X153036939Y-185337169D03*
X165574566Y-189382766D03*
%TD*%
D14*
%TO.C,S1*%
X42280464Y-144333391D03*
X54208994Y-138741517D03*
%TD*%
D11*
%TO.C,D19*%
X162323008Y-225173882D03*
X165209254Y-226773754D03*
%TD*%
D10*
%TO.C,S14*%
X162248316Y-168719394D03*
X174785943Y-172764991D03*
%TD*%
D12*
%TO.C,D25*%
X292040799Y-130518932D03*
X294927045Y-128919054D03*
%TD*%
D11*
%TO.C,D15*%
X175181660Y-162785622D03*
X178067906Y-164385494D03*
%TD*%
%TO.C,D18*%
X147547512Y-212638941D03*
X150433758Y-214238813D03*
%TD*%
D12*
%TO.C,D31*%
X258805257Y-148941702D03*
X261691503Y-147341824D03*
%TD*%
D11*
%TO.C,D11*%
X151194779Y-166868453D03*
X154081025Y-168468325D03*
%TD*%
D12*
%TO.C,D26*%
X289240100Y-164656978D03*
X292126346Y-163057100D03*
%TD*%
D13*
%TO.C,S27*%
X268995838Y-145533943D03*
X279070631Y-137045274D03*
%TD*%
D10*
%TO.C,S9*%
X144672121Y-122046417D03*
X157209748Y-126092014D03*
%TD*%
D13*
%TO.C,S37*%
X260631023Y-208824699D03*
X270705816Y-200336030D03*
%TD*%
D10*
%TO.C,S17*%
X129050058Y-189420008D03*
X141587685Y-193465605D03*
%TD*%
D12*
%TO.C,D27*%
X280028717Y-148039205D03*
X282914963Y-146439327D03*
%TD*%
%TO.C,D32*%
X262452520Y-194712185D03*
X265338766Y-193112307D03*
%TD*%
D10*
%TO.C,S7*%
X126249360Y-155281963D03*
X138786987Y-159327560D03*
%TD*%
D13*
%TO.C,S33*%
X242208257Y-175589147D03*
X252283050Y-167100478D03*
%TD*%
D15*
%TO.C,S21*%
X337377641Y-142221494D03*
X349862513Y-138015910D03*
%TD*%
D13*
%TO.C,S22*%
X316048460Y-152037836D03*
X326123253Y-143549167D03*
%TD*%
D11*
%TO.C,D7*%
X129971314Y-165965963D03*
X132857560Y-167565835D03*
%TD*%
D13*
%TO.C,S25*%
X281007921Y-128013671D03*
X291082714Y-119525002D03*
%TD*%
D10*
%TO.C,S6*%
X123448657Y-121143914D03*
X135986284Y-125189511D03*
%TD*%
D13*
%TO.C,S24*%
X290219301Y-144631441D03*
X300294094Y-136142772D03*
%TD*%
D10*
%TO.C,S10*%
X138261444Y-172802235D03*
X150799071Y-176847832D03*
%TD*%
D16*
%TO.C,D2*%
X72802196Y-148948417D03*
X76073968Y-149379149D03*
%TD*%
D13*
%TO.C,S29*%
X266195137Y-179671985D03*
X276269930Y-171183316D03*
%TD*%
D12*
%TO.C,D34*%
X244029758Y-161476637D03*
X246916004Y-159876759D03*
%TD*%
%TO.C,D38*%
X256888407Y-223864895D03*
X259774653Y-222265017D03*
%TD*%
D17*
%TO.C,S20*%
X360820386Y-140905363D03*
X373977880Y-141568137D03*
%TD*%
D11*
%TO.C,D8*%
X139182692Y-149348187D03*
X142068938Y-150948059D03*
%TD*%
D13*
%TO.C,S34*%
X232996873Y-158971374D03*
X243071666Y-150482705D03*
%TD*%
D10*
%TO.C,S4*%
X105025890Y-154379466D03*
X117563517Y-158425063D03*
%TD*%
D11*
%TO.C,D6*%
X127170614Y-131827920D03*
X130056860Y-133427792D03*
%TD*%
%TO.C,D3*%
X92130074Y-155852085D03*
X95016320Y-157451957D03*
%TD*%
D13*
%TO.C,S32*%
X251419641Y-192206920D03*
X261494434Y-183718251D03*
%TD*%
D10*
%TO.C,S16*%
X102225194Y-120241422D03*
X114762821Y-124287019D03*
%TD*%
D12*
%TO.C,D36*%
X286439402Y-198795026D03*
X289325648Y-197195148D03*
%TD*%
D11*
%TO.C,D9*%
X148394081Y-132730413D03*
X151280327Y-134330285D03*
%TD*%
D13*
%TO.C,S28*%
X259784455Y-128916168D03*
X269859248Y-120427499D03*
%TD*%
D11*
%TO.C,D12*%
X160406160Y-150250678D03*
X163292406Y-151850550D03*
%TD*%
%TO.C,D16*%
X105947148Y-130925423D03*
X108833394Y-132525295D03*
%TD*%
%TO.C,D13*%
X156758895Y-196021164D03*
X159645141Y-197621036D03*
%TD*%
D12*
%TO.C,D24*%
X301252184Y-147136709D03*
X304138430Y-145536831D03*
%TD*%
D13*
%TO.C,S26*%
X278207222Y-162151714D03*
X288282015Y-153663045D03*
%TD*%
D10*
%TO.C,S19*%
X158601058Y-214489884D03*
X171138685Y-218535481D03*
%TD*%
D12*
%TO.C,D28*%
X270817335Y-131421431D03*
X273703581Y-129821553D03*
%TD*%
D13*
%TO.C,S30*%
X256983756Y-163054210D03*
X267058549Y-154565541D03*
%TD*%
D18*
%TO.C,D1*%
X52289001Y-149608815D03*
X55490981Y-148810475D03*
%TD*%
D12*
%TO.C,D35*%
X313264267Y-129616440D03*
X316150513Y-128016562D03*
%TD*%
D13*
%TO.C,S35*%
X302231388Y-127111169D03*
X312306181Y-118622500D03*
%TD*%
D10*
%TO.C,S15*%
X171459704Y-152101620D03*
X183997331Y-156147217D03*
%TD*%
D19*
%TO.C,S2*%
X65423528Y-140371936D03*
X78571473Y-139540979D03*
%TD*%
D11*
%TO.C,D10*%
X141983398Y-183486236D03*
X144869644Y-185086108D03*
%TD*%
D20*
%TO.C,D21*%
X346724641Y-148595994D03*
X349996415Y-148165260D03*
%TD*%
D13*
%TO.C,S38*%
X245855529Y-221359634D03*
X255930322Y-212870965D03*
%TD*%
D10*
%TO.C,S8*%
X135460740Y-138664187D03*
X147998367Y-142709784D03*
%TD*%
D13*
%TO.C,S31*%
X247772370Y-146436436D03*
X257847163Y-137947767D03*
%TD*%
D11*
%TO.C,D4*%
X108747848Y-165063464D03*
X111634094Y-166663336D03*
%TD*%
D12*
%TO.C,D29*%
X277228021Y-182177252D03*
X280114267Y-180577374D03*
%TD*%
%TO.C,D37*%
X271663906Y-211329959D03*
X274550152Y-209730081D03*
%TD*%
D10*
%TO.C,S18*%
X143825554Y-201954943D03*
X156363181Y-206000540D03*
%TD*%
D11*
%TO.C,D14*%
X165970275Y-179403391D03*
X168856521Y-181003263D03*
%TD*%
D21*
%TO.C,D20*%
X367180737Y-150262004D03*
X370382715Y-151060344D03*
%TD*%
D12*
%TO.C,D30*%
X268016635Y-165559477D03*
X270902881Y-163959599D03*
%TD*%
D13*
%TO.C,S36*%
X275406520Y-196289758D03*
X285481313Y-187801089D03*
%TD*%
M02*
