0
SECTION
2
HEADER
9
$INSUNITS
70
4
0
ENDSEC
0
SECTION
2
TABLES
0
TABLE
2
LTYPE
0
LTYPE
72
65
70
64
2
CONTINUOUS
3
______
73
0
40
0
0
ENDTAB
0
TABLE
2
LAYER
0
ENDTAB
0
ENDSEC
0
SECTION
2
ENTITIES
0
LINE
8
0
10
141.3418442
20
-191.0713363
11
141.9292656
21
-189.9665574
0
LINE
8
0
10
163.3371689
20
-149.7041471
11
169.8857153
21
-137.3881227
0
LINE
8
0
10
169.8857153
20
-137.3881227
11
153.109711
21
-128.468163
0
LINE
8
0
10
153.109711
20
-128.468163
11
154.8937029
21
-125.1129621
0
LINE
8
0
10
154.8937029
20
-125.1129621
11
138.1176986
21
-116.1930024
0
LINE
8
0
10
138.1176986
20
-116.1930024
11
142.5776785
21
-107.8050003
0
LINE
8
0
10
142.5776785
20
-107.8050003
11
125.8016742
21
-98.8850406
0
LINE
8
0
10
125.8016742
20
-98.8850406
11
121.3416944
21
-107.2730428
0
LINE
8
0
10
121.3416944
20
-107.2730428
11
104.5656901
21
-98.3530831
0
LINE
8
0
10
104.5656901
20
-98.3530831
11
100.1057103
21
-106.7410852
0
LINE
8
0
10
100.1057103
20
-106.7410852
11
83.329706
21
-97.8211255
0
LINE
8
0
10
83.329706
20
-97.8211255
11
74.4097463
21
-114.5971298
0
LINE
8
0
10
74.4097463
20
-114.5971298
11
81.5395481
21
-118.3881127
0
LINE
8
0
10
81.5395481
20
-118.3881127
11
81.6929695
21
-129.2291037
0
LINE
8
0
10
81.6929695
20
-129.2291037
11
69.9497665
21
-122.9851319
0
LINE
8
0
10
69.9497665
20
-122.9851319
11
67.7197766
21
-127.179133
0
LINE
8
0
10
50.9437723
20
-118.2591733
11
67.7197766
21
-127.179133
0
LINE
8
0
10
50.9437723
20
-118.2591733
11
42.0238126
21
-135.0351776
0
LINE
8
0
10
42.0238126
20
-135.0351776
11
58.7998169
21
-143.9551373
0
LINE
8
0
10
58.7998169
20
-143.9551373
11
69.4178089
21
-144.221116
0
LINE
8
0
10
69.4178089
20
-144.221116
11
60.4978492
21
-160.9971203
0
LINE
8
0
10
60.4978492
20
-160.9971203
11
77.2738535
21
-169.91708
0
LINE
8
0
10
77.2738535
20
-169.91708
11
86.1938132
21
-153.1410757
0
LINE
8
0
10
86.1938132
20
-153.1410757
11
94.5818153
21
-157.6010556
0
LINE
8
0
10
94.5818153
20
-157.6010556
11
99.0417951
21
-149.2130534
0
LINE
8
0
10
99.0417951
20
-149.2130534
11
115.8177994
21
-158.1330132
0
LINE
8
0
10
115.8177994
20
-158.1330132
11
102.4378599
21
-183.2970195
0
LINE
8
0
10
102.4378599
20
-183.2970195
11
119.2138642
21
-192.2169792
0
LINE
8
0
10
119.2138642
20
-192.2169792
11
117.4298722
21
-195.5721801
0
LINE
8
0
10
117.4298722
20
-195.5721801
11
134.2058765
21
-204.4921398
0
LINE
8
0
10
134.2058765
20
-204.4921398
11
132.4218845
21
-207.8473406
0
LINE
8
0
10
132.4218845
20
-207.8473406
11
149.1978888
21
-216.7673003
0
LINE
8
0
10
149.1978888
20
-216.7673003
11
158.1178485
21
-199.991296
0
LINE
8
0
10
158.1178485
20
-199.991296
11
141.3418442
21
-191.0713363
0
LINE
8
0
10
208.1897513
20
-137.3881227
11
214.7382977
21
-149.7041471
0
LINE
8
0
10
236.146201
20
-189.9665574
11
236.7336224
21
-191.0713363
0
LINE
8
0
10
236.7336224
20
-191.0713363
11
219.9576181
21
-199.991296
0
LINE
8
0
10
219.9576181
20
-199.991296
11
228.8775778
21
-216.7673003
0
LINE
8
0
10
228.8775778
20
-216.7673003
11
245.6535821
21
-207.8473406
0
LINE
8
0
10
245.6535821
20
-207.8473406
11
243.8695901
21
-204.4921398
0
LINE
8
0
10
243.8695901
20
-204.4921398
11
260.6455944
21
-195.5721801
0
LINE
8
0
10
260.6455944
20
-195.5721801
11
258.8616024
21
-192.2169792
0
LINE
8
0
10
258.8616024
20
-192.2169792
11
275.6376067
21
-183.2970195
0
LINE
8
0
10
275.6376067
20
-183.2970195
11
262.2576672
21
-158.1330132
0
LINE
8
0
10
262.2576672
20
-158.1330132
11
279.0336715
21
-149.2130534
0
LINE
8
0
10
279.0336715
20
-149.2130534
11
283.4936513
21
-157.6010556
0
LINE
8
0
10
283.4936513
20
-157.6010556
11
291.8816534
21
-153.1410757
0
LINE
8
0
10
291.8816534
20
-153.1410757
11
300.8016131
21
-169.91708
0
LINE
8
0
10
300.8016131
20
-169.91708
11
317.5776174
21
-160.9971203
0
LINE
8
0
10
317.5776174
20
-160.9971203
11
308.6576577
21
-144.221116
0
LINE
8
0
10
308.6576577
20
-144.221116
11
319.2756497
21
-143.9551373
0
LINE
8
0
10
319.2756497
20
-143.9551373
11
336.051654
21
-135.0351776
0
LINE
8
0
10
336.051654
20
-135.0351776
11
327.1316943
21
-118.2591733
0
LINE
8
0
10
327.1316943
20
-118.2591733
11
310.35569
21
-127.179133
0
LINE
8
0
10
310.35569
20
-127.179133
11
308.1257001
21
-122.9851319
0
LINE
8
0
10
308.1257001
20
-122.9851319
11
296.3824971
21
-129.2291037
0
LINE
8
0
10
296.3824971
20
-129.2291037
11
296.5359185
21
-118.3881127
0
LINE
8
0
10
296.5359185
20
-118.3881127
11
303.6657203
21
-114.5971298
0
LINE
8
0
10
303.6657203
20
-114.5971298
11
294.7457606
21
-97.8211255
0
LINE
8
0
10
294.7457606
20
-97.8211255
11
277.9697563
21
-106.7410852
0
LINE
8
0
10
277.9697563
20
-106.7410852
11
273.5097765
21
-98.3530831
0
LINE
8
0
10
273.5097765
20
-98.3530831
11
256.7337722
21
-107.2730428
0
LINE
8
0
10
256.7337722
20
-107.2730428
11
252.2737924
21
-98.8850406
0
LINE
8
0
10
252.2737924
20
-98.8850406
11
235.4977881
21
-107.8050003
0
LINE
8
0
10
235.4977881
20
-107.8050003
11
239.957768
21
-116.1930024
0
LINE
8
0
10
239.957768
20
-116.1930024
11
223.1817637
21
-125.1129621
0
LINE
8
0
10
223.1817637
20
-125.1129621
11
224.9657556
21
-128.468163
0
LINE
8
0
10
224.9657556
20
-128.468163
11
208.1897513
21
-137.3881227
0
LINE
8
0
10
214.7382977
20
-149.7041471
11
163.3371689
21
-149.7041471
0
LINE
8
0
10
141.9292656
20
-189.9665574
11
236.146201
21
-189.9665574
0
ENDSEC
0
EOF