0
SECTION
2
HEADER
9
$INSUNITS
70
4
0
ENDSEC
0
SECTION
2
TABLES
0
TABLE
2
LTYPE
0
LTYPE
72
65
70
64
2
CONTINUOUS
3
______
73
0
40
0
0
ENDTAB
0
TABLE
2
LAYER
0
ENDTAB
0
ENDSEC
0
SECTION
2
ENTITIES
0
LINE
8
0
10
48.3164301
20
-142.0171139
11
65.7817532
21
-137.6625198
0
LINE
8
0
10
65.7817532
20
-137.6625198
11
61.4271591
21
-120.1971967
0
LINE
8
0
10
61.4271591
20
-120.1971967
11
43.961836
21
-124.5517908
0
LINE
8
0
10
43.961836
20
-124.5517908
11
48.3164301
21
-142.0171139
0
LINE
8
0
10
67.1209403
20
-137.5864752
11
84.9669478
21
-139.9359467
0
LINE
8
0
10
84.9669478
20
-139.9359467
11
87.3164193
21
-122.0899392
0
LINE
8
0
10
87.3164193
20
-122.0899392
11
69.4704118
21
-119.7404677
0
LINE
8
0
10
69.4704118
20
-119.7404677
11
67.1209403
21
-137.5864752
0
LINE
8
0
10
86.2408216
20
-140.3560072
11
101.9839763
21
-149.0825803
0
LINE
8
0
10
101.9839763
20
-149.0825803
11
110.7105494
21
-133.3394256
0
LINE
8
0
10
110.7105494
20
-133.3394256
11
94.9673947
21
-124.6128525
0
LINE
8
0
10
94.9673947
20
-124.6128525
11
86.2408216
21
-140.3560072
0
LINE
8
0
10
102.858596
20
-149.5673899
11
118.6017507
21
-158.293963
0
LINE
8
0
10
118.6017507
20
-158.293963
11
127.3283238
21
-142.5508083
0
LINE
8
0
10
127.3283238
20
-142.5508083
11
111.5851691
21
-133.8242352
0
LINE
8
0
10
111.5851691
20
-133.8242352
11
102.858596
21
-149.5673899
0
LINE
8
0
10
112.0699788
20
-132.9496155
11
127.8131335
21
-141.6761886
0
LINE
8
0
10
127.8131335
20
-141.6761886
11
136.5397066
21
-125.9330339
0
LINE
8
0
10
136.5397066
20
-125.9330339
11
120.7965519
21
-117.2064608
0
LINE
8
0
10
120.7965519
20
-117.2064608
11
112.0699788
21
-132.9496155
0
LINE
8
0
10
121.2813615
20
-116.331841
11
137.0245162
21
-125.0584141
0
LINE
8
0
10
137.0245162
20
-125.0584141
11
145.7510893
21
-109.3152594
0
LINE
8
0
10
145.7510893
20
-109.3152594
11
130.0079346
21
-100.5886863
0
LINE
8
0
10
130.0079346
20
-100.5886863
11
121.2813615
21
-116.331841
0
LINE
8
0
10
124.0820619
20
-150.4698855
11
139.8252166
21
-159.1964586
0
LINE
8
0
10
139.8252166
20
-159.1964586
11
148.5517897
21
-143.4533039
0
LINE
8
0
10
148.5517897
20
-143.4533039
11
132.808635
21
-134.7267308
0
LINE
8
0
10
132.808635
20
-134.7267308
11
124.0820619
21
-150.4698855
0
LINE
8
0
10
133.2934446
20
-133.8521111
11
149.0365993
21
-142.5786842
0
LINE
8
0
10
149.0365993
20
-142.5786842
11
157.7631724
21
-126.8355295
0
LINE
8
0
10
157.7631724
20
-126.8355295
11
142.0200177
21
-118.1089564
0
LINE
8
0
10
142.0200177
20
-118.1089564
11
133.2934446
21
-133.8521111
0
LINE
8
0
10
142.5048274
20
-117.2343366
11
158.2479821
21
-125.9609097
0
LINE
8
0
10
158.2479821
20
-125.9609097
11
166.9745552
21
-110.217755
0
LINE
8
0
10
166.9745552
20
-110.217755
11
151.2314005
21
-101.4911819
0
LINE
8
0
10
151.2314005
20
-101.4911819
11
142.5048274
21
-117.2343366
0
LINE
8
0
10
136.0941449
20
-167.9901554
11
151.8372996
21
-176.7167285
0
LINE
8
0
10
151.8372996
20
-176.7167285
11
160.5638727
21
-160.9735738
0
LINE
8
0
10
160.5638727
20
-160.9735738
11
144.820718
21
-152.2470007
0
LINE
8
0
10
144.820718
20
-152.2470007
11
136.0941449
21
-167.9901554
0
LINE
8
0
10
145.3055276
20
-151.372381
11
161.0486823
21
-160.0989541
0
LINE
8
0
10
161.0486823
20
-160.0989541
11
169.7752554
21
-144.3557994
0
LINE
8
0
10
169.7752554
20
-144.3557994
11
154.0321007
21
-135.6292263
0
LINE
8
0
10
154.0321007
20
-135.6292263
11
145.3055276
21
-151.372381
0
LINE
8
0
10
154.5169104
20
-134.7546066
11
170.2600651
21
-143.4811797
0
LINE
8
0
10
170.2600651
20
-143.4811797
11
178.9866382
21
-127.738025
0
LINE
8
0
10
178.9866382
20
-127.738025
11
163.2434835
21
-119.0114519
0
LINE
8
0
10
163.2434835
20
-119.0114519
11
154.5169104
21
-134.7546066
0
LINE
8
0
10
150.8696428
20
-180.5250932
11
166.6127975
21
-189.2516663
0
LINE
8
0
10
166.6127975
20
-189.2516663
11
175.3393706
21
-173.5085116
0
LINE
8
0
10
175.3393706
20
-173.5085116
11
159.5962159
21
-164.7819385
0
LINE
8
0
10
159.5962159
20
-164.7819385
11
150.8696428
21
-180.5250932
0
LINE
8
0
10
160.0810255
20
-163.9073187
11
175.8241802
21
-172.6338918
0
LINE
8
0
10
175.8241802
20
-172.6338918
11
184.5507533
21
-156.8907371
0
LINE
8
0
10
184.5507533
20
-156.8907371
11
168.8075986
21
-148.164164
0
LINE
8
0
10
168.8075986
20
-148.164164
11
160.0810255
21
-163.9073187
0
LINE
8
0
10
169.2924083
20
-147.2895443
11
185.035563
21
-156.0161174
0
LINE
8
0
10
185.035563
20
-156.0161174
11
193.7621361
21
-140.2729627
0
LINE
8
0
10
193.7621361
20
-140.2729627
11
178.0189814
21
-131.5463896
0
LINE
8
0
10
178.0189814
20
-131.5463896
11
169.2924083
21
-147.2895443
0
LINE
8
0
10
100.0578957
20
-115.4293455
11
115.8010504
21
-124.1559186
0
LINE
8
0
10
115.8010504
20
-124.1559186
11
124.5276235
21
-108.4127639
0
LINE
8
0
10
124.5276235
20
-108.4127639
11
108.7844688
21
-99.6861908
0
LINE
8
0
10
108.7844688
20
-99.6861908
11
100.0578957
21
-115.4293455
0
LINE
8
0
10
126.8827621
20
-184.6079299
11
142.6259168
21
-193.334503
0
LINE
8
0
10
142.6259168
20
-193.334503
11
151.3524899
21
-177.5913483
0
LINE
8
0
10
151.3524899
20
-177.5913483
11
135.6093352
21
-168.8647752
0
LINE
8
0
10
135.6093352
20
-168.8647752
11
126.8827621
21
-184.6079299
0
LINE
8
0
10
141.65826
20
-197.1428676
11
157.4014147
21
-205.8694407
0
LINE
8
0
10
157.4014147
20
-205.8694407
11
166.1279878
21
-190.126286
0
LINE
8
0
10
166.1279878
20
-190.126286
11
150.3848331
21
-181.3997129
0
LINE
8
0
10
150.3848331
20
-181.3997129
11
141.65826
21
-197.1428676
0
LINE
8
0
10
156.4337579
20
-209.6778052
11
172.1769126
21
-218.4043783
0
LINE
8
0
10
172.1769126
20
-218.4043783
11
180.9034857
21
-202.6612236
0
LINE
8
0
10
180.9034857
20
-202.6612236
11
165.160331
21
-193.9346505
0
LINE
8
0
10
165.160331
20
-193.9346505
11
156.4337579
21
-209.6778052
0
LINE
8
0
10
361.2727912
20
-137.6625198
11
378.7381143
21
-142.0171139
0
LINE
8
0
10
378.7381143
20
-142.0171139
11
383.0927084
21
-124.5517908
0
LINE
8
0
10
383.0927084
20
-124.5517908
11
365.6273853
21
-120.1971967
0
LINE
8
0
10
365.6273853
20
-120.1971967
11
361.2727912
21
-137.6625198
0
LINE
8
0
10
342.0875966
20
-139.9359467
11
359.9336041
21
-137.5864752
0
LINE
8
0
10
359.9336041
20
-137.5864752
11
357.5841326
21
-119.7404677
0
LINE
8
0
10
357.5841326
20
-119.7404677
11
339.7381251
21
-122.0899392
0
LINE
8
0
10
339.7381251
20
-122.0899392
11
342.0875966
21
-139.9359467
0
LINE
8
0
10
325.0705681
20
-149.0825803
11
340.8137228
21
-140.3560072
0
LINE
8
0
10
340.8137228
20
-140.3560072
11
332.0871497
21
-124.6128525
0
LINE
8
0
10
332.0871497
20
-124.6128525
11
316.343995
21
-133.3394256
0
LINE
8
0
10
316.343995
20
-133.3394256
11
325.0705681
21
-149.0825803
0
LINE
8
0
10
308.4527937
20
-158.293963
11
324.1959484
21
-149.5673899
0
LINE
8
0
10
324.1959484
20
-149.5673899
11
315.4693753
21
-133.8242352
0
LINE
8
0
10
315.4693753
20
-133.8242352
11
299.7262206
21
-142.5508083
0
LINE
8
0
10
299.7262206
20
-142.5508083
11
308.4527937
21
-158.293963
0
LINE
8
0
10
299.2414109
20
-141.6761886
11
314.9845656
21
-132.9496155
0
LINE
8
0
10
314.9845656
20
-132.9496155
11
306.2579925
21
-117.2064608
0
LINE
8
0
10
306.2579925
20
-117.2064608
11
290.5148378
21
-125.9330339
0
LINE
8
0
10
290.5148378
20
-125.9330339
11
299.2414109
21
-141.6761886
0
LINE
8
0
10
290.0300282
20
-125.0584141
11
305.7731829
21
-116.331841
0
LINE
8
0
10
305.7731829
20
-116.331841
11
297.0466098
21
-100.5886863
0
LINE
8
0
10
297.0466098
20
-100.5886863
11
281.3034551
21
-109.3152594
0
LINE
8
0
10
281.3034551
20
-109.3152594
11
290.0300282
21
-125.0584141
0
LINE
8
0
10
287.2293278
20
-159.1964586
11
302.9724825
21
-150.4698855
0
LINE
8
0
10
302.9724825
20
-150.4698855
11
294.2459094
21
-134.7267308
0
LINE
8
0
10
294.2459094
20
-134.7267308
11
278.5027547
21
-143.4533039
0
LINE
8
0
10
278.5027547
20
-143.4533039
11
287.2293278
21
-159.1964586
0
LINE
8
0
10
278.0179451
20
-142.5786842
11
293.7610998
21
-133.8521111
0
LINE
8
0
10
293.7610998
20
-133.8521111
11
285.0345267
21
-118.1089564
0
LINE
8
0
10
285.0345267
20
-118.1089564
11
269.291372
21
-126.8355295
0
LINE
8
0
10
269.291372
20
-126.8355295
11
278.0179451
21
-142.5786842
0
LINE
8
0
10
268.8065623
20
-125.9609097
11
284.549717
21
-117.2343366
0
LINE
8
0
10
284.549717
20
-117.2343366
11
275.8231439
21
-101.4911819
0
LINE
8
0
10
275.8231439
20
-101.4911819
11
260.0799892
21
-110.217755
0
LINE
8
0
10
260.0799892
20
-110.217755
11
268.8065623
21
-125.9609097
0
LINE
8
0
10
275.2172448
20
-176.7167285
11
290.9603995
21
-167.9901554
0
LINE
8
0
10
290.9603995
20
-167.9901554
11
282.2338264
21
-152.2470007
0
LINE
8
0
10
282.2338264
20
-152.2470007
11
266.4906717
21
-160.9735738
0
LINE
8
0
10
266.4906717
20
-160.9735738
11
275.2172448
21
-176.7167285
0
LINE
8
0
10
266.0058621
20
-160.0989541
11
281.7490168
21
-151.372381
0
LINE
8
0
10
281.7490168
20
-151.372381
11
273.0224437
21
-135.6292263
0
LINE
8
0
10
273.0224437
20
-135.6292263
11
257.279289
21
-144.3557994
0
LINE
8
0
10
257.279289
20
-144.3557994
11
266.0058621
21
-160.0989541
0
LINE
8
0
10
256.7944793
20
-143.4811797
11
272.537634
21
-134.7546066
0
LINE
8
0
10
272.537634
20
-134.7546066
11
263.8110609
21
-119.0114519
0
LINE
8
0
10
263.8110609
20
-119.0114519
11
248.0679062
21
-127.738025
0
LINE
8
0
10
248.0679062
20
-127.738025
11
256.7944793
21
-143.4811797
0
LINE
8
0
10
260.4417469
20
-189.2516663
11
276.1849016
21
-180.5250932
0
LINE
8
0
10
276.1849016
20
-180.5250932
11
267.4583285
21
-164.7819385
0
LINE
8
0
10
267.4583285
20
-164.7819385
11
251.7151738
21
-173.5085116
0
LINE
8
0
10
251.7151738
20
-173.5085116
11
260.4417469
21
-189.2516663
0
LINE
8
0
10
251.2303642
20
-172.6338918
11
266.9735189
21
-163.9073187
0
LINE
8
0
10
266.9735189
20
-163.9073187
11
258.2469458
21
-148.164164
0
LINE
8
0
10
258.2469458
20
-148.164164
11
242.5037911
21
-156.8907371
0
LINE
8
0
10
242.5037911
20
-156.8907371
11
251.2303642
21
-172.6338918
0
LINE
8
0
10
242.0189814
20
-156.0161174
11
257.7621361
21
-147.2895443
0
LINE
8
0
10
257.7621361
20
-147.2895443
11
249.035563
21
-131.5463896
0
LINE
8
0
10
249.035563
20
-131.5463896
11
233.2924083
21
-140.2729627
0
LINE
8
0
10
233.2924083
20
-140.2729627
11
242.0189814
21
-156.0161174
0
LINE
8
0
10
311.253494
20
-124.1559186
11
326.9966487
21
-115.4293455
0
LINE
8
0
10
326.9966487
20
-115.4293455
11
318.2700756
21
-99.6861908
0
LINE
8
0
10
318.2700756
20
-99.6861908
11
302.5269209
21
-108.4127639
0
LINE
8
0
10
302.5269209
20
-108.4127639
11
311.253494
21
-124.1559186
0
LINE
8
0
10
284.4286276
20
-193.334503
11
300.1717823
21
-184.6079299
0
LINE
8
0
10
300.1717823
20
-184.6079299
11
291.4452092
21
-168.8647752
0
LINE
8
0
10
291.4452092
20
-168.8647752
11
275.7020545
21
-177.5913483
0
LINE
8
0
10
275.7020545
20
-177.5913483
11
284.4286276
21
-193.334503
0
LINE
8
0
10
269.6531297
20
-205.8694407
11
285.3962844
21
-197.1428676
0
LINE
8
0
10
285.3962844
20
-197.1428676
11
276.6697113
21
-181.3997129
0
LINE
8
0
10
276.6697113
20
-181.3997129
11
260.9265566
21
-190.126286
0
LINE
8
0
10
260.9265566
20
-190.126286
11
269.6531297
21
-205.8694407
0
LINE
8
0
10
254.8776318
20
-218.4043783
11
270.6207865
21
-209.6778052
0
LINE
8
0
10
270.6207865
20
-209.6778052
11
261.8942134
21
-193.9346505
0
LINE
8
0
10
261.8942134
20
-193.9346505
11
246.1510587
21
-202.6612236
0
LINE
8
0
10
246.1510587
20
-202.6612236
11
254.8776318
21
-218.4043783
0
ENDSEC
0
EOF