0
SECTION
2
HEADER
9
$INSUNITS
70
4
0
ENDSEC
0
SECTION
2
TABLES
0
TABLE
2
LTYPE
0
LTYPE
72
65
70
64
2
CONTINUOUS
3
______
73
0
40
0
0
ENDTAB
0
TABLE
2
LAYER
0
ENDTAB
0
ENDSEC
0
SECTION
2
ENTITIES
0
LINE
8
0
10
49.9552712
20
-139.2896242
11
63.0542635
21
-136.0236787
0
LINE
8
0
10
63.0542635
20
-136.0236787
11
59.788318
21
-122.9246864
0
LINE
8
0
10
59.788318
20
-122.9246864
11
46.6893257
21
-126.1906319
0
LINE
8
0
10
46.6893257
20
-126.1906319
11
49.9552712
21
-139.2896242
0
LINE
8
0
10
69.6453752
20
-135.6494082
11
83.0298808
21
-137.4115118
0
LINE
8
0
10
83.0298808
20
-137.4115118
11
84.7919844
21
-124.0270062
0
LINE
8
0
10
84.7919844
20
-124.0270062
11
71.4074788
21
-122.2649026
0
LINE
8
0
10
71.4074788
20
-122.2649026
11
69.6453752
21
-135.6494082
0
LINE
8
0
10
89.2995375
20
-139.4789345
11
101.1069036
21
-146.0238644
0
LINE
8
0
10
101.1069036
20
-146.0238644
11
107.6518335
21
-134.2164983
0
LINE
8
0
10
107.6518335
20
-134.2164983
11
95.8444674
21
-127.6715684
0
LINE
8
0
10
95.8444674
20
-127.6715684
11
89.2995375
21
-139.4789345
0
LINE
8
0
10
105.9173119
20
-148.6903172
11
117.724678
21
-155.2352471
0
LINE
8
0
10
117.724678
20
-155.2352471
11
124.2696079
21
-143.427881
0
LINE
8
0
10
124.2696079
20
-143.427881
11
112.4622418
21
-136.8829511
0
LINE
8
0
10
112.4622418
20
-136.8829511
11
105.9173119
21
-148.6903172
0
LINE
8
0
10
115.1286947
20
-132.0725428
11
126.9360608
21
-138.6174727
0
LINE
8
0
10
126.9360608
20
-138.6174727
11
133.4809907
21
-126.8101066
0
LINE
8
0
10
133.4809907
20
-126.8101066
11
121.6736246
21
-120.2651767
0
LINE
8
0
10
121.6736246
20
-120.2651767
11
115.1286947
21
-132.0725428
0
LINE
8
0
10
124.3400774
20
-115.4547683
11
136.1474435
21
-121.9996982
0
LINE
8
0
10
136.1474435
20
-121.9996982
11
142.6923734
21
-110.1923321
0
LINE
8
0
10
142.6923734
20
-110.1923321
11
130.8850073
21
-103.6474022
0
LINE
8
0
10
130.8850073
20
-103.6474022
11
124.3400774
21
-115.4547683
0
LINE
8
0
10
127.1407778
20
-149.5928128
11
138.9481439
21
-156.1377427
0
LINE
8
0
10
138.9481439
20
-156.1377427
11
145.4930738
21
-144.3303766
0
LINE
8
0
10
145.4930738
20
-144.3303766
11
133.6857077
21
-137.7854467
0
LINE
8
0
10
133.6857077
20
-137.7854467
11
127.1407778
21
-149.5928128
0
LINE
8
0
10
136.3521605
20
-132.9750384
11
148.1595266
21
-139.5199683
0
LINE
8
0
10
148.1595266
20
-139.5199683
11
154.7044565
21
-127.7126022
0
LINE
8
0
10
154.7044565
20
-127.7126022
11
142.8970904
21
-121.1676723
0
LINE
8
0
10
142.8970904
20
-121.1676723
11
136.3521605
21
-132.9750384
0
LINE
8
0
10
145.5635433
20
-116.3572639
11
157.3709094
21
-122.9021938
0
LINE
8
0
10
157.3709094
20
-122.9021938
11
163.9158393
21
-111.0948277
0
LINE
8
0
10
163.9158393
20
-111.0948277
11
152.1084732
21
-104.5498978
0
LINE
8
0
10
152.1084732
20
-104.5498978
11
145.5635433
21
-116.3572639
0
LINE
8
0
10
139.1528608
20
-167.1130827
11
150.9602269
21
-173.6580126
0
LINE
8
0
10
150.9602269
20
-173.6580126
11
157.5051568
21
-161.8506465
0
LINE
8
0
10
157.5051568
20
-161.8506465
11
145.6977907
21
-155.3057166
0
LINE
8
0
10
145.6977907
20
-155.3057166
11
139.1528608
21
-167.1130827
0
LINE
8
0
10
148.3642435
20
-150.4953083
11
160.1716096
21
-157.0402382
0
LINE
8
0
10
160.1716096
20
-157.0402382
11
166.7165395
21
-145.2328721
0
LINE
8
0
10
166.7165395
20
-145.2328721
11
154.9091734
21
-138.6879422
0
LINE
8
0
10
154.9091734
20
-138.6879422
11
148.3642435
21
-150.4953083
0
LINE
8
0
10
157.5756263
20
-133.8775339
11
169.3829924
21
-140.4224638
0
LINE
8
0
10
169.3829924
20
-140.4224638
11
175.9279223
21
-128.6150977
0
LINE
8
0
10
175.9279223
20
-128.6150977
11
164.1205562
21
-122.0701678
0
LINE
8
0
10
164.1205562
20
-122.0701678
11
157.5756263
21
-133.8775339
0
LINE
8
0
10
153.9283587
20
-179.6480205
11
165.7357248
21
-186.1929504
0
LINE
8
0
10
165.7357248
20
-186.1929504
11
172.2806547
21
-174.3855843
0
LINE
8
0
10
172.2806547
20
-174.3855843
11
160.4732886
21
-167.8406544
0
LINE
8
0
10
160.4732886
20
-167.8406544
11
153.9283587
21
-179.6480205
0
LINE
8
0
10
163.1397414
20
-163.030246
11
174.9471075
21
-169.5751759
0
LINE
8
0
10
174.9471075
20
-169.5751759
11
181.4920374
21
-157.7678098
0
LINE
8
0
10
181.4920374
20
-157.7678098
11
169.6846713
21
-151.2228799
0
LINE
8
0
10
169.6846713
20
-151.2228799
11
163.1397414
21
-163.030246
0
LINE
8
0
10
172.3511242
20
-146.4124716
11
184.1584903
21
-152.9574015
0
LINE
8
0
10
184.1584903
20
-152.9574015
11
190.7034202
21
-141.1500354
0
LINE
8
0
10
190.7034202
20
-141.1500354
11
178.8960541
21
-134.6051055
0
LINE
8
0
10
178.8960541
20
-134.6051055
11
172.3511242
21
-146.4124716
0
LINE
8
0
10
103.1166116
20
-114.5522728
11
114.9239777
21
-121.0972027
0
LINE
8
0
10
114.9239777
20
-121.0972027
11
121.4689076
21
-109.2898366
0
LINE
8
0
10
121.4689076
20
-109.2898366
11
109.6615415
21
-102.7449067
0
LINE
8
0
10
109.6615415
20
-102.7449067
11
103.1166116
21
-114.5522728
0
LINE
8
0
10
129.941478
20
-183.7308572
11
141.7488441
21
-190.2757871
0
LINE
8
0
10
141.7488441
20
-190.2757871
11
148.293774
21
-178.468421
0
LINE
8
0
10
148.293774
20
-178.468421
11
136.4864079
21
-171.9234911
0
LINE
8
0
10
136.4864079
20
-171.9234911
11
129.941478
21
-183.7308572
0
LINE
8
0
10
144.7169759
20
-196.2657949
11
156.524342
21
-202.8107248
0
LINE
8
0
10
156.524342
20
-202.8107248
11
163.0692719
21
-191.0033587
0
LINE
8
0
10
163.0692719
20
-191.0033587
11
151.2619058
21
-184.4584288
0
LINE
8
0
10
151.2619058
20
-184.4584288
11
144.7169759
21
-196.2657949
0
LINE
8
0
10
159.4924738
20
-208.8007325
11
171.2998399
21
-215.3456624
0
LINE
8
0
10
171.2998399
20
-215.3456624
11
177.8447698
21
-203.5382963
0
LINE
8
0
10
177.8447698
20
-203.5382963
11
166.0374037
21
-196.9933664
0
LINE
8
0
10
166.0374037
20
-196.9933664
11
159.4924738
21
-208.8007325
0
LINE
8
0
10
364.0002809
20
-136.0236787
11
377.0992732
21
-139.2896242
0
LINE
8
0
10
377.0992732
20
-139.2896242
11
380.3652187
21
-126.1906319
0
LINE
8
0
10
380.3652187
20
-126.1906319
11
367.2662264
21
-122.9246864
0
LINE
8
0
10
367.2662264
20
-122.9246864
11
364.0002809
21
-136.0236787
0
LINE
8
0
10
344.0246636
20
-137.4115118
11
357.4091692
21
-135.6494082
0
LINE
8
0
10
357.4091692
20
-135.6494082
11
355.6470656
21
-122.2649026
0
LINE
8
0
10
355.6470656
20
-122.2649026
11
342.26256
21
-124.0270062
0
LINE
8
0
10
342.26256
20
-124.0270062
11
344.0246636
21
-137.4115118
0
LINE
8
0
10
325.9476408
20
-146.0238644
11
337.7550069
21
-139.4789345
0
LINE
8
0
10
337.7550069
20
-139.4789345
11
331.210077
21
-127.6715684
0
LINE
8
0
10
331.210077
20
-127.6715684
11
319.4027109
21
-134.2164983
0
LINE
8
0
10
319.4027109
20
-134.2164983
11
325.9476408
21
-146.0238644
0
LINE
8
0
10
309.3298664
20
-155.2352471
11
321.1372325
21
-148.6903172
0
LINE
8
0
10
321.1372325
20
-148.6903172
11
314.5923026
21
-136.8829511
0
LINE
8
0
10
314.5923026
20
-136.8829511
11
302.7849365
21
-143.427881
0
LINE
8
0
10
302.7849365
20
-143.427881
11
309.3298664
21
-155.2352471
0
LINE
8
0
10
300.1184836
20
-138.6174727
11
311.9258497
21
-132.0725428
0
LINE
8
0
10
311.9258497
20
-132.0725428
11
305.3809198
21
-120.2651767
0
LINE
8
0
10
305.3809198
20
-120.2651767
11
293.5735537
21
-126.8101066
0
LINE
8
0
10
293.5735537
20
-126.8101066
11
300.1184836
21
-138.6174727
0
LINE
8
0
10
290.9071009
20
-121.9996982
11
302.714467
21
-115.4547683
0
LINE
8
0
10
302.714467
20
-115.4547683
11
296.1695371
21
-103.6474022
0
LINE
8
0
10
296.1695371
20
-103.6474022
11
284.362171
21
-110.1923321
0
LINE
8
0
10
284.362171
20
-110.1923321
11
290.9071009
21
-121.9996982
0
LINE
8
0
10
288.1064005
20
-156.1377427
11
299.9137666
21
-149.5928128
0
LINE
8
0
10
299.9137666
20
-149.5928128
11
293.3688367
21
-137.7854467
0
LINE
8
0
10
293.3688367
20
-137.7854467
11
281.5614706
21
-144.3303766
0
LINE
8
0
10
281.5614706
20
-144.3303766
11
288.1064005
21
-156.1377427
0
LINE
8
0
10
278.8950178
20
-139.5199683
11
290.7023839
21
-132.9750384
0
LINE
8
0
10
290.7023839
20
-132.9750384
11
284.157454
21
-121.1676723
0
LINE
8
0
10
284.157454
20
-121.1676723
11
272.3500879
21
-127.7126022
0
LINE
8
0
10
272.3500879
20
-127.7126022
11
278.8950178
21
-139.5199683
0
LINE
8
0
10
269.683635
20
-122.9021938
11
281.4910011
21
-116.3572639
0
LINE
8
0
10
281.4910011
20
-116.3572639
11
274.9460712
21
-104.5498978
0
LINE
8
0
10
274.9460712
20
-104.5498978
11
263.1387051
21
-111.0948277
0
LINE
8
0
10
263.1387051
20
-111.0948277
11
269.683635
21
-122.9021938
0
LINE
8
0
10
276.0943175
20
-173.6580126
11
287.9016836
21
-167.1130827
0
LINE
8
0
10
287.9016836
20
-167.1130827
11
281.3567537
21
-155.3057166
0
LINE
8
0
10
281.3567537
20
-155.3057166
11
269.5493876
21
-161.8506465
0
LINE
8
0
10
269.5493876
20
-161.8506465
11
276.0943175
21
-173.6580126
0
LINE
8
0
10
266.8829348
20
-157.0402382
11
278.6903009
21
-150.4953083
0
LINE
8
0
10
278.6903009
20
-150.4953083
11
272.145371
21
-138.6879422
0
LINE
8
0
10
272.145371
20
-138.6879422
11
260.3380049
21
-145.2328721
0
LINE
8
0
10
260.3380049
20
-145.2328721
11
266.8829348
21
-157.0402382
0
LINE
8
0
10
257.671552
20
-140.4224638
11
269.4789181
21
-133.8775339
0
LINE
8
0
10
269.4789181
20
-133.8775339
11
262.9339882
21
-122.0701678
0
LINE
8
0
10
262.9339882
20
-122.0701678
11
251.1266221
21
-128.6150977
0
LINE
8
0
10
251.1266221
20
-128.6150977
11
257.671552
21
-140.4224638
0
LINE
8
0
10
261.3188196
20
-186.1929504
11
273.1261857
21
-179.6480205
0
LINE
8
0
10
273.1261857
20
-179.6480205
11
266.5812558
21
-167.8406544
0
LINE
8
0
10
266.5812558
20
-167.8406544
11
254.7738897
21
-174.3855843
0
LINE
8
0
10
254.7738897
20
-174.3855843
11
261.3188196
21
-186.1929504
0
LINE
8
0
10
252.1074369
20
-169.5751759
11
263.914803
21
-163.030246
0
LINE
8
0
10
263.914803
20
-163.030246
11
257.3698731
21
-151.2228799
0
LINE
8
0
10
257.3698731
20
-151.2228799
11
245.562507
21
-157.7678098
0
LINE
8
0
10
245.562507
20
-157.7678098
11
252.1074369
21
-169.5751759
0
LINE
8
0
10
242.8960541
20
-152.9574015
11
254.7034202
21
-146.4124716
0
LINE
8
0
10
254.7034202
20
-146.4124716
11
248.1584903
21
-134.6051055
0
LINE
8
0
10
248.1584903
20
-134.6051055
11
236.3511242
21
-141.1500354
0
LINE
8
0
10
236.3511242
20
-141.1500354
11
242.8960541
21
-152.9574015
0
LINE
8
0
10
312.1305667
20
-121.0972027
11
323.9379328
21
-114.5522728
0
LINE
8
0
10
323.9379328
20
-114.5522728
11
317.3930029
21
-102.7449067
0
LINE
8
0
10
317.3930029
20
-102.7449067
11
305.5856368
21
-109.2898366
0
LINE
8
0
10
305.5856368
20
-109.2898366
11
312.1305667
21
-121.0972027
0
LINE
8
0
10
285.3057003
20
-190.2757871
11
297.1130664
21
-183.7308572
0
LINE
8
0
10
297.1130664
20
-183.7308572
11
290.5681365
21
-171.9234911
0
LINE
8
0
10
290.5681365
20
-171.9234911
11
278.7607704
21
-178.468421
0
LINE
8
0
10
278.7607704
20
-178.468421
11
285.3057003
21
-190.2757871
0
LINE
8
0
10
270.5302024
20
-202.8107248
11
282.3375685
21
-196.2657949
0
LINE
8
0
10
282.3375685
20
-196.2657949
11
275.7926386
21
-184.4584288
0
LINE
8
0
10
275.7926386
20
-184.4584288
11
263.9852725
21
-191.0033587
0
LINE
8
0
10
263.9852725
20
-191.0033587
11
270.5302024
21
-202.8107248
0
LINE
8
0
10
255.7547045
20
-215.3456624
11
267.5620706
21
-208.8007325
0
LINE
8
0
10
267.5620706
20
-208.8007325
11
261.0171407
21
-196.9933664
0
LINE
8
0
10
261.0171407
20
-196.9933664
11
249.2097746
21
-203.5382963
0
LINE
8
0
10
249.2097746
20
-203.5382963
11
255.7547045
21
-215.3456624
0
CIRCLE
8
0
10
65.9331659
20
-128.3492457
40
1
0
CIRCLE
8
0
10
361.1213785
20
-128.3492457
40
1
0
CIRCLE
8
0
10
122.9044925
20
-112.3723025
40
1
0
CIRCLE
8
0
10
304.1500519
20
-112.3723025
40
1
0
CIRCLE
8
0
10
175.0606615
20
-135.8520072
40
1
0
CIRCLE
8
0
10
251.9938829
20
-135.8520072
40
1
0
CIRCLE
8
0
10
159.8991654
20
-202.3947118
40
1
0
CIRCLE
8
0
10
267.155379
20
-202.3947118
40
1
0
LINE
8
0
10
48.3164301
20
-142.0171139
11
65.7817532
21
-137.6625198
0
LINE
8
0
10
65.7817532
20
-137.6625198
11
61.4271591
21
-120.1971967
0
LINE
8
0
10
61.4271591
20
-120.1971967
11
43.961836
21
-124.5517908
0
LINE
8
0
10
43.961836
20
-124.5517908
11
48.3164301
21
-142.0171139
0
LINE
8
0
10
67.1209403
20
-137.5864752
11
84.9669478
21
-139.9359467
0
LINE
8
0
10
84.9669478
20
-139.9359467
11
87.3164193
21
-122.0899392
0
LINE
8
0
10
87.3164193
20
-122.0899392
11
69.4704118
21
-119.7404677
0
LINE
8
0
10
69.4704118
20
-119.7404677
11
67.1209403
21
-137.5864752
0
LINE
8
0
10
86.2408216
20
-140.3560072
11
101.9839763
21
-149.0825803
0
LINE
8
0
10
101.9839763
20
-149.0825803
11
110.7105494
21
-133.3394256
0
LINE
8
0
10
110.7105494
20
-133.3394256
11
94.9673947
21
-124.6128525
0
LINE
8
0
10
94.9673947
20
-124.6128525
11
86.2408216
21
-140.3560072
0
LINE
8
0
10
102.858596
20
-149.5673899
11
118.6017507
21
-158.293963
0
LINE
8
0
10
118.6017507
20
-158.293963
11
127.3283238
21
-142.5508083
0
LINE
8
0
10
127.3283238
20
-142.5508083
11
111.5851691
21
-133.8242352
0
LINE
8
0
10
111.5851691
20
-133.8242352
11
102.858596
21
-149.5673899
0
LINE
8
0
10
112.0699788
20
-132.9496155
11
127.8131335
21
-141.6761886
0
LINE
8
0
10
127.8131335
20
-141.6761886
11
136.5397066
21
-125.9330339
0
LINE
8
0
10
136.5397066
20
-125.9330339
11
120.7965519
21
-117.2064608
0
LINE
8
0
10
120.7965519
20
-117.2064608
11
112.0699788
21
-132.9496155
0
LINE
8
0
10
121.2813615
20
-116.331841
11
137.0245162
21
-125.0584141
0
LINE
8
0
10
137.0245162
20
-125.0584141
11
145.7510893
21
-109.3152594
0
LINE
8
0
10
145.7510893
20
-109.3152594
11
130.0079346
21
-100.5886863
0
LINE
8
0
10
130.0079346
20
-100.5886863
11
121.2813615
21
-116.331841
0
LINE
8
0
10
124.0820619
20
-150.4698855
11
139.8252166
21
-159.1964586
0
LINE
8
0
10
139.8252166
20
-159.1964586
11
148.5517897
21
-143.4533039
0
LINE
8
0
10
148.5517897
20
-143.4533039
11
132.808635
21
-134.7267308
0
LINE
8
0
10
132.808635
20
-134.7267308
11
124.0820619
21
-150.4698855
0
LINE
8
0
10
133.2934446
20
-133.8521111
11
149.0365993
21
-142.5786842
0
LINE
8
0
10
149.0365993
20
-142.5786842
11
157.7631724
21
-126.8355295
0
LINE
8
0
10
157.7631724
20
-126.8355295
11
142.0200177
21
-118.1089564
0
LINE
8
0
10
142.0200177
20
-118.1089564
11
133.2934446
21
-133.8521111
0
LINE
8
0
10
142.5048274
20
-117.2343366
11
158.2479821
21
-125.9609097
0
LINE
8
0
10
158.2479821
20
-125.9609097
11
166.9745552
21
-110.217755
0
LINE
8
0
10
166.9745552
20
-110.217755
11
151.2314005
21
-101.4911819
0
LINE
8
0
10
151.2314005
20
-101.4911819
11
142.5048274
21
-117.2343366
0
LINE
8
0
10
136.0941449
20
-167.9901554
11
151.8372996
21
-176.7167285
0
LINE
8
0
10
151.8372996
20
-176.7167285
11
160.5638727
21
-160.9735738
0
LINE
8
0
10
160.5638727
20
-160.9735738
11
144.820718
21
-152.2470007
0
LINE
8
0
10
144.820718
20
-152.2470007
11
136.0941449
21
-167.9901554
0
LINE
8
0
10
145.3055276
20
-151.372381
11
161.0486823
21
-160.0989541
0
LINE
8
0
10
161.0486823
20
-160.0989541
11
169.7752554
21
-144.3557994
0
LINE
8
0
10
169.7752554
20
-144.3557994
11
154.0321007
21
-135.6292263
0
LINE
8
0
10
154.0321007
20
-135.6292263
11
145.3055276
21
-151.372381
0
LINE
8
0
10
154.5169104
20
-134.7546066
11
170.2600651
21
-143.4811797
0
LINE
8
0
10
170.2600651
20
-143.4811797
11
178.9866382
21
-127.738025
0
LINE
8
0
10
178.9866382
20
-127.738025
11
163.2434835
21
-119.0114519
0
LINE
8
0
10
163.2434835
20
-119.0114519
11
154.5169104
21
-134.7546066
0
LINE
8
0
10
150.8696428
20
-180.5250932
11
166.6127975
21
-189.2516663
0
LINE
8
0
10
166.6127975
20
-189.2516663
11
175.3393706
21
-173.5085116
0
LINE
8
0
10
175.3393706
20
-173.5085116
11
159.5962159
21
-164.7819385
0
LINE
8
0
10
159.5962159
20
-164.7819385
11
150.8696428
21
-180.5250932
0
LINE
8
0
10
160.0810255
20
-163.9073187
11
175.8241802
21
-172.6338918
0
LINE
8
0
10
175.8241802
20
-172.6338918
11
184.5507533
21
-156.8907371
0
LINE
8
0
10
184.5507533
20
-156.8907371
11
168.8075986
21
-148.164164
0
LINE
8
0
10
168.8075986
20
-148.164164
11
160.0810255
21
-163.9073187
0
LINE
8
0
10
169.2924083
20
-147.2895443
11
185.035563
21
-156.0161174
0
LINE
8
0
10
185.035563
20
-156.0161174
11
193.7621361
21
-140.2729627
0
LINE
8
0
10
193.7621361
20
-140.2729627
11
178.0189814
21
-131.5463896
0
LINE
8
0
10
178.0189814
20
-131.5463896
11
169.2924083
21
-147.2895443
0
LINE
8
0
10
100.0578957
20
-115.4293455
11
115.8010504
21
-124.1559186
0
LINE
8
0
10
115.8010504
20
-124.1559186
11
124.5276235
21
-108.4127639
0
LINE
8
0
10
124.5276235
20
-108.4127639
11
108.7844688
21
-99.6861908
0
LINE
8
0
10
108.7844688
20
-99.6861908
11
100.0578957
21
-115.4293455
0
LINE
8
0
10
126.8827621
20
-184.6079299
11
142.6259168
21
-193.334503
0
LINE
8
0
10
142.6259168
20
-193.334503
11
151.3524899
21
-177.5913483
0
LINE
8
0
10
151.3524899
20
-177.5913483
11
135.6093352
21
-168.8647752
0
LINE
8
0
10
135.6093352
20
-168.8647752
11
126.8827621
21
-184.6079299
0
LINE
8
0
10
141.65826
20
-197.1428676
11
157.4014147
21
-205.8694407
0
LINE
8
0
10
157.4014147
20
-205.8694407
11
166.1279878
21
-190.126286
0
LINE
8
0
10
166.1279878
20
-190.126286
11
150.3848331
21
-181.3997129
0
LINE
8
0
10
150.3848331
20
-181.3997129
11
141.65826
21
-197.1428676
0
LINE
8
0
10
156.4337579
20
-209.6778052
11
172.1769126
21
-218.4043783
0
LINE
8
0
10
172.1769126
20
-218.4043783
11
180.9034857
21
-202.6612236
0
LINE
8
0
10
180.9034857
20
-202.6612236
11
165.160331
21
-193.9346505
0
LINE
8
0
10
165.160331
20
-193.9346505
11
156.4337579
21
-209.6778052
0
LINE
8
0
10
361.2727912
20
-137.6625198
11
378.7381143
21
-142.0171139
0
LINE
8
0
10
378.7381143
20
-142.0171139
11
383.0927084
21
-124.5517908
0
LINE
8
0
10
383.0927084
20
-124.5517908
11
365.6273853
21
-120.1971967
0
LINE
8
0
10
365.6273853
20
-120.1971967
11
361.2727912
21
-137.6625198
0
LINE
8
0
10
342.0875966
20
-139.9359467
11
359.9336041
21
-137.5864752
0
LINE
8
0
10
359.9336041
20
-137.5864752
11
357.5841326
21
-119.7404677
0
LINE
8
0
10
357.5841326
20
-119.7404677
11
339.7381251
21
-122.0899392
0
LINE
8
0
10
339.7381251
20
-122.0899392
11
342.0875966
21
-139.9359467
0
LINE
8
0
10
325.0705681
20
-149.0825803
11
340.8137228
21
-140.3560072
0
LINE
8
0
10
340.8137228
20
-140.3560072
11
332.0871497
21
-124.6128525
0
LINE
8
0
10
332.0871497
20
-124.6128525
11
316.343995
21
-133.3394256
0
LINE
8
0
10
316.343995
20
-133.3394256
11
325.0705681
21
-149.0825803
0
LINE
8
0
10
308.4527937
20
-158.293963
11
324.1959484
21
-149.5673899
0
LINE
8
0
10
324.1959484
20
-149.5673899
11
315.4693753
21
-133.8242352
0
LINE
8
0
10
315.4693753
20
-133.8242352
11
299.7262206
21
-142.5508083
0
LINE
8
0
10
299.7262206
20
-142.5508083
11
308.4527937
21
-158.293963
0
LINE
8
0
10
299.2414109
20
-141.6761886
11
314.9845656
21
-132.9496155
0
LINE
8
0
10
314.9845656
20
-132.9496155
11
306.2579925
21
-117.2064608
0
LINE
8
0
10
306.2579925
20
-117.2064608
11
290.5148378
21
-125.9330339
0
LINE
8
0
10
290.5148378
20
-125.9330339
11
299.2414109
21
-141.6761886
0
LINE
8
0
10
290.0300282
20
-125.0584141
11
305.7731829
21
-116.331841
0
LINE
8
0
10
305.7731829
20
-116.331841
11
297.0466098
21
-100.5886863
0
LINE
8
0
10
297.0466098
20
-100.5886863
11
281.3034551
21
-109.3152594
0
LINE
8
0
10
281.3034551
20
-109.3152594
11
290.0300282
21
-125.0584141
0
LINE
8
0
10
287.2293278
20
-159.1964586
11
302.9724825
21
-150.4698855
0
LINE
8
0
10
302.9724825
20
-150.4698855
11
294.2459094
21
-134.7267308
0
LINE
8
0
10
294.2459094
20
-134.7267308
11
278.5027547
21
-143.4533039
0
LINE
8
0
10
278.5027547
20
-143.4533039
11
287.2293278
21
-159.1964586
0
LINE
8
0
10
278.0179451
20
-142.5786842
11
293.7610998
21
-133.8521111
0
LINE
8
0
10
293.7610998
20
-133.8521111
11
285.0345267
21
-118.1089564
0
LINE
8
0
10
285.0345267
20
-118.1089564
11
269.291372
21
-126.8355295
0
LINE
8
0
10
269.291372
20
-126.8355295
11
278.0179451
21
-142.5786842
0
LINE
8
0
10
268.8065623
20
-125.9609097
11
284.549717
21
-117.2343366
0
LINE
8
0
10
284.549717
20
-117.2343366
11
275.8231439
21
-101.4911819
0
LINE
8
0
10
275.8231439
20
-101.4911819
11
260.0799892
21
-110.217755
0
LINE
8
0
10
260.0799892
20
-110.217755
11
268.8065623
21
-125.9609097
0
LINE
8
0
10
275.2172448
20
-176.7167285
11
290.9603995
21
-167.9901554
0
LINE
8
0
10
290.9603995
20
-167.9901554
11
282.2338264
21
-152.2470007
0
LINE
8
0
10
282.2338264
20
-152.2470007
11
266.4906717
21
-160.9735738
0
LINE
8
0
10
266.4906717
20
-160.9735738
11
275.2172448
21
-176.7167285
0
LINE
8
0
10
266.0058621
20
-160.0989541
11
281.7490168
21
-151.372381
0
LINE
8
0
10
281.7490168
20
-151.372381
11
273.0224437
21
-135.6292263
0
LINE
8
0
10
273.0224437
20
-135.6292263
11
257.279289
21
-144.3557994
0
LINE
8
0
10
257.279289
20
-144.3557994
11
266.0058621
21
-160.0989541
0
LINE
8
0
10
256.7944793
20
-143.4811797
11
272.537634
21
-134.7546066
0
LINE
8
0
10
272.537634
20
-134.7546066
11
263.8110609
21
-119.0114519
0
LINE
8
0
10
263.8110609
20
-119.0114519
11
248.0679062
21
-127.738025
0
LINE
8
0
10
248.0679062
20
-127.738025
11
256.7944793
21
-143.4811797
0
LINE
8
0
10
260.4417469
20
-189.2516663
11
276.1849016
21
-180.5250932
0
LINE
8
0
10
276.1849016
20
-180.5250932
11
267.4583285
21
-164.7819385
0
LINE
8
0
10
267.4583285
20
-164.7819385
11
251.7151738
21
-173.5085116
0
LINE
8
0
10
251.7151738
20
-173.5085116
11
260.4417469
21
-189.2516663
0
LINE
8
0
10
251.2303642
20
-172.6338918
11
266.9735189
21
-163.9073187
0
LINE
8
0
10
266.9735189
20
-163.9073187
11
258.2469458
21
-148.164164
0
LINE
8
0
10
258.2469458
20
-148.164164
11
242.5037911
21
-156.8907371
0
LINE
8
0
10
242.5037911
20
-156.8907371
11
251.2303642
21
-172.6338918
0
LINE
8
0
10
242.0189814
20
-156.0161174
11
257.7621361
21
-147.2895443
0
LINE
8
0
10
257.7621361
20
-147.2895443
11
249.035563
21
-131.5463896
0
LINE
8
0
10
249.035563
20
-131.5463896
11
233.2924083
21
-140.2729627
0
LINE
8
0
10
233.2924083
20
-140.2729627
11
242.0189814
21
-156.0161174
0
LINE
8
0
10
311.253494
20
-124.1559186
11
326.9966487
21
-115.4293455
0
LINE
8
0
10
326.9966487
20
-115.4293455
11
318.2700756
21
-99.6861908
0
LINE
8
0
10
318.2700756
20
-99.6861908
11
302.5269209
21
-108.4127639
0
LINE
8
0
10
302.5269209
20
-108.4127639
11
311.253494
21
-124.1559186
0
LINE
8
0
10
284.4286276
20
-193.334503
11
300.1717823
21
-184.6079299
0
LINE
8
0
10
300.1717823
20
-184.6079299
11
291.4452092
21
-168.8647752
0
LINE
8
0
10
291.4452092
20
-168.8647752
11
275.7020545
21
-177.5913483
0
LINE
8
0
10
275.7020545
20
-177.5913483
11
284.4286276
21
-193.334503
0
LINE
8
0
10
269.6531297
20
-205.8694407
11
285.3962844
21
-197.1428676
0
LINE
8
0
10
285.3962844
20
-197.1428676
11
276.6697113
21
-181.3997129
0
LINE
8
0
10
276.6697113
20
-181.3997129
11
260.9265566
21
-190.126286
0
LINE
8
0
10
260.9265566
20
-190.126286
11
269.6531297
21
-205.8694407
0
LINE
8
0
10
254.8776318
20
-218.4043783
11
270.6207865
21
-209.6778052
0
LINE
8
0
10
270.6207865
20
-209.6778052
11
261.8942134
21
-193.9346505
0
LINE
8
0
10
261.8942134
20
-193.9346505
11
246.1510587
21
-202.6612236
0
LINE
8
0
10
246.1510587
20
-202.6612236
11
254.8776318
21
-218.4043783
0
LINE
8
0
10
164.965426
20
-193.2549358
11
165.6761258
21
-191.9727994
0
LINE
8
0
10
187.7834445
20
-152.0901407
11
194.4418508
21
-140.0780577
0
LINE
8
0
10
194.4418508
20
-140.0780577
11
177.8240764
21
-130.8666749
0
LINE
8
0
10
177.8240764
20
-130.8666749
11
179.6663529
21
-127.54312
0
LINE
8
0
10
179.6663529
20
-127.54312
11
163.0485785
21
-118.3317372
0
LINE
8
0
10
163.0485785
20
-118.3317372
11
167.6542699
21
-110.02285
0
LINE
8
0
10
167.6542699
20
-110.02285
11
151.0364955
21
-100.8114672
0
LINE
8
0
10
151.0364955
20
-100.8114672
11
146.430804
21
-109.1203544
0
LINE
8
0
10
146.430804
20
-109.1203544
11
129.8130296
21
-99.9089716
0
LINE
8
0
10
129.8130296
20
-99.9089716
11
125.2073382
21
-108.2178589
0
LINE
8
0
10
125.2073382
20
-108.2178589
11
108.5895638
21
-99.0064761
0
LINE
8
0
10
108.5895638
20
-99.0064761
11
99.378181
21
-115.6242505
0
LINE
8
0
10
99.378181
20
-115.6242505
11
106.4407351
21
-119.5390882
0
LINE
8
0
10
106.4407351
20
-119.5390882
11
106.4049318
21
-130.3811057
0
LINE
8
0
10
106.4049318
20
-130.3811057
11
94.7724897
21
-123.9331378
0
LINE
8
0
10
94.7724897
20
-123.9331378
11
87.8774048
21
-121.6594798
0
LINE
8
0
10
87.8774048
20
-121.6594798
11
69.0399524
21
-119.1794822
0
LINE
8
0
10
69.0399524
20
-119.1794822
11
61.791346
21
-119.5910879
0
LINE
8
0
10
61.791346
20
-119.5910879
11
43.3557272
21
-124.1876039
0
LINE
8
0
10
43.3557272
20
-124.1876039
11
47.9522432
21
-142.6232227
0
LINE
8
0
10
47.9522432
20
-142.6232227
11
66.387862
21
-138.0267067
0
LINE
8
0
10
66.387862
20
-138.0267067
11
66.5599548
21
-138.0169346
0
LINE
8
0
10
66.5599548
20
-138.0169346
11
85.3974072
21
-140.4969322
0
LINE
8
0
10
85.3974072
20
-140.4969322
11
102.1788813
21
-149.762295
0
LINE
8
0
10
85.5611069
20
-140.5509122
11
118.7966557
21
-158.9736777
0
LINE
8
0
10
118.7966557
20
-158.9736777
11
123.4023471
21
-150.6647905
0
LINE
8
0
10
123.4023471
20
-150.6647905
11
140.0201216
21
-159.8761732
0
LINE
8
0
10
140.0201216
20
-159.8761732
11
126.2030474
21
-184.8028349
0
LINE
8
0
10
126.2030474
20
-184.8028349
11
142.8208218
21
-194.0142177
0
LINE
8
0
10
142.8208218
20
-194.0142177
11
140.9785453
21
-197.3377726
0
LINE
8
0
10
140.9785453
20
-197.3377726
11
157.5963197
21
-206.5491554
0
LINE
8
0
10
157.5963197
20
-206.5491554
11
155.7540432
21
-209.8727102
0
LINE
8
0
10
155.7540432
20
-209.8727102
11
172.3718176
21
-219.084093
0
LINE
8
0
10
172.3718176
20
-219.084093
11
181.5832004
21
-202.4663186
0
LINE
8
0
10
181.5832004
20
-202.4663186
11
164.965426
21
-193.2549358
0
LINE
8
0
10
232.6126936
20
-140.0780577
11
239.2710999
21
-152.0901407
0
LINE
8
0
10
261.3784186
20
-191.9727994
11
262.0891184
21
-193.2549358
0
LINE
8
0
10
262.0891184
20
-193.2549358
11
245.471344
21
-202.4663186
0
LINE
8
0
10
245.471344
20
-202.4663186
11
254.6827268
21
-219.084093
0
LINE
8
0
10
254.6827268
20
-219.084093
11
271.3005012
21
-209.8727102
0
LINE
8
0
10
271.3005012
20
-209.8727102
11
269.4582247
21
-206.5491554
0
LINE
8
0
10
269.4582247
20
-206.5491554
11
286.0759991
21
-197.3377726
0
LINE
8
0
10
286.0759991
20
-197.3377726
11
284.2337226
21
-194.0142177
0
LINE
8
0
10
284.2337226
20
-194.0142177
11
300.851497
21
-184.8028349
0
LINE
8
0
10
300.851497
20
-184.8028349
11
287.0344228
21
-159.8761732
0
LINE
8
0
10
287.0344228
20
-159.8761732
11
303.6521973
21
-150.6647905
0
LINE
8
0
10
303.6521973
20
-150.6647905
11
308.2578887
21
-158.9736777
0
LINE
8
0
10
308.2578887
20
-158.9736777
11
341.4934375
21
-140.5509122
0
LINE
8
0
10
324.8756631
20
-149.762295
11
341.6571372
21
-140.4969322
0
LINE
8
0
10
341.6571372
20
-140.4969322
11
360.4945896
21
-138.0169346
0
LINE
8
0
10
360.4945896
20
-138.0169346
11
379.1023012
21
-142.6232227
0
LINE
8
0
10
379.1023012
20
-142.6232227
11
383.6988172
21
-124.1876039
0
LINE
8
0
10
383.6988172
20
-124.1876039
11
365.2631984
21
-119.5910879
0
LINE
8
0
10
365.2631984
20
-119.5910879
11
358.014592
21
-119.1794822
0
LINE
8
0
10
358.014592
20
-119.1794822
11
339.1771396
21
-121.6594798
0
LINE
8
0
10
339.1771396
20
-121.6594798
11
332.2820547
21
-123.9331378
0
LINE
8
0
10
332.2820547
20
-123.9331378
11
320.6496126
21
-130.3811057
0
LINE
8
0
10
320.6496126
20
-130.3811057
11
320.6138093
21
-119.5390882
0
LINE
8
0
10
320.6138093
20
-119.5390882
11
327.6763634
21
-115.6242505
0
LINE
8
0
10
327.6763634
20
-115.6242505
11
318.4649806
21
-99.0064761
0
LINE
8
0
10
318.4649806
20
-99.0064761
11
301.8472062
21
-108.2178589
0
LINE
8
0
10
301.8472062
20
-108.2178589
11
297.2415148
21
-99.9089716
0
LINE
8
0
10
297.2415148
20
-99.9089716
11
280.6237404
21
-109.1203544
0
LINE
8
0
10
280.6237404
20
-109.1203544
11
276.0180489
21
-100.8114672
0
LINE
8
0
10
276.0180489
20
-100.8114672
11
259.4002745
21
-110.02285
0
LINE
8
0
10
259.4002745
20
-110.02285
11
264.0059659
21
-118.3317372
0
LINE
8
0
10
264.0059659
20
-118.3317372
11
247.3881915
21
-127.54312
0
LINE
8
0
10
247.3881915
20
-127.54312
11
249.230468
21
-130.8666749
0
LINE
8
0
10
249.230468
20
-130.8666749
11
232.6126936
21
-140.0780577
0
LINE
8
0
10
239.2710999
20
-152.0901407
11
187.7834445
21
-152.0901407
0
LINE
8
0
10
165.6761258
20
-191.9727994
11
261.3784186
21
-191.9727994
0
ENDSEC
0
EOF