M48
; DRILL file {KiCad 8.0.8-2.fc41} date 2025-01-20T23:28:17+0100
; FORMAT={-:-/ absolute / inch / decimal}
; #@! TF.CreationDate,2025-01-20T23:28:17+01:00
; #@! TF.GenerationSoftware,Kicad,Pcbnew,8.0.8-2.fc41
; #@! TF.FileFunction,NonPlated,1,2,NPTH
FMAT,2
INCH
; #@! TA.AperFunction,NonPlated,NPTH,ComponentDrill
T1C0.0670
; #@! TA.AperFunction,NonPlated,NPTH,ComponentDrill
T2C0.1181
; #@! TA.AperFunction,NonPlated,NPTH,ComponentDrill
T3C0.1570
%
G90
G05
T1
X1.7654Y-5.7603
X2.1535Y-5.6636
X2.6409Y-5.6359
X3.0375Y-5.6881
X3.5012Y-5.841
X3.851Y-6.0349
X4.0452Y-4.8596
X4.1554Y-6.2037
X4.395Y-5.0536
X4.5053Y-6.3976
X4.5181Y-5.5494
X4.8679Y-5.7433
X4.8807Y-4.8952
X4.991Y-6.2392
X5.1013Y-7.5832
X5.2306Y-5.0891
X5.3409Y-6.4331
X5.3537Y-5.585
X5.4511Y-7.7771
X5.4639Y-6.929
X5.683Y-8.0767
X5.7035Y-5.7789
X5.7163Y-4.9307
X5.8138Y-7.1229
X5.8266Y-6.2747
X6.0328Y-8.2706
X6.0456Y-7.4225
X6.0662Y-5.1246
X6.1764Y-6.4686
X6.1892Y-5.6205
X6.2647Y-8.5702
X6.3955Y-7.6164
X6.4083Y-6.7682
X6.5391Y-5.8144
X6.6145Y-8.7641
X6.7581Y-6.9622
X6.7709Y-6.114
X7.1208Y-6.3079
X9.2906Y-6.3079
X9.6405Y-6.114
X9.6533Y-6.9622
X9.7969Y-8.7641
X9.8723Y-5.8144
X10.0031Y-6.7682
X10.0159Y-7.6164
X10.1467Y-8.5702
X10.2222Y-5.6205
X10.235Y-6.4686
X10.3453Y-5.1246
X10.3658Y-7.4225
X10.3786Y-8.2706
X10.5848Y-6.2747
X10.5976Y-7.1229
X10.6951Y-4.9307
X10.7079Y-5.7789
X10.7284Y-8.0767
X10.9475Y-6.929
X10.9603Y-7.7771
X11.0578Y-5.585
X11.0706Y-6.4331
X11.1808Y-5.0891
X11.3101Y-7.5832
X11.4204Y-6.2392
X11.5307Y-4.8952
X11.5435Y-5.7433
X11.8933Y-5.5494
X11.9061Y-6.3976
X12.0164Y-5.0536
X12.256Y-6.2037
X12.3662Y-4.8596
X12.5604Y-6.0349
X12.9102Y-5.841
X13.3739Y-5.6881
X13.7705Y-5.6359
X14.2579Y-5.6636
X14.646Y-5.7604
T2
X1.7897Y-5.6512
X2.0081Y-5.4937
X2.7036Y-5.5433
X2.9645Y-5.4768
X3.5934Y-5.7778
X3.8605Y-5.8115
X4.1374Y-4.7964
X4.2476Y-6.1404
X4.4045Y-4.8302
X4.5148Y-6.1742
X4.6103Y-5.4862
X4.8774Y-5.5199
X4.973Y-4.832
X5.0832Y-6.176
X5.1935Y-7.52
X5.2401Y-4.8657
X5.3504Y-6.2097
X5.4459Y-5.5217
X5.4606Y-7.5537
X5.5561Y-6.8657
X5.713Y-5.5555
X5.7752Y-8.0135
X5.8085Y-4.8675
X5.8233Y-6.8995
X5.9188Y-6.2115
X6.0423Y-8.0472
X6.0757Y-4.9012
X6.1378Y-7.3592
X6.1859Y-6.2452
X6.2814Y-5.5573
X6.3569Y-8.507
X6.405Y-7.393
X6.5005Y-6.705
X6.5486Y-5.591
X6.624Y-8.5407
X6.7676Y-6.7387
X6.8632Y-6.0508
X7.1303Y-6.0845
X9.2859Y-6.1962
X9.4561Y-5.9875
X9.6485Y-6.8504
X9.7921Y-8.6524
X9.8187Y-6.6418
X9.8676Y-5.7027
X9.9623Y-8.4438
X10.0112Y-7.5047
X10.0378Y-5.494
X10.1814Y-7.296
X10.2302Y-6.3569
X10.3405Y-5.0129
X10.3738Y-8.1589
X10.4004Y-6.1483
X10.5107Y-4.8043
X10.544Y-7.9503
X10.5929Y-7.0112
X10.7032Y-5.6672
X10.7631Y-6.8025
X10.8733Y-5.4585
X10.9555Y-7.6654
X11.0658Y-6.3214
X11.1257Y-7.4568
X11.1761Y-4.9774
X11.236Y-6.1128
X11.3462Y-4.7687
X11.5387Y-5.6316
X11.7089Y-5.423
X11.9014Y-6.2859
X12.0116Y-4.9419
X12.0716Y-6.0772
X12.1818Y-4.7332
X12.5556Y-5.9232
X12.7258Y-5.7146
X13.4104Y-5.5824
X13.6452Y-5.4507
X14.3306Y-5.5786
X14.5974Y-5.5421
T3
X1.9594Y-5.712
X2.8392Y-5.662
X3.6761Y-5.938
X4.2201Y-4.9566
X4.3304Y-6.3006
X4.693Y-5.6464
X5.0557Y-4.9921
X5.1659Y-6.3362
X5.2762Y-7.6802
X5.5286Y-5.6819
X5.6388Y-7.0259
X5.8579Y-8.1737
X5.8912Y-5.0277
X6.0015Y-6.3717
X6.2206Y-7.5194
X6.3642Y-5.7174
X6.4396Y-8.6672
X6.5832Y-6.8652
X6.9459Y-6.2109
X9.4656Y-6.2109
X9.8282Y-6.8652
X9.9718Y-8.6672
X10.0473Y-5.7174
X10.1909Y-7.5194
X10.4099Y-6.3717
X10.5202Y-5.0277
X10.5535Y-8.1737
X10.7726Y-7.0259
X10.8828Y-5.6819
X11.1352Y-7.6802
X11.2455Y-6.3362
X11.3557Y-4.9921
X11.7184Y-5.6464
X12.0811Y-6.3006
X12.1913Y-4.9566
X12.7353Y-5.938
X13.5722Y-5.662
X14.452Y-5.712
M30
