0
SECTION
2
HEADER
9
$INSUNITS
70
4
0
ENDSEC
0
SECTION
2
TABLES
0
TABLE
2
LTYPE
0
LTYPE
72
65
70
64
2
CONTINUOUS
3
______
73
0
40
0
0
ENDTAB
0
TABLE
2
LAYER
0
ENDTAB
0
ENDSEC
0
SECTION
2
ENTITIES
0
LINE
8
0
10
164.965426
20
-193.2549358
11
165.6761258
21
-191.9727994
0
LINE
8
0
10
187.7834445
20
-152.0901407
11
194.4418508
21
-140.0780577
0
LINE
8
0
10
194.4418508
20
-140.0780577
11
177.8240764
21
-130.8666749
0
LINE
8
0
10
177.8240764
20
-130.8666749
11
179.6663529
21
-127.54312
0
LINE
8
0
10
179.6663529
20
-127.54312
11
163.0485785
21
-118.3317372
0
LINE
8
0
10
163.0485785
20
-118.3317372
11
167.6542699
21
-110.02285
0
LINE
8
0
10
167.6542699
20
-110.02285
11
151.0364955
21
-100.8114672
0
LINE
8
0
10
151.0364955
20
-100.8114672
11
146.430804
21
-109.1203544
0
LINE
8
0
10
146.430804
20
-109.1203544
11
129.8130296
21
-99.9089716
0
LINE
8
0
10
129.8130296
20
-99.9089716
11
125.2073382
21
-108.2178589
0
LINE
8
0
10
125.2073382
20
-108.2178589
11
108.5895638
21
-99.0064761
0
LINE
8
0
10
108.5895638
20
-99.0064761
11
99.378181
21
-115.6242505
0
LINE
8
0
10
99.378181
20
-115.6242505
11
106.4407351
21
-119.5390882
0
LINE
8
0
10
106.4407351
20
-119.5390882
11
106.4049318
21
-130.3811057
0
LINE
8
0
10
106.4049318
20
-130.3811057
11
94.7724897
21
-123.9331378
0
LINE
8
0
10
94.7724897
20
-123.9331378
11
87.8774048
21
-121.6594798
0
LINE
8
0
10
87.8774048
20
-121.6594798
11
69.0399524
21
-119.1794822
0
LINE
8
0
10
69.0399524
20
-119.1794822
11
61.791346
21
-119.5910879
0
LINE
8
0
10
61.791346
20
-119.5910879
11
43.3557272
21
-124.1876039
0
LINE
8
0
10
43.3557272
20
-124.1876039
11
47.9522432
21
-142.6232227
0
LINE
8
0
10
47.9522432
20
-142.6232227
11
66.387862
21
-138.0267067
0
LINE
8
0
10
66.387862
20
-138.0267067
11
66.5599548
21
-138.0169346
0
LINE
8
0
10
66.5599548
20
-138.0169346
11
85.3974072
21
-140.4969322
0
LINE
8
0
10
85.3974072
20
-140.4969322
11
102.1788813
21
-149.762295
0
LINE
8
0
10
85.5611069
20
-140.5509122
11
118.7966557
21
-158.9736777
0
LINE
8
0
10
118.7966557
20
-158.9736777
11
123.4023471
21
-150.6647905
0
LINE
8
0
10
123.4023471
20
-150.6647905
11
140.0201216
21
-159.8761732
0
LINE
8
0
10
140.0201216
20
-159.8761732
11
126.2030474
21
-184.8028349
0
LINE
8
0
10
126.2030474
20
-184.8028349
11
142.8208218
21
-194.0142177
0
LINE
8
0
10
142.8208218
20
-194.0142177
11
140.9785453
21
-197.3377726
0
LINE
8
0
10
140.9785453
20
-197.3377726
11
157.5963197
21
-206.5491554
0
LINE
8
0
10
157.5963197
20
-206.5491554
11
155.7540432
21
-209.8727102
0
LINE
8
0
10
155.7540432
20
-209.8727102
11
172.3718176
21
-219.084093
0
LINE
8
0
10
172.3718176
20
-219.084093
11
181.5832004
21
-202.4663186
0
LINE
8
0
10
181.5832004
20
-202.4663186
11
164.965426
21
-193.2549358
0
LINE
8
0
10
232.6126936
20
-140.0780577
11
239.2710999
21
-152.0901407
0
LINE
8
0
10
261.3784186
20
-191.9727994
11
262.0891184
21
-193.2549358
0
LINE
8
0
10
262.0891184
20
-193.2549358
11
245.471344
21
-202.4663186
0
LINE
8
0
10
245.471344
20
-202.4663186
11
254.6827268
21
-219.084093
0
LINE
8
0
10
254.6827268
20
-219.084093
11
271.3005012
21
-209.8727102
0
LINE
8
0
10
271.3005012
20
-209.8727102
11
269.4582247
21
-206.5491554
0
LINE
8
0
10
269.4582247
20
-206.5491554
11
286.0759991
21
-197.3377726
0
LINE
8
0
10
286.0759991
20
-197.3377726
11
284.2337226
21
-194.0142177
0
LINE
8
0
10
284.2337226
20
-194.0142177
11
300.851497
21
-184.8028349
0
LINE
8
0
10
300.851497
20
-184.8028349
11
287.0344228
21
-159.8761732
0
LINE
8
0
10
287.0344228
20
-159.8761732
11
303.6521973
21
-150.6647905
0
LINE
8
0
10
303.6521973
20
-150.6647905
11
308.2578887
21
-158.9736777
0
LINE
8
0
10
308.2578887
20
-158.9736777
11
341.4934375
21
-140.5509122
0
LINE
8
0
10
324.8756631
20
-149.762295
11
341.6571372
21
-140.4969322
0
LINE
8
0
10
341.6571372
20
-140.4969322
11
360.4945896
21
-138.0169346
0
LINE
8
0
10
360.4945896
20
-138.0169346
11
379.1023012
21
-142.6232227
0
LINE
8
0
10
379.1023012
20
-142.6232227
11
383.6988172
21
-124.1876039
0
LINE
8
0
10
383.6988172
20
-124.1876039
11
365.2631984
21
-119.5910879
0
LINE
8
0
10
365.2631984
20
-119.5910879
11
358.014592
21
-119.1794822
0
LINE
8
0
10
358.014592
20
-119.1794822
11
339.1771396
21
-121.6594798
0
LINE
8
0
10
339.1771396
20
-121.6594798
11
332.2820547
21
-123.9331378
0
LINE
8
0
10
332.2820547
20
-123.9331378
11
320.6496126
21
-130.3811057
0
LINE
8
0
10
320.6496126
20
-130.3811057
11
320.6138093
21
-119.5390882
0
LINE
8
0
10
320.6138093
20
-119.5390882
11
327.6763634
21
-115.6242505
0
LINE
8
0
10
327.6763634
20
-115.6242505
11
318.4649806
21
-99.0064761
0
LINE
8
0
10
318.4649806
20
-99.0064761
11
301.8472062
21
-108.2178589
0
LINE
8
0
10
301.8472062
20
-108.2178589
11
297.2415148
21
-99.9089716
0
LINE
8
0
10
297.2415148
20
-99.9089716
11
280.6237404
21
-109.1203544
0
LINE
8
0
10
280.6237404
20
-109.1203544
11
276.0180489
21
-100.8114672
0
LINE
8
0
10
276.0180489
20
-100.8114672
11
259.4002745
21
-110.02285
0
LINE
8
0
10
259.4002745
20
-110.02285
11
264.0059659
21
-118.3317372
0
LINE
8
0
10
264.0059659
20
-118.3317372
11
247.3881915
21
-127.54312
0
LINE
8
0
10
247.3881915
20
-127.54312
11
249.230468
21
-130.8666749
0
LINE
8
0
10
249.230468
20
-130.8666749
11
232.6126936
21
-140.0780577
0
LINE
8
0
10
239.2710999
20
-152.0901407
11
187.7834445
21
-152.0901407
0
LINE
8
0
10
165.6761258
20
-191.9727994
11
261.3784186
21
-191.9727994
0
CIRCLE
8
0
10
65.9331659
20
-128.3492457
40
1
0
CIRCLE
8
0
10
361.1213785
20
-128.3492457
40
1
0
CIRCLE
8
0
10
122.9044925
20
-112.3723025
40
1
0
CIRCLE
8
0
10
304.1500519
20
-112.3723025
40
1
0
CIRCLE
8
0
10
175.0606615
20
-135.8520072
40
1
0
CIRCLE
8
0
10
251.9938829
20
-135.8520072
40
1
0
CIRCLE
8
0
10
159.8991654
20
-202.3947118
40
1
0
CIRCLE
8
0
10
267.155379
20
-202.3947118
40
1
0
ENDSEC
0
EOF