0
SECTION
2
HEADER
9
$INSUNITS
70
4
0
ENDSEC
0
SECTION
2
TABLES
0
TABLE
2
LTYPE
0
LTYPE
72
65
70
64
2
CONTINUOUS
3
______
73
0
40
0
0
ENDTAB
0
TABLE
2
LAYER
0
ENDTAB
0
ENDSEC
0
SECTION
2
ENTITIES
0
LINE
8
0
10
49.9552712
20
-139.2896242
11
63.0542635
21
-136.0236787
0
LINE
8
0
10
63.0542635
20
-136.0236787
11
59.788318
21
-122.9246864
0
LINE
8
0
10
59.788318
20
-122.9246864
11
46.6893257
21
-126.1906319
0
LINE
8
0
10
46.6893257
20
-126.1906319
11
49.9552712
21
-139.2896242
0
LINE
8
0
10
69.6453752
20
-135.6494082
11
83.0298808
21
-137.4115118
0
LINE
8
0
10
83.0298808
20
-137.4115118
11
84.7919844
21
-124.0270062
0
LINE
8
0
10
84.7919844
20
-124.0270062
11
71.4074788
21
-122.2649026
0
LINE
8
0
10
71.4074788
20
-122.2649026
11
69.6453752
21
-135.6494082
0
LINE
8
0
10
89.2995375
20
-139.4789345
11
101.1069036
21
-146.0238644
0
LINE
8
0
10
101.1069036
20
-146.0238644
11
107.6518335
21
-134.2164983
0
LINE
8
0
10
107.6518335
20
-134.2164983
11
95.8444674
21
-127.6715684
0
LINE
8
0
10
95.8444674
20
-127.6715684
11
89.2995375
21
-139.4789345
0
LINE
8
0
10
105.9173119
20
-148.6903172
11
117.724678
21
-155.2352471
0
LINE
8
0
10
117.724678
20
-155.2352471
11
124.2696079
21
-143.427881
0
LINE
8
0
10
124.2696079
20
-143.427881
11
112.4622418
21
-136.8829511
0
LINE
8
0
10
112.4622418
20
-136.8829511
11
105.9173119
21
-148.6903172
0
LINE
8
0
10
115.1286947
20
-132.0725428
11
126.9360608
21
-138.6174727
0
LINE
8
0
10
126.9360608
20
-138.6174727
11
133.4809907
21
-126.8101066
0
LINE
8
0
10
133.4809907
20
-126.8101066
11
121.6736246
21
-120.2651767
0
LINE
8
0
10
121.6736246
20
-120.2651767
11
115.1286947
21
-132.0725428
0
LINE
8
0
10
124.3400774
20
-115.4547683
11
136.1474435
21
-121.9996982
0
LINE
8
0
10
136.1474435
20
-121.9996982
11
142.6923734
21
-110.1923321
0
LINE
8
0
10
142.6923734
20
-110.1923321
11
130.8850073
21
-103.6474022
0
LINE
8
0
10
130.8850073
20
-103.6474022
11
124.3400774
21
-115.4547683
0
LINE
8
0
10
127.1407778
20
-149.5928128
11
138.9481439
21
-156.1377427
0
LINE
8
0
10
138.9481439
20
-156.1377427
11
145.4930738
21
-144.3303766
0
LINE
8
0
10
145.4930738
20
-144.3303766
11
133.6857077
21
-137.7854467
0
LINE
8
0
10
133.6857077
20
-137.7854467
11
127.1407778
21
-149.5928128
0
LINE
8
0
10
136.3521605
20
-132.9750384
11
148.1595266
21
-139.5199683
0
LINE
8
0
10
148.1595266
20
-139.5199683
11
154.7044565
21
-127.7126022
0
LINE
8
0
10
154.7044565
20
-127.7126022
11
142.8970904
21
-121.1676723
0
LINE
8
0
10
142.8970904
20
-121.1676723
11
136.3521605
21
-132.9750384
0
LINE
8
0
10
145.5635433
20
-116.3572639
11
157.3709094
21
-122.9021938
0
LINE
8
0
10
157.3709094
20
-122.9021938
11
163.9158393
21
-111.0948277
0
LINE
8
0
10
163.9158393
20
-111.0948277
11
152.1084732
21
-104.5498978
0
LINE
8
0
10
152.1084732
20
-104.5498978
11
145.5635433
21
-116.3572639
0
LINE
8
0
10
139.1528608
20
-167.1130827
11
150.9602269
21
-173.6580126
0
LINE
8
0
10
150.9602269
20
-173.6580126
11
157.5051568
21
-161.8506465
0
LINE
8
0
10
157.5051568
20
-161.8506465
11
145.6977907
21
-155.3057166
0
LINE
8
0
10
145.6977907
20
-155.3057166
11
139.1528608
21
-167.1130827
0
LINE
8
0
10
148.3642435
20
-150.4953083
11
160.1716096
21
-157.0402382
0
LINE
8
0
10
160.1716096
20
-157.0402382
11
166.7165395
21
-145.2328721
0
LINE
8
0
10
166.7165395
20
-145.2328721
11
154.9091734
21
-138.6879422
0
LINE
8
0
10
154.9091734
20
-138.6879422
11
148.3642435
21
-150.4953083
0
LINE
8
0
10
157.5756263
20
-133.8775339
11
169.3829924
21
-140.4224638
0
LINE
8
0
10
169.3829924
20
-140.4224638
11
175.9279223
21
-128.6150977
0
LINE
8
0
10
175.9279223
20
-128.6150977
11
164.1205562
21
-122.0701678
0
LINE
8
0
10
164.1205562
20
-122.0701678
11
157.5756263
21
-133.8775339
0
LINE
8
0
10
153.9283587
20
-179.6480205
11
165.7357248
21
-186.1929504
0
LINE
8
0
10
165.7357248
20
-186.1929504
11
172.2806547
21
-174.3855843
0
LINE
8
0
10
172.2806547
20
-174.3855843
11
160.4732886
21
-167.8406544
0
LINE
8
0
10
160.4732886
20
-167.8406544
11
153.9283587
21
-179.6480205
0
LINE
8
0
10
163.1397414
20
-163.030246
11
174.9471075
21
-169.5751759
0
LINE
8
0
10
174.9471075
20
-169.5751759
11
181.4920374
21
-157.7678098
0
LINE
8
0
10
181.4920374
20
-157.7678098
11
169.6846713
21
-151.2228799
0
LINE
8
0
10
169.6846713
20
-151.2228799
11
163.1397414
21
-163.030246
0
LINE
8
0
10
172.3511242
20
-146.4124716
11
184.1584903
21
-152.9574015
0
LINE
8
0
10
184.1584903
20
-152.9574015
11
190.7034202
21
-141.1500354
0
LINE
8
0
10
190.7034202
20
-141.1500354
11
178.8960541
21
-134.6051055
0
LINE
8
0
10
178.8960541
20
-134.6051055
11
172.3511242
21
-146.4124716
0
LINE
8
0
10
103.1166116
20
-114.5522728
11
114.9239777
21
-121.0972027
0
LINE
8
0
10
114.9239777
20
-121.0972027
11
121.4689076
21
-109.2898366
0
LINE
8
0
10
121.4689076
20
-109.2898366
11
109.6615415
21
-102.7449067
0
LINE
8
0
10
109.6615415
20
-102.7449067
11
103.1166116
21
-114.5522728
0
LINE
8
0
10
129.941478
20
-183.7308572
11
141.7488441
21
-190.2757871
0
LINE
8
0
10
141.7488441
20
-190.2757871
11
148.293774
21
-178.468421
0
LINE
8
0
10
148.293774
20
-178.468421
11
136.4864079
21
-171.9234911
0
LINE
8
0
10
136.4864079
20
-171.9234911
11
129.941478
21
-183.7308572
0
LINE
8
0
10
144.7169759
20
-196.2657949
11
156.524342
21
-202.8107248
0
LINE
8
0
10
156.524342
20
-202.8107248
11
163.0692719
21
-191.0033587
0
LINE
8
0
10
163.0692719
20
-191.0033587
11
151.2619058
21
-184.4584288
0
LINE
8
0
10
151.2619058
20
-184.4584288
11
144.7169759
21
-196.2657949
0
LINE
8
0
10
159.4924738
20
-208.8007325
11
171.2998399
21
-215.3456624
0
LINE
8
0
10
171.2998399
20
-215.3456624
11
177.8447698
21
-203.5382963
0
LINE
8
0
10
177.8447698
20
-203.5382963
11
166.0374037
21
-196.9933664
0
LINE
8
0
10
166.0374037
20
-196.9933664
11
159.4924738
21
-208.8007325
0
LINE
8
0
10
364.0002809
20
-136.0236787
11
377.0992732
21
-139.2896242
0
LINE
8
0
10
377.0992732
20
-139.2896242
11
380.3652187
21
-126.1906319
0
LINE
8
0
10
380.3652187
20
-126.1906319
11
367.2662264
21
-122.9246864
0
LINE
8
0
10
367.2662264
20
-122.9246864
11
364.0002809
21
-136.0236787
0
LINE
8
0
10
344.0246636
20
-137.4115118
11
357.4091692
21
-135.6494082
0
LINE
8
0
10
357.4091692
20
-135.6494082
11
355.6470656
21
-122.2649026
0
LINE
8
0
10
355.6470656
20
-122.2649026
11
342.26256
21
-124.0270062
0
LINE
8
0
10
342.26256
20
-124.0270062
11
344.0246636
21
-137.4115118
0
LINE
8
0
10
325.9476408
20
-146.0238644
11
337.7550069
21
-139.4789345
0
LINE
8
0
10
337.7550069
20
-139.4789345
11
331.210077
21
-127.6715684
0
LINE
8
0
10
331.210077
20
-127.6715684
11
319.4027109
21
-134.2164983
0
LINE
8
0
10
319.4027109
20
-134.2164983
11
325.9476408
21
-146.0238644
0
LINE
8
0
10
309.3298664
20
-155.2352471
11
321.1372325
21
-148.6903172
0
LINE
8
0
10
321.1372325
20
-148.6903172
11
314.5923026
21
-136.8829511
0
LINE
8
0
10
314.5923026
20
-136.8829511
11
302.7849365
21
-143.427881
0
LINE
8
0
10
302.7849365
20
-143.427881
11
309.3298664
21
-155.2352471
0
LINE
8
0
10
300.1184836
20
-138.6174727
11
311.9258497
21
-132.0725428
0
LINE
8
0
10
311.9258497
20
-132.0725428
11
305.3809198
21
-120.2651767
0
LINE
8
0
10
305.3809198
20
-120.2651767
11
293.5735537
21
-126.8101066
0
LINE
8
0
10
293.5735537
20
-126.8101066
11
300.1184836
21
-138.6174727
0
LINE
8
0
10
290.9071009
20
-121.9996982
11
302.714467
21
-115.4547683
0
LINE
8
0
10
302.714467
20
-115.4547683
11
296.1695371
21
-103.6474022
0
LINE
8
0
10
296.1695371
20
-103.6474022
11
284.362171
21
-110.1923321
0
LINE
8
0
10
284.362171
20
-110.1923321
11
290.9071009
21
-121.9996982
0
LINE
8
0
10
288.1064005
20
-156.1377427
11
299.9137666
21
-149.5928128
0
LINE
8
0
10
299.9137666
20
-149.5928128
11
293.3688367
21
-137.7854467
0
LINE
8
0
10
293.3688367
20
-137.7854467
11
281.5614706
21
-144.3303766
0
LINE
8
0
10
281.5614706
20
-144.3303766
11
288.1064005
21
-156.1377427
0
LINE
8
0
10
278.8950178
20
-139.5199683
11
290.7023839
21
-132.9750384
0
LINE
8
0
10
290.7023839
20
-132.9750384
11
284.157454
21
-121.1676723
0
LINE
8
0
10
284.157454
20
-121.1676723
11
272.3500879
21
-127.7126022
0
LINE
8
0
10
272.3500879
20
-127.7126022
11
278.8950178
21
-139.5199683
0
LINE
8
0
10
269.683635
20
-122.9021938
11
281.4910011
21
-116.3572639
0
LINE
8
0
10
281.4910011
20
-116.3572639
11
274.9460712
21
-104.5498978
0
LINE
8
0
10
274.9460712
20
-104.5498978
11
263.1387051
21
-111.0948277
0
LINE
8
0
10
263.1387051
20
-111.0948277
11
269.683635
21
-122.9021938
0
LINE
8
0
10
276.0943175
20
-173.6580126
11
287.9016836
21
-167.1130827
0
LINE
8
0
10
287.9016836
20
-167.1130827
11
281.3567537
21
-155.3057166
0
LINE
8
0
10
281.3567537
20
-155.3057166
11
269.5493876
21
-161.8506465
0
LINE
8
0
10
269.5493876
20
-161.8506465
11
276.0943175
21
-173.6580126
0
LINE
8
0
10
266.8829348
20
-157.0402382
11
278.6903009
21
-150.4953083
0
LINE
8
0
10
278.6903009
20
-150.4953083
11
272.145371
21
-138.6879422
0
LINE
8
0
10
272.145371
20
-138.6879422
11
260.3380049
21
-145.2328721
0
LINE
8
0
10
260.3380049
20
-145.2328721
11
266.8829348
21
-157.0402382
0
LINE
8
0
10
257.671552
20
-140.4224638
11
269.4789181
21
-133.8775339
0
LINE
8
0
10
269.4789181
20
-133.8775339
11
262.9339882
21
-122.0701678
0
LINE
8
0
10
262.9339882
20
-122.0701678
11
251.1266221
21
-128.6150977
0
LINE
8
0
10
251.1266221
20
-128.6150977
11
257.671552
21
-140.4224638
0
LINE
8
0
10
261.3188196
20
-186.1929504
11
273.1261857
21
-179.6480205
0
LINE
8
0
10
273.1261857
20
-179.6480205
11
266.5812558
21
-167.8406544
0
LINE
8
0
10
266.5812558
20
-167.8406544
11
254.7738897
21
-174.3855843
0
LINE
8
0
10
254.7738897
20
-174.3855843
11
261.3188196
21
-186.1929504
0
LINE
8
0
10
252.1074369
20
-169.5751759
11
263.914803
21
-163.030246
0
LINE
8
0
10
263.914803
20
-163.030246
11
257.3698731
21
-151.2228799
0
LINE
8
0
10
257.3698731
20
-151.2228799
11
245.562507
21
-157.7678098
0
LINE
8
0
10
245.562507
20
-157.7678098
11
252.1074369
21
-169.5751759
0
LINE
8
0
10
242.8960541
20
-152.9574015
11
254.7034202
21
-146.4124716
0
LINE
8
0
10
254.7034202
20
-146.4124716
11
248.1584903
21
-134.6051055
0
LINE
8
0
10
248.1584903
20
-134.6051055
11
236.3511242
21
-141.1500354
0
LINE
8
0
10
236.3511242
20
-141.1500354
11
242.8960541
21
-152.9574015
0
LINE
8
0
10
312.1305667
20
-121.0972027
11
323.9379328
21
-114.5522728
0
LINE
8
0
10
323.9379328
20
-114.5522728
11
317.3930029
21
-102.7449067
0
LINE
8
0
10
317.3930029
20
-102.7449067
11
305.5856368
21
-109.2898366
0
LINE
8
0
10
305.5856368
20
-109.2898366
11
312.1305667
21
-121.0972027
0
LINE
8
0
10
285.3057003
20
-190.2757871
11
297.1130664
21
-183.7308572
0
LINE
8
0
10
297.1130664
20
-183.7308572
11
290.5681365
21
-171.9234911
0
LINE
8
0
10
290.5681365
20
-171.9234911
11
278.7607704
21
-178.468421
0
LINE
8
0
10
278.7607704
20
-178.468421
11
285.3057003
21
-190.2757871
0
LINE
8
0
10
270.5302024
20
-202.8107248
11
282.3375685
21
-196.2657949
0
LINE
8
0
10
282.3375685
20
-196.2657949
11
275.7926386
21
-184.4584288
0
LINE
8
0
10
275.7926386
20
-184.4584288
11
263.9852725
21
-191.0033587
0
LINE
8
0
10
263.9852725
20
-191.0033587
11
270.5302024
21
-202.8107248
0
LINE
8
0
10
255.7547045
20
-215.3456624
11
267.5620706
21
-208.8007325
0
LINE
8
0
10
267.5620706
20
-208.8007325
11
261.0171407
21
-196.9933664
0
LINE
8
0
10
261.0171407
20
-196.9933664
11
249.2097746
21
-203.5382963
0
LINE
8
0
10
249.2097746
20
-203.5382963
11
255.7547045
21
-215.3456624
0
ENDSEC
0
EOF