%TF.GenerationSoftware,KiCad,Pcbnew,8.0.8-2.fc41*%
%TF.CreationDate,2025-01-20T23:27:37+01:00*%
%TF.ProjectId,laserraven_traced_and_silked_screws,6c617365-7272-4617-9665-6e5f74726163,1.0.0*%
%TF.SameCoordinates,Original*%
%TF.FileFunction,Copper,L2,Bot*%
%TF.FilePolarity,Positive*%
%FSLAX46Y46*%
G04 Gerber Fmt 4.6, Leading zero omitted, Abs format (unit mm)*
G04 Created by KiCad (PCBNEW 8.0.8-2.fc41) date 2025-01-20 23:27:37*
%MOMM*%
%LPD*%
G01*
G04 APERTURE LIST*
G04 Aperture macros list*
%AMRotRect*
0 Rectangle, with rotation*
0 The origin of the aperture is its center*
0 $1 length*
0 $2 width*
0 $3 Rotation angle, in degrees counterclockwise*
0 Add horizontal line*
21,1,$1,$2,0,0,$3*%
G04 Aperture macros list end*
%TA.AperFunction,SMDPad,CuDef*%
%ADD10RotRect,2.550000X2.500000X331.000000*%
%TD*%
%TA.AperFunction,ComponentPad*%
%ADD11RotRect,1.778000X1.778000X331.000000*%
%TD*%
%TA.AperFunction,SMDPad,CuDef*%
%ADD12RotRect,0.900000X1.200000X331.000000*%
%TD*%
%TA.AperFunction,ComponentPad*%
%ADD13C,1.905000*%
%TD*%
%TA.AperFunction,ComponentPad*%
%ADD14RotRect,1.778000X1.778000X29.000000*%
%TD*%
%TA.AperFunction,SMDPad,CuDef*%
%ADD15RotRect,0.900000X1.200000X29.000000*%
%TD*%
%TA.AperFunction,SMDPad,CuDef*%
%ADD16RotRect,2.550000X2.500000X29.000000*%
%TD*%
%TA.AperFunction,SMDPad,CuDef*%
%ADD17RotRect,2.550000X2.500000X14.000000*%
%TD*%
%TA.AperFunction,SMDPad,CuDef*%
%ADD18RotRect,2.550000X2.500000X7.500000*%
%TD*%
%TA.AperFunction,ComponentPad*%
%ADD19RotRect,1.778000X1.778000X352.500000*%
%TD*%
%TA.AperFunction,SMDPad,CuDef*%
%ADD20RotRect,0.900000X1.200000X352.500000*%
%TD*%
%TA.AperFunction,SMDPad,CuDef*%
%ADD21RotRect,2.550000X2.500000X346.000000*%
%TD*%
%TA.AperFunction,ComponentPad*%
%ADD22RotRect,1.778000X1.778000X14.000000*%
%TD*%
%TA.AperFunction,SMDPad,CuDef*%
%ADD23RotRect,0.900000X1.200000X14.000000*%
%TD*%
%TA.AperFunction,ComponentPad*%
%ADD24RotRect,1.752600X1.752600X299.000000*%
%TD*%
%TA.AperFunction,ComponentPad*%
%ADD25C,1.752600*%
%TD*%
%TA.AperFunction,SMDPad,CuDef*%
%ADD26RotRect,2.550000X2.500000X352.500000*%
%TD*%
%TA.AperFunction,ComponentPad*%
%ADD27RotRect,1.778000X1.778000X7.500000*%
%TD*%
%TA.AperFunction,SMDPad,CuDef*%
%ADD28RotRect,0.900000X1.200000X7.500000*%
%TD*%
%TA.AperFunction,ComponentPad*%
%ADD29RotRect,1.778000X1.778000X346.000000*%
%TD*%
%TA.AperFunction,SMDPad,CuDef*%
%ADD30RotRect,0.900000X1.200000X346.000000*%
%TD*%
%TA.AperFunction,ViaPad*%
%ADD31C,0.800000*%
%TD*%
%TA.AperFunction,Conductor*%
%ADD32C,0.250000*%
%TD*%
G04 APERTURE END LIST*
D10*
%TO.P,S12,1*%
%TO.N,P1*%
X156684203Y-139566678D03*
%TO.P,S12,2*%
%TO.N,index_top*%
X169221830Y-143612275D03*
%TD*%
D11*
%TO.P,D5,1*%
%TO.N,P14*%
X116070049Y-147398503D03*
D12*
X117959228Y-148445692D03*
%TO.P,D5,2*%
%TO.N,ring_home*%
X120845474Y-150045564D03*
D13*
X122734653Y-151092753D03*
%TD*%
D14*
%TO.P,D22,1*%
%TO.N,P7*%
X325192158Y-155590290D03*
D15*
X327081336Y-154543103D03*
%TO.P,D22,2*%
%TO.N,mirror_pinky_home*%
X329967582Y-152943225D03*
D13*
X331856760Y-151896038D03*
%TD*%
D14*
%TO.P,D33,1*%
%TO.N,P7*%
X251351963Y-179141602D03*
D15*
X253241141Y-178094415D03*
%TO.P,D33,2*%
%TO.N,mirror_inner_home*%
X256127387Y-176494537D03*
D13*
X258016565Y-175447350D03*
%TD*%
D10*
%TO.P,S3,1*%
%TO.N,P20*%
X88408119Y-145168082D03*
%TO.P,S3,2*%
%TO.N,pinky_home*%
X100945746Y-149213679D03*
%TD*%
D14*
%TO.P,D23,1*%
%TO.N,P8*%
X308574388Y-164801671D03*
D15*
X310463566Y-163754484D03*
%TO.P,D23,2*%
%TO.N,mirror_ring_bottom*%
X313349812Y-162154606D03*
D13*
X315238990Y-161107419D03*
%TD*%
D10*
%TO.P,S11,1*%
%TO.N,P1*%
X147472824Y-156184450D03*
%TO.P,S11,2*%
%TO.N,index_home*%
X160010451Y-160230047D03*
%TD*%
D16*
%TO.P,S23,1*%
%TO.N,P21*%
X299430686Y-161249218D03*
%TO.P,S23,2*%
%TO.N,mirror_ring_bottom*%
X309505479Y-152760549D03*
%TD*%
D10*
%TO.P,S5,1*%
%TO.N,P21*%
X114237278Y-137761693D03*
%TO.P,S5,2*%
%TO.N,ring_home*%
X126774905Y-141807290D03*
%TD*%
D11*
%TO.P,D17,1*%
%TO.N,P10*%
X130882835Y-199056818D03*
D12*
X132772014Y-200104007D03*
%TO.P,D17,2*%
%TO.N,out_thumb*%
X135658260Y-201703879D03*
D13*
X137547439Y-202751068D03*
%TD*%
D10*
%TO.P,S13,1*%
%TO.N,P0*%
X153036939Y-185337169D03*
%TO.P,S13,2*%
%TO.N,inner_bottom*%
X165574566Y-189382766D03*
%TD*%
D17*
%TO.P,S1,1*%
%TO.N,P20*%
X42280464Y-144333391D03*
%TO.P,S1,2*%
%TO.N,far_home*%
X54208994Y-138741517D03*
%TD*%
D11*
%TO.P,D19,1*%
%TO.N,P10*%
X160433829Y-224126693D03*
D12*
X162323008Y-225173882D03*
%TO.P,D19,2*%
%TO.N,in_thumb*%
X165209254Y-226773754D03*
D13*
X167098433Y-227820943D03*
%TD*%
D10*
%TO.P,S14,1*%
%TO.N,P0*%
X162248316Y-168719394D03*
%TO.P,S14,2*%
%TO.N,inner_home*%
X174785943Y-172764991D03*
%TD*%
D14*
%TO.P,D25,1*%
%TO.N,P6*%
X290151621Y-131566119D03*
D15*
X292040799Y-130518932D03*
%TO.P,D25,2*%
%TO.N,mirror_ring_top*%
X294927045Y-128919054D03*
D13*
X296816223Y-127871867D03*
%TD*%
D11*
%TO.P,D15,1*%
%TO.N,P15*%
X173292481Y-161738433D03*
D12*
X175181660Y-162785622D03*
%TO.P,D15,2*%
%TO.N,inner_top*%
X178067906Y-164385494D03*
D13*
X179957085Y-165432683D03*
%TD*%
D11*
%TO.P,D18,1*%
%TO.N,P10*%
X145658333Y-211591752D03*
D12*
X147547512Y-212638941D03*
%TO.P,D18,2*%
%TO.N,home_thumb*%
X150433758Y-214238813D03*
D13*
X152322937Y-215286002D03*
%TD*%
D14*
%TO.P,D31,1*%
%TO.N,P6*%
X256916079Y-149988889D03*
D15*
X258805257Y-148941702D03*
%TO.P,D31,2*%
%TO.N,mirror_index_top*%
X261691503Y-147341824D03*
D13*
X263580681Y-146294637D03*
%TD*%
D11*
%TO.P,D11,1*%
%TO.N,P14*%
X149305600Y-165821264D03*
D12*
X151194779Y-166868453D03*
%TO.P,D11,2*%
%TO.N,index_home*%
X154081025Y-168468325D03*
D13*
X155970204Y-169515514D03*
%TD*%
D14*
%TO.P,D26,1*%
%TO.N,P8*%
X287350922Y-165704165D03*
D15*
X289240100Y-164656978D03*
%TO.P,D26,2*%
%TO.N,mirror_middle_bottom*%
X292126346Y-163057100D03*
D13*
X294015524Y-162009913D03*
%TD*%
D16*
%TO.P,S27,1*%
%TO.N,P19*%
X268995838Y-145533943D03*
%TO.P,S27,2*%
%TO.N,mirror_middle_home*%
X279070631Y-137045274D03*
%TD*%
D10*
%TO.P,S9,1*%
%TO.N,P19*%
X144672121Y-122046417D03*
%TO.P,S9,2*%
%TO.N,middle_top*%
X157209748Y-126092014D03*
%TD*%
D16*
%TO.P,S37,1*%
%TO.N,P1*%
X260631023Y-208824699D03*
%TO.P,S37,2*%
%TO.N,mirror_home_thumb*%
X270705816Y-200336030D03*
%TD*%
D10*
%TO.P,S17,1*%
%TO.N,P19*%
X129050058Y-189420008D03*
%TO.P,S17,2*%
%TO.N,out_thumb*%
X141587685Y-193465605D03*
%TD*%
D14*
%TO.P,D27,1*%
%TO.N,P7*%
X278139539Y-149086392D03*
D15*
X280028717Y-148039205D03*
%TO.P,D27,2*%
%TO.N,mirror_middle_home*%
X282914963Y-146439327D03*
D13*
X284804141Y-145392140D03*
%TD*%
D14*
%TO.P,D32,1*%
%TO.N,P8*%
X260563342Y-195759372D03*
D15*
X262452520Y-194712185D03*
%TO.P,D32,2*%
%TO.N,mirror_inner_bottom*%
X265338766Y-193112307D03*
D13*
X267227944Y-192065120D03*
%TD*%
D10*
%TO.P,S7,1*%
%TO.N,P19*%
X126249360Y-155281963D03*
%TO.P,S7,2*%
%TO.N,middle_bottom*%
X138786987Y-159327560D03*
%TD*%
D16*
%TO.P,S33,1*%
%TO.N,P0*%
X242208257Y-175589147D03*
%TO.P,S33,2*%
%TO.N,mirror_inner_home*%
X252283050Y-167100478D03*
%TD*%
D18*
%TO.P,S21,1*%
%TO.N,P20*%
X337377641Y-142221494D03*
%TO.P,S21,2*%
%TO.N,mirror_mid_home*%
X349862513Y-138015910D03*
%TD*%
D16*
%TO.P,S22,1*%
%TO.N,P20*%
X316048460Y-152037836D03*
%TO.P,S22,2*%
%TO.N,mirror_pinky_home*%
X326123253Y-143549167D03*
%TD*%
D11*
%TO.P,D7,1*%
%TO.N,P16*%
X128082135Y-164918774D03*
D12*
X129971314Y-165965963D03*
%TO.P,D7,2*%
%TO.N,middle_bottom*%
X132857560Y-167565835D03*
D13*
X134746739Y-168613024D03*
%TD*%
D16*
%TO.P,S25,1*%
%TO.N,P21*%
X281007921Y-128013671D03*
%TO.P,S25,2*%
%TO.N,mirror_ring_top*%
X291082714Y-119525002D03*
%TD*%
D10*
%TO.P,S6,1*%
%TO.N,P21*%
X123448657Y-121143914D03*
%TO.P,S6,2*%
%TO.N,ring_top*%
X135986284Y-125189511D03*
%TD*%
D16*
%TO.P,S24,1*%
%TO.N,P21*%
X290219301Y-144631441D03*
%TO.P,S24,2*%
%TO.N,mirror_ring_home*%
X300294094Y-136142772D03*
%TD*%
D10*
%TO.P,S10,1*%
%TO.N,P1*%
X138261444Y-172802235D03*
%TO.P,S10,2*%
%TO.N,index_bottom*%
X150799071Y-176847832D03*
%TD*%
D19*
%TO.P,D2,1*%
%TO.N,P16*%
X70660677Y-148666478D03*
D20*
X72802196Y-148948417D03*
%TO.P,D2,2*%
%TO.N,mid_home*%
X76073968Y-149379149D03*
D13*
X78215487Y-149661088D03*
%TD*%
D16*
%TO.P,S29,1*%
%TO.N,P1*%
X266195137Y-179671985D03*
%TO.P,S29,2*%
%TO.N,mirror_index_bottom*%
X276269930Y-171183316D03*
%TD*%
D14*
%TO.P,D34,1*%
%TO.N,P6*%
X242140580Y-162523824D03*
D15*
X244029758Y-161476637D03*
%TO.P,D34,2*%
%TO.N,mirror_inner_top*%
X246916004Y-159876759D03*
D13*
X248805182Y-158829572D03*
%TD*%
D14*
%TO.P,D38,1*%
%TO.N,P9*%
X254999229Y-224912082D03*
D15*
X256888407Y-223864895D03*
%TO.P,D38,2*%
%TO.N,mirror_in_thumb*%
X259774653Y-222265017D03*
D13*
X261663831Y-221217830D03*
%TD*%
D21*
%TO.P,S20,1*%
%TO.N,P20*%
X360820386Y-140905363D03*
%TO.P,S20,2*%
%TO.N,mirror_far_home*%
X373977880Y-141568137D03*
%TD*%
D11*
%TO.P,D8,1*%
%TO.N,P14*%
X137293513Y-148300998D03*
D12*
X139182692Y-149348187D03*
%TO.P,D8,2*%
%TO.N,middle_home*%
X142068938Y-150948059D03*
D13*
X143958117Y-151995248D03*
%TD*%
D16*
%TO.P,S34,1*%
%TO.N,P0*%
X232996873Y-158971374D03*
%TO.P,S34,2*%
%TO.N,mirror_inner_top*%
X243071666Y-150482705D03*
%TD*%
D10*
%TO.P,S4,1*%
%TO.N,P21*%
X105025890Y-154379466D03*
%TO.P,S4,2*%
%TO.N,ring_bottom*%
X117563517Y-158425063D03*
%TD*%
D11*
%TO.P,D6,1*%
%TO.N,P15*%
X125281435Y-130780731D03*
D12*
X127170614Y-131827920D03*
%TO.P,D6,2*%
%TO.N,ring_top*%
X130056860Y-133427792D03*
D13*
X131946039Y-134474981D03*
%TD*%
D11*
%TO.P,D3,1*%
%TO.N,P14*%
X90240895Y-154804896D03*
D12*
X92130074Y-155852085D03*
%TO.P,D3,2*%
%TO.N,pinky_home*%
X95016320Y-157451957D03*
D13*
X96905499Y-158499146D03*
%TD*%
D16*
%TO.P,S32,1*%
%TO.N,P0*%
X251419641Y-192206920D03*
%TO.P,S32,2*%
%TO.N,mirror_inner_bottom*%
X261494434Y-183718251D03*
%TD*%
D10*
%TO.P,S16,1*%
%TO.N,P20*%
X102225194Y-120241422D03*
%TO.P,S16,2*%
%TO.N,ring_midtop*%
X114762821Y-124287019D03*
%TD*%
D14*
%TO.P,D36,1*%
%TO.N,P9*%
X284550224Y-199842213D03*
D15*
X286439402Y-198795026D03*
%TO.P,D36,2*%
%TO.N,mirror_out_thumb*%
X289325648Y-197195148D03*
D13*
X291214826Y-196147961D03*
%TD*%
D11*
%TO.P,D9,1*%
%TO.N,P15*%
X146504902Y-131683224D03*
D12*
X148394081Y-132730413D03*
%TO.P,D9,2*%
%TO.N,middle_top*%
X151280327Y-134330285D03*
D13*
X153169506Y-135377474D03*
%TD*%
D16*
%TO.P,S28,1*%
%TO.N,P19*%
X259784455Y-128916168D03*
%TO.P,S28,2*%
%TO.N,mirror_middle_top*%
X269859248Y-120427499D03*
%TD*%
D11*
%TO.P,D12,1*%
%TO.N,P15*%
X158516981Y-149203489D03*
D12*
X160406160Y-150250678D03*
%TO.P,D12,2*%
%TO.N,index_top*%
X163292406Y-151850550D03*
D13*
X165181585Y-152897739D03*
%TD*%
D11*
%TO.P,D16,1*%
%TO.N,P15*%
X104057969Y-129878234D03*
D12*
X105947148Y-130925423D03*
%TO.P,D16,2*%
%TO.N,ring_midtop*%
X108833394Y-132525295D03*
D13*
X110722573Y-133572484D03*
%TD*%
D11*
%TO.P,D13,1*%
%TO.N,P16*%
X154869716Y-194973975D03*
D12*
X156758895Y-196021164D03*
%TO.P,D13,2*%
%TO.N,inner_bottom*%
X159645141Y-197621036D03*
D13*
X161534320Y-198668225D03*
%TD*%
D14*
%TO.P,D24,1*%
%TO.N,P7*%
X299363006Y-148183896D03*
D15*
X301252184Y-147136709D03*
%TO.P,D24,2*%
%TO.N,mirror_ring_home*%
X304138430Y-145536831D03*
D13*
X306027608Y-144489644D03*
%TD*%
D16*
%TO.P,S26,1*%
%TO.N,P19*%
X278207222Y-162151714D03*
%TO.P,S26,2*%
%TO.N,mirror_middle_bottom*%
X288282015Y-153663045D03*
%TD*%
D10*
%TO.P,S19,1*%
%TO.N,P0*%
X158601058Y-214489884D03*
%TO.P,S19,2*%
%TO.N,in_thumb*%
X171138685Y-218535481D03*
%TD*%
D14*
%TO.P,D28,1*%
%TO.N,P6*%
X268928157Y-132468618D03*
D15*
X270817335Y-131421431D03*
%TO.P,D28,2*%
%TO.N,mirror_middle_top*%
X273703581Y-129821553D03*
D13*
X275592759Y-128774366D03*
%TD*%
D16*
%TO.P,S30,1*%
%TO.N,P1*%
X256983756Y-163054210D03*
%TO.P,S30,2*%
%TO.N,mirror_index_home*%
X267058549Y-154565541D03*
%TD*%
D22*
%TO.P,D1,1*%
%TO.N,P10*%
X50193164Y-150131367D03*
D23*
X52289001Y-149608815D03*
%TO.P,D1,2*%
%TO.N,far_home*%
X55490981Y-148810475D03*
D13*
X57586818Y-148287923D03*
%TD*%
D14*
%TO.P,D35,1*%
%TO.N,P6*%
X311375089Y-130663627D03*
D15*
X313264267Y-129616440D03*
%TO.P,D35,2*%
%TO.N,mirror_ring_midtop*%
X316150513Y-128016562D03*
D13*
X318039691Y-126969375D03*
%TD*%
D16*
%TO.P,S35,1*%
%TO.N,P20*%
X302231388Y-127111169D03*
%TO.P,S35,2*%
%TO.N,mirror_ring_midtop*%
X312306181Y-118622500D03*
%TD*%
D10*
%TO.P,S15,1*%
%TO.N,P0*%
X171459704Y-152101620D03*
%TO.P,S15,2*%
%TO.N,inner_top*%
X183997331Y-156147217D03*
%TD*%
D24*
%TO.P,MCU1,1*%
%TO.N,RAW*%
X221423463Y-178386551D03*
D25*
%TO.P,MCU1,2*%
%TO.N,GND*%
X222654880Y-180608086D03*
%TO.P,MCU1,3*%
%TO.N,RST*%
X223886295Y-182829619D03*
%TO.P,MCU1,4*%
%TO.N,VCC*%
X225117714Y-185051154D03*
%TO.P,MCU1,5*%
%TO.N,P21*%
X226349129Y-187272685D03*
%TO.P,MCU1,6*%
%TO.N,P20*%
X227580546Y-189494220D03*
%TO.P,MCU1,7*%
%TO.N,P19*%
X228811962Y-191715754D03*
%TO.P,MCU1,8*%
%TO.N,P18*%
X230043378Y-193937289D03*
%TO.P,MCU1,9*%
%TO.N,P15*%
X231274795Y-196158822D03*
%TO.P,MCU1,10*%
%TO.N,P14*%
X232506210Y-198380358D03*
%TO.P,MCU1,11*%
%TO.N,P16*%
X233737628Y-200601892D03*
%TO.P,MCU1,12*%
%TO.N,P10*%
X234969044Y-202823426D03*
%TO.P,MCU1,13*%
%TO.N,P1*%
X234752668Y-170998052D03*
%TO.P,MCU1,14*%
%TO.N,P0*%
X235984084Y-173219586D03*
%TO.P,MCU1,15*%
%TO.N,GND*%
X237215502Y-175441120D03*
%TO.P,MCU1,16*%
X238446917Y-177662656D03*
%TO.P,MCU1,17*%
%TO.N,P2*%
X239678334Y-179884189D03*
%TO.P,MCU1,18*%
%TO.N,P3*%
X240909750Y-182105724D03*
%TO.P,MCU1,19*%
%TO.N,P4*%
X242141166Y-184327258D03*
%TO.P,MCU1,20*%
%TO.N,P5*%
X243372583Y-186548793D03*
%TO.P,MCU1,21*%
%TO.N,P6*%
X244603998Y-188770324D03*
%TO.P,MCU1,22*%
%TO.N,P7*%
X245835417Y-190991859D03*
%TO.P,MCU1,23*%
%TO.N,P8*%
X247066832Y-193213392D03*
%TO.P,MCU1,24*%
%TO.N,P9*%
X248298249Y-195434927D03*
%TD*%
D26*
%TO.P,S2,1*%
%TO.N,P20*%
X65423528Y-140371936D03*
%TO.P,S2,2*%
%TO.N,mid_home*%
X78571473Y-139540979D03*
%TD*%
D11*
%TO.P,D10,1*%
%TO.N,P16*%
X140094219Y-182439047D03*
D12*
X141983398Y-183486236D03*
%TO.P,D10,2*%
%TO.N,index_bottom*%
X144869644Y-185086108D03*
D13*
X146758823Y-186133297D03*
%TD*%
D27*
%TO.P,D21,1*%
%TO.N,P8*%
X344583123Y-148877932D03*
D28*
X346724641Y-148595994D03*
%TO.P,D21,2*%
%TO.N,mirror_mid_home*%
X349996415Y-148165260D03*
D13*
X352137933Y-147883322D03*
%TD*%
D16*
%TO.P,S38,1*%
%TO.N,P0*%
X245855529Y-221359634D03*
%TO.P,S38,2*%
%TO.N,mirror_in_thumb*%
X255930322Y-212870965D03*
%TD*%
D10*
%TO.P,S8,1*%
%TO.N,P19*%
X135460740Y-138664187D03*
%TO.P,S8,2*%
%TO.N,middle_home*%
X147998367Y-142709784D03*
%TD*%
D16*
%TO.P,S31,1*%
%TO.N,P1*%
X247772370Y-146436436D03*
%TO.P,S31,2*%
%TO.N,mirror_index_top*%
X257847163Y-137947767D03*
%TD*%
D11*
%TO.P,D4,1*%
%TO.N,P16*%
X106858669Y-164016275D03*
D12*
X108747848Y-165063464D03*
%TO.P,D4,2*%
%TO.N,ring_bottom*%
X111634094Y-166663336D03*
D13*
X113523273Y-167710525D03*
%TD*%
D14*
%TO.P,D29,1*%
%TO.N,P8*%
X275338843Y-183224439D03*
D15*
X277228021Y-182177252D03*
%TO.P,D29,2*%
%TO.N,mirror_index_bottom*%
X280114267Y-180577374D03*
D13*
X282003445Y-179530187D03*
%TD*%
D14*
%TO.P,D37,1*%
%TO.N,P9*%
X269774728Y-212377146D03*
D15*
X271663906Y-211329959D03*
%TO.P,D37,2*%
%TO.N,mirror_home_thumb*%
X274550152Y-209730081D03*
D13*
X276439330Y-208682894D03*
%TD*%
D10*
%TO.P,S18,1*%
%TO.N,P1*%
X143825554Y-201954943D03*
%TO.P,S18,2*%
%TO.N,home_thumb*%
X156363181Y-206000540D03*
%TD*%
D11*
%TO.P,D14,1*%
%TO.N,P14*%
X164081096Y-178356202D03*
D12*
X165970275Y-179403391D03*
%TO.P,D14,2*%
%TO.N,inner_home*%
X168856521Y-181003263D03*
D13*
X170745700Y-182050452D03*
%TD*%
D29*
%TO.P,D20,1*%
%TO.N,P9*%
X365084899Y-149739452D03*
D30*
X367180737Y-150262004D03*
%TO.P,D20,2*%
%TO.N,mirror_far_home*%
X370382715Y-151060344D03*
D13*
X372478553Y-151582896D03*
%TD*%
D14*
%TO.P,D30,1*%
%TO.N,P7*%
X266127457Y-166606664D03*
D15*
X268016635Y-165559477D03*
%TO.P,D30,2*%
%TO.N,mirror_index_home*%
X270902881Y-163959599D03*
D13*
X272792059Y-162912412D03*
%TD*%
D16*
%TO.P,S36,1*%
%TO.N,P19*%
X275406520Y-196289758D03*
%TO.P,S36,2*%
%TO.N,mirror_out_thumb*%
X285481313Y-187801089D03*
%TD*%
D31*
%TO.N,P20*%
X243468733Y-166796782D03*
X227930943Y-199064595D03*
X305732255Y-133426903D03*
X241175722Y-167610475D03*
X105530944Y-151264594D03*
%TO.N,P21*%
X243489698Y-165184465D03*
X226930944Y-197064593D03*
X283557090Y-132684558D03*
X115118455Y-136171992D03*
X241021763Y-166095122D03*
%TO.N,P19*%
X228930944Y-201064594D03*
X271101543Y-197671169D03*
X132471918Y-186309160D03*
%TO.N,P1*%
X164268830Y-162773728D03*
X165029450Y-165939398D03*
X237871167Y-169899561D03*
X239814331Y-169279791D03*
%TO.N,P9*%
X283563693Y-166524182D03*
X285651630Y-170290920D03*
%TD*%
D32*
%TO.N,P20*%
X102557340Y-146631487D02*
X105530944Y-151264594D01*
X69289678Y-135279713D02*
X82462048Y-137093180D01*
X316048460Y-152037838D02*
X316508355Y-147576643D01*
X227130944Y-190664595D02*
X227580545Y-189494220D01*
X89811692Y-142635972D02*
X88408121Y-145168083D01*
X340858819Y-137051681D02*
X351584219Y-134536558D01*
X99822783Y-130938105D02*
X103146338Y-132780381D01*
X56934930Y-135291490D02*
X65423527Y-140371936D01*
X327686451Y-138865146D02*
X337377641Y-142221492D01*
X102225197Y-120241421D02*
X98620353Y-126744731D01*
X337377641Y-142221492D02*
X340858819Y-137051681D01*
X227580545Y-189494220D02*
X227530944Y-189543820D01*
X103146338Y-132780381D02*
X102557340Y-146631487D01*
X93461297Y-141589466D02*
X89811692Y-142635972D01*
X45903569Y-137866197D02*
X56934930Y-135291490D01*
X227930943Y-199064595D02*
X227130944Y-190664595D01*
X65423527Y-140371936D02*
X69289678Y-135279713D01*
X351584219Y-134536558D02*
X360820387Y-140905364D01*
X82462048Y-137093180D02*
X88408121Y-145168083D01*
X243468733Y-166796782D02*
X241175722Y-167610475D01*
X316508355Y-147576643D02*
X327686451Y-138865146D01*
X305732255Y-133426903D02*
X316048461Y-152037829D01*
X102557340Y-146631487D02*
X93461297Y-141589466D01*
X98620353Y-126744731D02*
X99822783Y-130938105D01*
X42280463Y-144333393D02*
X45903569Y-137866197D01*
X302231387Y-127111169D02*
X305732255Y-133426903D01*
X316048461Y-152037829D02*
X316048457Y-152037838D01*
%TO.N,far_home*%
X55178915Y-139301505D02*
X57586821Y-148287922D01*
X54208999Y-138741517D02*
X55178915Y-139301505D01*
X57586821Y-148287922D02*
X55537150Y-148837130D01*
X55537150Y-148837130D02*
X55490982Y-148810474D01*
%TO.N,mid_home*%
X76090378Y-149400158D02*
X76073968Y-149379160D01*
X79337665Y-140521661D02*
X78215489Y-149661095D01*
X78215489Y-149661095D02*
X76090378Y-149400158D01*
X78571469Y-139540976D02*
X79337665Y-140521661D01*
%TO.N,pinky_home*%
X96905499Y-158499154D02*
X95016322Y-157451957D01*
X95016322Y-157451957D02*
X95016315Y-157451959D01*
X101323083Y-150529613D02*
X96905499Y-158499154D01*
X100945744Y-149213677D02*
X101323083Y-150529613D01*
%TO.N,P21*%
X115294041Y-135855230D02*
X105025892Y-154379462D01*
X105025892Y-154379462D02*
X105025893Y-154379460D01*
X226930944Y-197064593D02*
X225330944Y-188064593D01*
X241021763Y-166095122D02*
X243489698Y-165184465D01*
X281007921Y-128013674D02*
X283570709Y-132637062D01*
X283570709Y-132637062D02*
X283557090Y-132684558D01*
X225330944Y-188064593D02*
X226349128Y-187272685D01*
X123448658Y-121143912D02*
X115294041Y-135855230D01*
X283557090Y-132684558D02*
X283604586Y-132698178D01*
X283604586Y-132698178D02*
X299430686Y-161249218D01*
%TO.N,ring_bottom*%
X117940854Y-159740995D02*
X113523272Y-167710529D01*
X117563521Y-158425064D02*
X117940854Y-159740995D01*
X111634092Y-166663338D02*
X111634092Y-166663335D01*
X113523272Y-167710529D02*
X111634092Y-166663338D01*
%TO.N,ring_home*%
X127152238Y-143123216D02*
X122734656Y-151092752D01*
X120845475Y-150045564D02*
X122734656Y-151092752D01*
X126774905Y-141807291D02*
X127152238Y-143123216D01*
%TO.N,ring_top*%
X135986284Y-125189516D02*
X136363623Y-126505445D01*
X131946036Y-134474981D02*
X130056858Y-133427786D01*
X136363623Y-126505445D02*
X131946036Y-134474981D01*
X130056858Y-133427786D02*
X130056858Y-133427790D01*
%TO.N,P19*%
X228811962Y-200945611D02*
X228930944Y-201064594D01*
X126249362Y-155281961D02*
X123048328Y-163706599D01*
X278207221Y-162151713D02*
X278207221Y-162151713D01*
X228811962Y-191715756D02*
X228811962Y-200945611D01*
X144672121Y-122046414D02*
X126249359Y-155281958D01*
X276235261Y-192081451D02*
X275406519Y-196289758D01*
X132471918Y-186309160D02*
X135897698Y-173115828D01*
X129899116Y-187398411D02*
X132471918Y-186309160D01*
X259784457Y-128916166D02*
X278207221Y-162151713D01*
X275406519Y-196289758D02*
X271101543Y-197671169D01*
X284696462Y-180531209D02*
X276235261Y-192081451D01*
X281302793Y-174408871D02*
X284696462Y-180531209D01*
X129899116Y-187398411D02*
X129050061Y-189420009D01*
X126249359Y-155281958D02*
X126249362Y-155281961D01*
X123048328Y-163706599D02*
X135897698Y-173115828D01*
X278207222Y-162151714D02*
X281302793Y-174408871D01*
%TO.N,middle_bottom*%
X134746739Y-168613025D02*
X132857560Y-167565836D01*
X138786988Y-159327563D02*
X139164321Y-160643490D01*
X139164321Y-160643490D02*
X134746739Y-168613025D01*
X132857560Y-167565836D02*
X132857560Y-167565836D01*
%TO.N,middle_home*%
X142068944Y-150948057D02*
X142068944Y-150948057D01*
X143958118Y-151995245D02*
X142068944Y-150948057D01*
X148375705Y-144025715D02*
X143958118Y-151995245D01*
X147998365Y-142709782D02*
X148375705Y-144025715D01*
%TO.N,middle_top*%
X153169501Y-135377478D02*
X151280328Y-134330286D01*
X157209749Y-126092012D02*
X157587090Y-127407941D01*
X151280328Y-134330286D02*
X151280328Y-134330281D01*
X157587090Y-127407941D02*
X153169501Y-135377478D01*
%TO.N,P1*%
X166369880Y-165996397D02*
X165029450Y-165939398D01*
X156684203Y-139566679D02*
X153765532Y-144832102D01*
X239814331Y-169279791D02*
X256983757Y-163054209D01*
X144463709Y-192727646D02*
X135865586Y-180186823D01*
X138261440Y-172802219D02*
X138261444Y-172802235D01*
X143825554Y-201954941D02*
X144463709Y-192727646D01*
X237871167Y-169899561D02*
X234752665Y-170998052D01*
X247772370Y-146436436D02*
X266195136Y-179671985D01*
X261265841Y-204266541D02*
X260631022Y-208824697D01*
X266195136Y-179671985D02*
X269996964Y-194853387D01*
X135865586Y-180186823D02*
X138261444Y-172802235D01*
X153765532Y-144832102D02*
X164268830Y-162773728D01*
X153765532Y-144832102D02*
X138261440Y-172802219D01*
X269996964Y-194853387D02*
X261265841Y-204266541D01*
X234752665Y-170998052D02*
X166369880Y-165996397D01*
X266195136Y-179671985D02*
X266195138Y-179671984D01*
%TO.N,index_bottom*%
X150799070Y-176847831D02*
X151176406Y-178163765D01*
X144869644Y-185086102D02*
X144869644Y-185086102D01*
X146758823Y-186133298D02*
X144869644Y-185086102D01*
X151176406Y-178163765D02*
X146758823Y-186133298D01*
%TO.N,index_home*%
X154081025Y-168468328D02*
X154081023Y-168468329D01*
X160387791Y-161545982D02*
X155970204Y-169515516D01*
X160010456Y-160230059D02*
X160387791Y-161545982D01*
X155970204Y-169515516D02*
X154081025Y-168468328D01*
%TO.N,index_top*%
X169221835Y-143612281D02*
X169599169Y-144928209D01*
X163292410Y-151850552D02*
X163292407Y-151850552D01*
X169599169Y-144928209D02*
X165181586Y-152897741D01*
X165181586Y-152897741D02*
X163292410Y-151850552D01*
%TO.N,P0*%
X150369200Y-192799724D02*
X153036940Y-185337166D01*
X232996874Y-158971375D02*
X251419636Y-192206921D01*
X245855529Y-221359635D02*
X247482887Y-214879280D01*
X158967322Y-205340549D02*
X150369200Y-192799724D01*
X251419641Y-192206920D02*
X257902325Y-207274323D01*
X171459706Y-152101620D02*
X163402054Y-166638015D01*
X235984083Y-173219589D02*
X163402054Y-166638015D01*
X163402054Y-166638015D02*
X153036940Y-185337166D01*
X158601061Y-214489882D02*
X158967322Y-205340549D01*
X257902325Y-207274323D02*
X247482887Y-214879280D01*
X171459706Y-152101616D02*
X171459706Y-152101620D01*
X242208256Y-175589148D02*
X235984083Y-173219589D01*
%TO.N,inner_bottom*%
X165574569Y-189382766D02*
X165951901Y-190698698D01*
X161534320Y-198668235D02*
X159645143Y-197621040D01*
X159645143Y-197621040D02*
X159645141Y-197621039D01*
X165951901Y-190698698D02*
X161534320Y-198668235D01*
%TO.N,inner_home*%
X168856520Y-181003266D02*
X168856521Y-181003264D01*
X175163286Y-174080923D02*
X170745698Y-182050455D01*
X170745698Y-182050455D02*
X168856520Y-181003266D01*
X174785948Y-172764989D02*
X175163286Y-174080923D01*
%TO.N,inner_top*%
X184374664Y-157463146D02*
X179957081Y-165432686D01*
X179957081Y-165432686D02*
X178067903Y-164385493D01*
X178067903Y-164385493D02*
X178067905Y-164385489D01*
X183997335Y-156147217D02*
X184374664Y-157463146D01*
%TO.N,ring_midtop*%
X108833390Y-132525293D02*
X108833391Y-132525293D01*
X110722572Y-133572483D02*
X108833390Y-132525293D01*
X115140158Y-125602945D02*
X110722572Y-133572483D01*
X114762819Y-124287021D02*
X115140158Y-125602945D01*
%TO.N,out_thumb*%
X135658262Y-201703881D02*
X135658260Y-201703877D01*
X141965023Y-194781533D02*
X137547441Y-202751064D01*
X137547441Y-202751064D02*
X135658262Y-201703881D01*
X141587683Y-193465605D02*
X141965023Y-194781533D01*
%TO.N,home_thumb*%
X156740521Y-207316472D02*
X152322939Y-215286006D01*
X156363185Y-206000543D02*
X156740521Y-207316472D01*
X150433755Y-214238818D02*
X150433756Y-214238822D01*
X152322939Y-215286006D02*
X150433755Y-214238818D01*
%TO.N,in_thumb*%
X171516019Y-219851409D02*
X167098432Y-227820946D01*
X167098432Y-227820946D02*
X165209256Y-226773753D01*
X165209256Y-226773753D02*
X165209258Y-226773753D01*
X171138678Y-218535482D02*
X171516019Y-219851409D01*
%TO.N,mirror_far_home*%
X374786651Y-142968966D02*
X372478553Y-151582895D01*
X370428887Y-151033690D02*
X370382717Y-151060343D01*
X373977881Y-141568137D02*
X374786651Y-142968966D01*
X372478553Y-151582895D02*
X370428887Y-151033690D01*
%TO.N,mirror_mid_home*%
X349862512Y-138015908D02*
X351039250Y-138935277D01*
X350012828Y-148144252D02*
X349996414Y-148165262D01*
X351039250Y-138935277D02*
X352137932Y-147883321D01*
X352137932Y-147883321D02*
X350012828Y-148144252D01*
%TO.N,mirror_pinky_home*%
X329967582Y-152943223D02*
X331856761Y-151896036D01*
X327439182Y-143926500D02*
X331856769Y-151896033D01*
X326123254Y-143549164D02*
X327439182Y-143926500D01*
%TO.N,mirror_ring_bottom*%
X309505479Y-152760546D02*
X309513451Y-152756127D01*
X313349811Y-162154604D02*
X315238988Y-161107418D01*
X309505479Y-152760546D02*
X310821403Y-153137883D01*
X309513451Y-152756127D02*
X310966436Y-153172762D01*
X310821403Y-153137883D02*
X315238994Y-161107420D01*
%TO.N,mirror_ring_home*%
X301610021Y-136520110D02*
X306027611Y-144489650D01*
X300294097Y-136142773D02*
X301610021Y-136520110D01*
X304138426Y-145536832D02*
X304138430Y-145536834D01*
X306027611Y-144489650D02*
X304138426Y-145536832D01*
%TO.N,mirror_ring_top*%
X291082710Y-119524998D02*
X292398645Y-119902337D01*
X296816222Y-127871874D02*
X294927049Y-128919060D01*
X292398645Y-119902337D02*
X296816222Y-127871874D01*
X294927049Y-128919060D02*
X294927049Y-128919061D01*
%TO.N,mirror_middle_bottom*%
X288282014Y-153663046D02*
X289597943Y-154040384D01*
X292126346Y-163057102D02*
X292126345Y-163057109D01*
X289597943Y-154040384D02*
X294015528Y-162009917D01*
X294015528Y-162009917D02*
X292126346Y-163057102D01*
%TO.N,mirror_middle_home*%
X284804145Y-145392140D02*
X282914963Y-146439328D01*
X280386558Y-137422605D02*
X284804145Y-145392140D01*
X282914963Y-146439328D02*
X282914963Y-146439328D01*
X279070628Y-137045268D02*
X280386558Y-137422605D01*
%TO.N,mirror_middle_top*%
X273703582Y-129821552D02*
X273703582Y-129821552D01*
X275592757Y-128774366D02*
X273703582Y-129821552D01*
X269859252Y-120427495D02*
X271175177Y-120804834D01*
X271175177Y-120804834D02*
X275592757Y-128774366D01*
%TO.N,mirror_index_bottom*%
X276269930Y-171183320D02*
X277585861Y-171560648D01*
X282003448Y-179530182D02*
X280114265Y-180577372D01*
X277585861Y-171560648D02*
X282003448Y-179530182D01*
X280114265Y-180577372D02*
X280114269Y-180577373D01*
%TO.N,mirror_index_home*%
X272792061Y-162912410D02*
X270902876Y-163959601D01*
X268374475Y-154942871D02*
X272792061Y-162912410D01*
X270902876Y-163959601D02*
X270902876Y-163959601D01*
X267058548Y-154565538D02*
X268374475Y-154942871D01*
%TO.N,mirror_index_top*%
X261691495Y-147341823D02*
X261691499Y-147341830D01*
X259163096Y-138325104D02*
X263580679Y-146294631D01*
X257847165Y-137947766D02*
X259163096Y-138325104D01*
X263580679Y-146294631D02*
X261691495Y-147341823D01*
%TO.N,mirror_inner_bottom*%
X261494432Y-183718246D02*
X262810364Y-184095584D01*
X265338769Y-193112311D02*
X265338764Y-193112313D01*
X267227946Y-192065123D02*
X265338769Y-193112311D01*
X262810364Y-184095584D02*
X267227946Y-192065123D01*
%TO.N,mirror_inner_home*%
X256127387Y-176494534D02*
X256127382Y-176494540D01*
X252283049Y-167100477D02*
X253598976Y-167477815D01*
X253598976Y-167477815D02*
X258016564Y-175447349D01*
X258016564Y-175447349D02*
X256127387Y-176494534D01*
%TO.N,mirror_inner_top*%
X246916001Y-159876759D02*
X246916000Y-159876764D01*
X243071671Y-150482709D02*
X244387594Y-150860042D01*
X244387594Y-150860042D02*
X248805180Y-158829574D01*
X248805180Y-158829574D02*
X246916001Y-159876759D01*
%TO.N,mirror_ring_midtop*%
X312306182Y-118622506D02*
X313622109Y-118999841D01*
X318039693Y-126969377D02*
X318039692Y-126969377D01*
X318039692Y-126969377D02*
X316150514Y-128016565D01*
X313622109Y-118999841D02*
X318039693Y-126969377D01*
%TO.N,mirror_out_thumb*%
X291214827Y-196147958D02*
X289325642Y-197195149D01*
X289325642Y-197195149D02*
X289325648Y-197195154D01*
X285481310Y-187801084D02*
X286797241Y-188178423D01*
X286797241Y-188178423D02*
X291214827Y-196147958D01*
%TO.N,mirror_home_thumb*%
X274550146Y-209730082D02*
X274550148Y-209730086D01*
X270705814Y-200336031D02*
X272021746Y-200713361D01*
X276439327Y-208682896D02*
X274550146Y-209730082D01*
X272021746Y-200713361D02*
X276439327Y-208682896D01*
%TO.N,mirror_in_thumb*%
X259774650Y-222265022D02*
X259774650Y-222265022D01*
X257246244Y-213248302D02*
X261663827Y-221217836D01*
X255930316Y-212870969D02*
X257246244Y-213248302D01*
X261663827Y-221217836D02*
X259774650Y-222265022D01*
%TO.N,P10*%
X147547509Y-212638943D02*
X145658332Y-211591756D01*
X145658332Y-211591756D02*
X145658332Y-211591756D01*
X50239331Y-150158023D02*
X50193165Y-150131368D01*
X162323009Y-225173881D02*
X160433831Y-224126694D01*
X130882833Y-199056818D02*
X130882833Y-199056818D01*
X52289001Y-149608811D02*
X50239331Y-150158023D01*
X132772012Y-200104009D02*
X130882833Y-199056818D01*
X160433831Y-224126694D02*
X160433828Y-224126691D01*
%TO.N,P16*%
X70677091Y-148687489D02*
X70660674Y-148666482D01*
X108747846Y-165063468D02*
X106858665Y-164016277D01*
X72802194Y-148948415D02*
X70677091Y-148687489D01*
X154869716Y-194973978D02*
X154869716Y-194973978D01*
X129971318Y-165965961D02*
X128082137Y-164918774D01*
X140094221Y-182439049D02*
X140094217Y-182439043D01*
X128082137Y-164918774D02*
X128082132Y-164918775D01*
X141983397Y-183486234D02*
X140094221Y-182439049D01*
X106858665Y-164016277D02*
X106858669Y-164016279D01*
X156758896Y-196021169D02*
X154869716Y-194973978D01*
%TO.N,P14*%
X164081097Y-178356205D02*
X164081095Y-178356203D01*
X117959230Y-148445691D02*
X116070050Y-147398503D01*
X165970274Y-179403399D02*
X164081097Y-178356205D01*
X149305601Y-165821266D02*
X149305601Y-165821266D01*
X92130073Y-155852082D02*
X90240891Y-154804898D01*
X151194780Y-166868457D02*
X149305601Y-165821266D01*
X139182697Y-149348181D02*
X137293521Y-148300999D01*
X137293521Y-148300999D02*
X137293517Y-148300994D01*
X90240891Y-154804898D02*
X90240891Y-154804891D01*
%TO.N,P15*%
X146504901Y-131683226D02*
X146504900Y-131683220D01*
X175181659Y-162785623D02*
X173292480Y-161738431D01*
X127170609Y-131827919D02*
X125281434Y-130780726D01*
X160406159Y-150250682D02*
X158516980Y-149203489D01*
X104057969Y-129878233D02*
X104057969Y-129878233D01*
X148394081Y-132730409D02*
X146504901Y-131683226D01*
X125281434Y-130780726D02*
X125281434Y-130780726D01*
X105947149Y-130925420D02*
X104057969Y-129878233D01*
X173292480Y-161738431D02*
X173292477Y-161738434D01*
X158516980Y-149203489D02*
X158516980Y-149203489D01*
%TO.N,P9*%
X284550224Y-199842208D02*
X284550227Y-199842210D01*
X286439398Y-198795021D02*
X284550224Y-199842208D01*
X367180736Y-150262006D02*
X365131065Y-149712798D01*
X269774726Y-212377146D02*
X269774728Y-212377152D01*
X254999221Y-224912083D02*
X254999226Y-224912088D01*
X256888407Y-223864896D02*
X254999221Y-224912083D01*
X365131065Y-149712798D02*
X365084899Y-149739451D01*
X271663899Y-211329959D02*
X269774726Y-212377146D01*
X283563693Y-166524182D02*
X285651630Y-170290920D01*
%TO.N,P8*%
X277228020Y-182177246D02*
X275338842Y-183224434D01*
X260563347Y-195759371D02*
X260563339Y-195759371D01*
X262452519Y-194712185D02*
X260563347Y-195759371D01*
X346724645Y-148595994D02*
X344599537Y-148856925D01*
X310463565Y-163754484D02*
X308574386Y-164801670D01*
X344583122Y-148877933D02*
X346724640Y-148595990D01*
X275338842Y-183224434D02*
X275338841Y-183224435D01*
X287350926Y-165704165D02*
X287350923Y-165704165D01*
X344599537Y-148856925D02*
X344583125Y-148877934D01*
X289240103Y-164656981D02*
X287350926Y-165704165D01*
%TO.N,P7*%
X327081338Y-154543103D02*
X325192158Y-155590287D01*
X266127457Y-166606659D02*
X266127456Y-166606663D01*
X253241137Y-178094407D02*
X251351957Y-179141599D01*
X278139541Y-149086392D02*
X278139542Y-149086393D01*
X299363004Y-148183895D02*
X301252182Y-147136708D01*
X268016638Y-165559473D02*
X266127457Y-166606659D01*
X251351957Y-179141599D02*
X251351957Y-179141599D01*
X301252182Y-147136708D02*
X301252182Y-147136708D01*
X280028715Y-148039203D02*
X278139541Y-149086392D01*
%TO.N,P6*%
X290151621Y-131566116D02*
X290151624Y-131566121D01*
X311375089Y-130663624D02*
X311375089Y-130663627D01*
X270817335Y-131421427D02*
X268928159Y-132468612D01*
X242140579Y-162523822D02*
X242140579Y-162523822D01*
X268928159Y-132468612D02*
X268928160Y-132468619D01*
X258805250Y-148941693D02*
X256916072Y-149988884D01*
X292040804Y-130518927D02*
X290151621Y-131566116D01*
X244029752Y-161476635D02*
X242140579Y-162523822D01*
X256916072Y-149988884D02*
X256916072Y-149988889D01*
X313264268Y-129616438D02*
X311375089Y-130663624D01*
%TD*%
M02*
