0
SECTION
2
HEADER
9
$INSUNITS
70
4
0
ENDSEC
0
SECTION
2
TABLES
0
TABLE
2
LTYPE
0
LTYPE
72
65
70
64
2
CONTINUOUS
3
______
73
0
40
0
0
ENDTAB
0
TABLE
2
LAYER
0
ENDTAB
0
ENDSEC
0
SECTION
2
ENTITIES
0
LINE
8
0
10
42.7000222
20
-134.8284396
11
58.5930789
21
-143.2789277
0
LINE
8
0
10
58.5930789
20
-143.2789277
11
67.043567
21
-127.385871
0
LINE
8
0
10
67.043567
20
-127.385871
11
51.1505103
21
-118.9353829
0
LINE
8
0
10
51.1505103
20
-118.9353829
11
42.7000222
21
-134.8284396
0
LINE
8
0
10
61.1740588
20
-160.7903823
11
77.0671155
21
-169.2408704
0
LINE
8
0
10
77.0671155
20
-169.2408704
11
85.5176036
21
-153.3478137
0
LINE
8
0
10
85.5176036
20
-153.3478137
11
69.6245469
21
-144.8973256
0
LINE
8
0
10
69.6245469
20
-144.8973256
11
61.1740588
21
-160.7903823
0
LINE
8
0
10
61.7060164
20
-139.5543982
11
77.5990731
21
-148.0048863
0
LINE
8
0
10
77.5990731
20
-148.0048863
11
86.0495612
21
-132.1118296
0
LINE
8
0
10
86.0495612
20
-132.1118296
11
70.1565045
21
-123.6613415
0
LINE
8
0
10
70.1565045
20
-123.6613415
11
61.7060164
21
-139.5543982
0
LINE
8
0
10
78.4820206
20
-148.4743579
11
94.3750773
21
-156.924846
0
LINE
8
0
10
94.3750773
20
-156.924846
11
102.8255654
21
-141.0317893
0
LINE
8
0
10
102.8255654
20
-141.0317893
11
86.9325087
21
-132.5813012
0
LINE
8
0
10
86.9325087
20
-132.5813012
11
78.4820206
21
-148.4743579
0
LINE
8
0
10
87.4019803
20
-131.6983536
11
103.295037
21
-140.1488417
0
LINE
8
0
10
103.295037
20
-140.1488417
11
111.7455251
21
-124.255785
0
LINE
8
0
10
111.7455251
20
-124.255785
11
95.8524684
21
-115.8052969
0
LINE
8
0
10
95.8524684
20
-115.8052969
11
87.4019803
21
-131.6983536
0
LINE
8
0
10
96.32194
20
-114.9223494
11
112.2149967
21
-123.3728375
0
LINE
8
0
10
112.2149967
20
-123.3728375
11
120.6654848
21
-107.4797808
0
LINE
8
0
10
120.6654848
20
-107.4797808
11
104.7724281
21
-99.0292927
0
LINE
8
0
10
104.7724281
20
-99.0292927
11
96.32194
21
-114.9223494
0
LINE
8
0
10
99.7180047
20
-149.0063154
11
115.6110614
21
-157.4568035
0
LINE
8
0
10
115.6110614
20
-157.4568035
11
124.0615495
21
-141.5637468
0
LINE
8
0
10
124.0615495
20
-141.5637468
11
108.1684928
21
-133.1132587
0
LINE
8
0
10
108.1684928
20
-133.1132587
11
99.7180047
21
-149.0063154
0
LINE
8
0
10
108.6379644
20
-132.2303112
11
124.5310211
21
-140.6807993
0
LINE
8
0
10
124.5310211
20
-140.6807993
11
132.9815092
21
-124.7877426
0
LINE
8
0
10
132.9815092
20
-124.7877426
11
117.0884525
21
-116.3372545
0
LINE
8
0
10
117.0884525
20
-116.3372545
11
108.6379644
21
-132.2303112
0
LINE
8
0
10
117.5579241
20
-115.4543069
11
133.4509808
21
-123.904795
0
LINE
8
0
10
133.4509808
20
-123.904795
11
141.9014689
21
-108.0117383
0
LINE
8
0
10
141.9014689
20
-108.0117383
11
126.0084122
21
-99.5612502
0
LINE
8
0
10
126.0084122
20
-99.5612502
11
117.5579241
21
-115.4543069
0
LINE
8
0
10
112.0340291
20
-166.3142773
11
127.9270858
21
-174.7647654
0
LINE
8
0
10
127.9270858
20
-174.7647654
11
136.3775739
21
-158.8717087
0
LINE
8
0
10
136.3775739
20
-158.8717087
11
120.4845172
21
-150.4212206
0
LINE
8
0
10
120.4845172
20
-150.4212206
11
112.0340291
21
-166.3142773
0
LINE
8
0
10
120.9539888
20
-149.538273
11
136.8470455
21
-157.9887611
0
LINE
8
0
10
136.8470455
20
-157.9887611
11
145.2975336
21
-142.0957044
0
LINE
8
0
10
145.2975336
20
-142.0957044
11
129.4044769
21
-133.6452163
0
LINE
8
0
10
129.4044769
20
-133.6452163
11
120.9539888
21
-149.538273
0
LINE
8
0
10
129.8739485
20
-132.7622687
11
145.7670052
21
-141.2127568
0
LINE
8
0
10
145.7670052
20
-141.2127568
11
154.2174933
21
-125.3197001
0
LINE
8
0
10
154.2174933
20
-125.3197001
11
138.3244366
21
-116.869212
0
LINE
8
0
10
138.3244366
20
-116.869212
11
129.8739485
21
-132.7622687
0
LINE
8
0
10
127.0260415
20
-178.5894378
11
142.9190982
21
-187.0399259
0
LINE
8
0
10
142.9190982
20
-187.0399259
11
151.3695863
21
-171.1468692
0
LINE
8
0
10
151.3695863
20
-171.1468692
11
135.4765296
21
-162.6963811
0
LINE
8
0
10
135.4765296
20
-162.6963811
11
127.0260415
21
-178.5894378
0
LINE
8
0
10
135.9460012
20
-161.8134336
11
151.8390579
21
-170.2639217
0
LINE
8
0
10
151.8390579
20
-170.2639217
11
160.289546
21
-154.370865
0
LINE
8
0
10
160.289546
20
-154.370865
11
144.3964893
21
-145.9203769
0
LINE
8
0
10
144.3964893
20
-145.9203769
11
135.9460012
21
-161.8134336
0
LINE
8
0
10
144.8659609
20
-145.0374293
11
160.7590176
21
-153.4879174
0
LINE
8
0
10
160.7590176
20
-153.4879174
11
169.2095057
21
-137.5948607
0
LINE
8
0
10
169.2095057
20
-137.5948607
11
153.316449
21
-129.1443726
0
LINE
8
0
10
153.316449
20
-129.1443726
11
144.8659609
21
-145.0374293
0
LINE
8
0
10
75.0859559
20
-114.3903918
11
90.9790126
21
-122.8408799
0
LINE
8
0
10
90.9790126
20
-122.8408799
11
99.4295007
21
-106.9478232
0
LINE
8
0
10
99.4295007
20
-106.9478232
11
83.536444
21
-98.4973351
0
LINE
8
0
10
83.536444
20
-98.4973351
11
75.0859559
21
-114.3903918
0
LINE
8
0
10
103.1140695
20
-183.0902815
11
119.0071262
21
-191.5407696
0
LINE
8
0
10
119.0071262
20
-191.5407696
11
127.4576143
21
-175.6477129
0
LINE
8
0
10
127.4576143
20
-175.6477129
11
111.5645576
21
-167.1972248
0
LINE
8
0
10
111.5645576
20
-167.1972248
11
103.1140695
21
-183.0902815
0
LINE
8
0
10
118.1060818
20
-195.3654421
11
133.9991385
21
-203.8159302
0
LINE
8
0
10
133.9991385
20
-203.8159302
11
142.4496266
21
-187.9228735
0
LINE
8
0
10
142.4496266
20
-187.9228735
11
126.5565699
21
-179.4723854
0
LINE
8
0
10
126.5565699
20
-179.4723854
11
118.1060818
21
-195.3654421
0
LINE
8
0
10
133.0980941
20
-207.6406026
11
148.9911508
21
-216.0910907
0
LINE
8
0
10
148.9911508
20
-216.0910907
11
157.4416389
21
-200.198034
0
LINE
8
0
10
157.4416389
20
-200.198034
11
141.5485822
21
-191.7475459
0
LINE
8
0
10
141.5485822
20
-191.7475459
11
133.0980941
21
-207.6406026
0
LINE
8
0
10
319.4823877
20
-143.2789277
11
335.3754444
21
-134.8284396
0
LINE
8
0
10
335.3754444
20
-134.8284396
11
326.9249563
21
-118.9353829
0
LINE
8
0
10
326.9249563
20
-118.9353829
11
311.0318996
21
-127.385871
0
LINE
8
0
10
311.0318996
20
-127.385871
11
319.4823877
21
-143.2789277
0
LINE
8
0
10
301.0083511
20
-169.2408704
11
316.9014078
21
-160.7903823
0
LINE
8
0
10
316.9014078
20
-160.7903823
11
308.4509197
21
-144.8973256
0
LINE
8
0
10
308.4509197
20
-144.8973256
11
292.557863
21
-153.3478137
0
LINE
8
0
10
292.557863
20
-153.3478137
11
301.0083511
21
-169.2408704
0
LINE
8
0
10
300.4763935
20
-148.0048863
11
316.3694502
21
-139.5543982
0
LINE
8
0
10
316.3694502
20
-139.5543982
11
307.9189621
21
-123.6613415
0
LINE
8
0
10
307.9189621
20
-123.6613415
11
292.0259054
21
-132.1118296
0
LINE
8
0
10
292.0259054
20
-132.1118296
11
300.4763935
21
-148.0048863
0
LINE
8
0
10
283.7003893
20
-156.924846
11
299.593446
21
-148.4743579
0
LINE
8
0
10
299.593446
20
-148.4743579
11
291.1429579
21
-132.5813012
0
LINE
8
0
10
291.1429579
20
-132.5813012
11
275.2499012
21
-141.0317893
0
LINE
8
0
10
275.2499012
20
-141.0317893
11
283.7003893
21
-156.924846
0
LINE
8
0
10
274.7804296
20
-140.1488417
11
290.6734863
21
-131.6983536
0
LINE
8
0
10
290.6734863
20
-131.6983536
11
282.2229982
21
-115.8052969
0
LINE
8
0
10
282.2229982
20
-115.8052969
11
266.3299415
21
-124.255785
0
LINE
8
0
10
266.3299415
20
-124.255785
11
274.7804296
21
-140.1488417
0
LINE
8
0
10
265.8604699
20
-123.3728375
11
281.7535266
21
-114.9223494
0
LINE
8
0
10
281.7535266
20
-114.9223494
11
273.3030385
21
-99.0292927
0
LINE
8
0
10
273.3030385
20
-99.0292927
11
257.4099818
21
-107.4797808
0
LINE
8
0
10
257.4099818
20
-107.4797808
11
265.8604699
21
-123.3728375
0
LINE
8
0
10
262.4644052
20
-157.4568035
11
278.3574619
21
-149.0063154
0
LINE
8
0
10
278.3574619
20
-149.0063154
11
269.9069738
21
-133.1132587
0
LINE
8
0
10
269.9069738
20
-133.1132587
11
254.0139171
21
-141.5637468
0
LINE
8
0
10
254.0139171
20
-141.5637468
11
262.4644052
21
-157.4568035
0
LINE
8
0
10
253.5444455
20
-140.6807993
11
269.4375022
21
-132.2303112
0
LINE
8
0
10
269.4375022
20
-132.2303112
11
260.9870141
21
-116.3372545
0
LINE
8
0
10
260.9870141
20
-116.3372545
11
245.0939574
21
-124.7877426
0
LINE
8
0
10
245.0939574
20
-124.7877426
11
253.5444455
21
-140.6807993
0
LINE
8
0
10
244.6244858
20
-123.904795
11
260.5175425
21
-115.4543069
0
LINE
8
0
10
260.5175425
20
-115.4543069
11
252.0670544
21
-99.5612502
0
LINE
8
0
10
252.0670544
20
-99.5612502
11
236.1739977
21
-108.0117383
0
LINE
8
0
10
236.1739977
20
-108.0117383
11
244.6244858
21
-123.904795
0
LINE
8
0
10
250.1483808
20
-174.7647654
11
266.0414375
21
-166.3142773
0
LINE
8
0
10
266.0414375
20
-166.3142773
11
257.5909494
21
-150.4212206
0
LINE
8
0
10
257.5909494
20
-150.4212206
11
241.6978927
21
-158.8717087
0
LINE
8
0
10
241.6978927
20
-158.8717087
11
250.1483808
21
-174.7647654
0
LINE
8
0
10
241.2284211
20
-157.9887611
11
257.1214778
21
-149.538273
0
LINE
8
0
10
257.1214778
20
-149.538273
11
248.6709897
21
-133.6452163
0
LINE
8
0
10
248.6709897
20
-133.6452163
11
232.777933
21
-142.0957044
0
LINE
8
0
10
232.777933
20
-142.0957044
11
241.2284211
21
-157.9887611
0
LINE
8
0
10
232.3084614
20
-141.2127568
11
248.2015181
21
-132.7622687
0
LINE
8
0
10
248.2015181
20
-132.7622687
11
239.75103
21
-116.869212
0
LINE
8
0
10
239.75103
20
-116.869212
11
223.8579733
21
-125.3197001
0
LINE
8
0
10
223.8579733
20
-125.3197001
11
232.3084614
21
-141.2127568
0
LINE
8
0
10
235.1563684
20
-187.0399259
11
251.0494251
21
-178.5894378
0
LINE
8
0
10
251.0494251
20
-178.5894378
11
242.598937
21
-162.6963811
0
LINE
8
0
10
242.598937
20
-162.6963811
11
226.7058803
21
-171.1468692
0
LINE
8
0
10
226.7058803
20
-171.1468692
11
235.1563684
21
-187.0399259
0
LINE
8
0
10
226.2364087
20
-170.2639217
11
242.1294654
21
-161.8134336
0
LINE
8
0
10
242.1294654
20
-161.8134336
11
233.6789773
21
-145.9203769
0
LINE
8
0
10
233.6789773
20
-145.9203769
11
217.7859206
21
-154.370865
0
LINE
8
0
10
217.7859206
20
-154.370865
11
226.2364087
21
-170.2639217
0
LINE
8
0
10
217.316449
20
-153.4879174
11
233.2095057
21
-145.0374293
0
LINE
8
0
10
233.2095057
20
-145.0374293
11
224.7590176
21
-129.1443726
0
LINE
8
0
10
224.7590176
20
-129.1443726
11
208.8659609
21
-137.5948607
0
LINE
8
0
10
208.8659609
20
-137.5948607
11
217.316449
21
-153.4879174
0
LINE
8
0
10
287.096454
20
-122.8408799
11
302.9895107
21
-114.3903918
0
LINE
8
0
10
302.9895107
20
-114.3903918
11
294.5390226
21
-98.4973351
0
LINE
8
0
10
294.5390226
20
-98.4973351
11
278.6459659
21
-106.9478232
0
LINE
8
0
10
278.6459659
20
-106.9478232
11
287.096454
21
-122.8408799
0
LINE
8
0
10
259.0683404
20
-191.5407696
11
274.9613971
21
-183.0902815
0
LINE
8
0
10
274.9613971
20
-183.0902815
11
266.510909
21
-167.1972248
0
LINE
8
0
10
266.510909
20
-167.1972248
11
250.6178523
21
-175.6477129
0
LINE
8
0
10
250.6178523
20
-175.6477129
11
259.0683404
21
-191.5407696
0
LINE
8
0
10
244.0763281
20
-203.8159302
11
259.9693848
21
-195.3654421
0
LINE
8
0
10
259.9693848
20
-195.3654421
11
251.5188967
21
-179.4723854
0
LINE
8
0
10
251.5188967
20
-179.4723854
11
235.62584
21
-187.9228735
0
LINE
8
0
10
235.62584
20
-187.9228735
11
244.0763281
21
-203.8159302
0
LINE
8
0
10
229.0843158
20
-216.0910907
11
244.9773725
21
-207.6406026
0
LINE
8
0
10
244.9773725
20
-207.6406026
11
236.5268844
21
-191.7475459
0
LINE
8
0
10
236.5268844
20
-191.7475459
11
220.6338277
21
-200.198034
0
LINE
8
0
10
220.6338277
20
-200.198034
11
229.0843158
21
-216.0910907
0
ENDSEC
0
EOF