0
SECTION
2
HEADER
9
$INSUNITS
70
4
0
ENDSEC
0
SECTION
2
TABLES
0
TABLE
2
LTYPE
0
LTYPE
72
65
70
64
2
CONTINUOUS
3
______
73
0
40
0
0
ENDTAB
0
TABLE
2
LAYER
0
ENDTAB
0
ENDSEC
0
SECTION
2
ENTITIES
0
LINE
8
0
10
141.3418442
20
-191.0713363
11
169.8857153
21
-137.3881227
0
LINE
8
0
10
153.109711
20
-128.468163
11
169.8857153
21
-137.3881227
0
LINE
8
0
10
153.109711
20
-128.468163
11
154.8937029
21
-125.1129621
0
LINE
8
0
10
138.1176986
20
-116.1930024
11
154.8937029
21
-125.1129621
0
LINE
8
0
10
138.1176986
20
-116.1930024
11
142.5776785
21
-107.8050003
0
LINE
8
0
10
125.8016742
20
-98.8850406
11
142.5776785
21
-107.8050003
0
LINE
8
0
10
121.3416944
20
-107.2730428
11
125.8016742
21
-98.8850406
0
LINE
8
0
10
104.5656901
20
-98.3530831
11
121.3416944
21
-107.2730428
0
LINE
8
0
10
100.1057103
20
-106.7410852
11
104.5656901
21
-98.3530831
0
LINE
8
0
10
83.329706
20
-97.8211255
11
100.1057103
21
-106.7410852
0
LINE
8
0
10
74.4097463
20
-114.5971298
11
83.329706
21
-97.8211255
0
LINE
8
0
10
74.4097463
20
-114.5971298
11
81.5395481
21
-118.3881127
0
LINE
8
0
10
81.5395481
20
-118.3881127
11
81.6929695
21
-129.2291037
0
LINE
8
0
10
69.9497665
20
-122.9851319
11
81.6929695
21
-129.2291037
0
LINE
8
0
10
67.7197766
20
-127.179133
11
69.9497665
21
-122.9851319
0
LINE
8
0
10
50.9437723
20
-118.2591733
11
67.7197766
21
-127.179133
0
LINE
8
0
10
42.0238126
20
-135.0351776
11
50.9437723
21
-118.2591733
0
LINE
8
0
10
42.0238126
20
-135.0351776
11
58.7998169
21
-143.9551373
0
LINE
8
0
10
58.7998169
20
-143.9551373
11
69.4178089
21
-144.221116
0
LINE
8
0
10
60.4978492
20
-160.9971203
11
69.4178089
21
-144.221116
0
LINE
8
0
10
60.4978492
20
-160.9971203
11
77.2738535
21
-169.91708
0
LINE
8
0
10
77.2738535
20
-169.91708
11
86.1938132
21
-153.1410757
0
LINE
8
0
10
86.1938132
20
-153.1410757
11
94.5818153
21
-157.6010556
0
LINE
8
0
10
94.5818153
20
-157.6010556
11
99.0417951
21
-149.2130534
0
LINE
8
0
10
99.0417951
20
-149.2130534
11
115.8177994
21
-158.1330132
0
LINE
8
0
10
102.4378599
20
-183.2970195
11
115.8177994
21
-158.1330132
0
LINE
8
0
10
102.4378599
20
-183.2970195
11
119.2138642
21
-192.2169792
0
LINE
8
0
10
117.4298722
20
-195.5721801
11
119.2138642
21
-192.2169792
0
LINE
8
0
10
117.4298722
20
-195.5721801
11
134.2058765
21
-204.4921398
0
LINE
8
0
10
132.4218845
20
-207.8473406
11
134.2058765
21
-204.4921398
0
LINE
8
0
10
132.4218845
20
-207.8473406
11
149.1978888
21
-216.7673003
0
LINE
8
0
10
149.1978888
20
-216.7673003
11
158.1178485
21
-199.991296
0
LINE
8
0
10
141.3418442
20
-191.0713363
11
158.1178485
21
-199.991296
0
LINE
8
0
10
208.1897513
20
-137.3881227
11
236.7336224
21
-191.0713363
0
LINE
8
0
10
219.9576181
20
-199.991296
11
236.7336224
21
-191.0713363
0
LINE
8
0
10
219.9576181
20
-199.991296
11
228.8775778
21
-216.7673003
0
LINE
8
0
10
228.8775778
20
-216.7673003
11
245.6535821
21
-207.8473406
0
LINE
8
0
10
243.8695901
20
-204.4921398
11
245.6535821
21
-207.8473406
0
LINE
8
0
10
243.8695901
20
-204.4921398
11
260.6455944
21
-195.5721801
0
LINE
8
0
10
258.8616024
20
-192.2169792
11
260.6455944
21
-195.5721801
0
LINE
8
0
10
258.8616024
20
-192.2169792
11
275.6376067
21
-183.2970195
0
LINE
8
0
10
262.2576672
20
-158.1330132
11
275.6376067
21
-183.2970195
0
LINE
8
0
10
262.2576672
20
-158.1330132
11
279.0336715
21
-149.2130534
0
LINE
8
0
10
279.0336715
20
-149.2130534
11
283.4936513
21
-157.6010556
0
LINE
8
0
10
283.4936513
20
-157.6010556
11
291.8816534
21
-153.1410757
0
LINE
8
0
10
291.8816534
20
-153.1410757
11
300.8016131
21
-169.91708
0
LINE
8
0
10
300.8016131
20
-169.91708
11
317.5776174
21
-160.9971203
0
LINE
8
0
10
308.6576577
20
-144.221116
11
317.5776174
21
-160.9971203
0
LINE
8
0
10
308.6576577
20
-144.221116
11
319.2756497
21
-143.9551373
0
LINE
8
0
10
319.2756497
20
-143.9551373
11
336.051654
21
-135.0351776
0
LINE
8
0
10
327.1316943
20
-118.2591733
11
336.051654
21
-135.0351776
0
LINE
8
0
10
310.35569
20
-127.179133
11
327.1316943
21
-118.2591733
0
LINE
8
0
10
308.1257001
20
-122.9851319
11
310.35569
21
-127.179133
0
LINE
8
0
10
296.3824971
20
-129.2291037
11
308.1257001
21
-122.9851319
0
LINE
8
0
10
296.3824971
20
-129.2291037
11
296.5359185
21
-118.3881127
0
LINE
8
0
10
296.5359185
20
-118.3881127
11
303.6657203
21
-114.5971298
0
LINE
8
0
10
294.7457606
20
-97.8211255
11
303.6657203
21
-114.5971298
0
LINE
8
0
10
277.9697563
20
-106.7410852
11
294.7457606
21
-97.8211255
0
LINE
8
0
10
273.5097765
20
-98.3530831
11
277.9697563
21
-106.7410852
0
LINE
8
0
10
256.7337722
20
-107.2730428
11
273.5097765
21
-98.3530831
0
LINE
8
0
10
252.2737924
20
-98.8850406
11
256.7337722
21
-107.2730428
0
LINE
8
0
10
235.4977881
20
-107.8050003
11
252.2737924
21
-98.8850406
0
LINE
8
0
10
235.4977881
20
-107.8050003
11
239.957768
21
-116.1930024
0
LINE
8
0
10
223.1817637
20
-125.1129621
11
239.957768
21
-116.1930024
0
LINE
8
0
10
223.1817637
20
-125.1129621
11
224.9657556
21
-128.468163
0
LINE
8
0
10
208.1897513
20
-137.3881227
11
224.9657556
21
-128.468163
0
LINE
8
0
10
45.4048605
20
-134.0014875
11
57.7661268
21
-140.5740894
0
LINE
8
0
10
57.7661268
20
-140.5740894
11
64.3387287
21
-128.2128231
0
LINE
8
0
10
64.3387287
20
-128.2128231
11
51.9774624
21
-121.6402212
0
LINE
8
0
10
51.9774624
20
-121.6402212
11
45.4048605
21
-134.0014875
0
LINE
8
0
10
63.8788971
20
-159.9634302
11
76.2401634
21
-166.5360321
0
LINE
8
0
10
76.2401634
20
-166.5360321
11
82.8127653
21
-154.1747658
0
LINE
8
0
10
82.8127653
20
-154.1747658
11
70.451499
21
-147.6021639
0
LINE
8
0
10
70.451499
20
-147.6021639
11
63.8788971
21
-159.9634302
0
LINE
8
0
10
64.4108547
20
-138.7274461
11
76.772121
21
-145.300048
0
LINE
8
0
10
76.772121
20
-145.300048
11
83.3447229
21
-132.9387817
0
LINE
8
0
10
83.3447229
20
-132.9387817
11
70.9834566
21
-126.3661798
0
LINE
8
0
10
70.9834566
20
-126.3661798
11
64.4108547
21
-138.7274461
0
LINE
8
0
10
81.1868589
20
-147.6474058
11
93.5481252
21
-154.2200077
0
LINE
8
0
10
93.5481252
20
-154.2200077
11
100.1207271
21
-141.8587414
0
LINE
8
0
10
100.1207271
20
-141.8587414
11
87.7594608
21
-135.2861395
0
LINE
8
0
10
87.7594608
20
-135.2861395
11
81.1868589
21
-147.6474058
0
LINE
8
0
10
90.1068186
20
-130.8714015
11
102.4680849
21
-137.4440034
0
LINE
8
0
10
102.4680849
20
-137.4440034
11
109.0406868
21
-125.0827371
0
LINE
8
0
10
109.0406868
20
-125.0827371
11
96.6794205
21
-118.5101352
0
LINE
8
0
10
96.6794205
20
-118.5101352
11
90.1068186
21
-130.8714015
0
LINE
8
0
10
99.0267783
20
-114.0953973
11
111.3880446
21
-120.6679992
0
LINE
8
0
10
111.3880446
20
-120.6679992
11
117.9606465
21
-108.3067329
0
LINE
8
0
10
117.9606465
20
-108.3067329
11
105.5993802
21
-101.734131
0
LINE
8
0
10
105.5993802
20
-101.734131
11
99.0267783
21
-114.0953973
0
LINE
8
0
10
102.422843
20
-148.1793633
11
114.7841093
21
-154.7519652
0
LINE
8
0
10
114.7841093
20
-154.7519652
11
121.3567112
21
-142.3906989
0
LINE
8
0
10
121.3567112
20
-142.3906989
11
108.9954449
21
-135.818097
0
LINE
8
0
10
108.9954449
20
-135.818097
11
102.422843
21
-148.1793633
0
LINE
8
0
10
111.3428027
20
-131.4033591
11
123.704069
21
-137.975961
0
LINE
8
0
10
123.704069
20
-137.975961
11
130.2766709
21
-125.6146947
0
LINE
8
0
10
130.2766709
20
-125.6146947
11
117.9154046
21
-119.0420928
0
LINE
8
0
10
117.9154046
20
-119.0420928
11
111.3428027
21
-131.4033591
0
LINE
8
0
10
120.2627624
20
-114.6273548
11
132.6240287
21
-121.1999567
0
LINE
8
0
10
132.6240287
20
-121.1999567
11
139.1966306
21
-108.8386904
0
LINE
8
0
10
139.1966306
20
-108.8386904
11
126.8353643
21
-102.2660885
0
LINE
8
0
10
126.8353643
20
-102.2660885
11
120.2627624
21
-114.6273548
0
LINE
8
0
10
114.7388674
20
-165.4873252
11
127.1001337
21
-172.0599271
0
LINE
8
0
10
127.1001337
20
-172.0599271
11
133.6727356
21
-159.6986608
0
LINE
8
0
10
133.6727356
20
-159.6986608
11
121.3114693
21
-153.1260589
0
LINE
8
0
10
121.3114693
20
-153.1260589
11
114.7388674
21
-165.4873252
0
LINE
8
0
10
123.6588271
20
-148.7113209
11
136.0200934
21
-155.2839228
0
LINE
8
0
10
136.0200934
20
-155.2839228
11
142.5926953
21
-142.9226565
0
LINE
8
0
10
142.5926953
20
-142.9226565
11
130.231429
21
-136.3500546
0
LINE
8
0
10
130.231429
20
-136.3500546
11
123.6588271
21
-148.7113209
0
LINE
8
0
10
132.5787868
20
-131.9353166
11
144.9400531
21
-138.5079185
0
LINE
8
0
10
144.9400531
20
-138.5079185
11
151.512655
21
-126.1466522
0
LINE
8
0
10
151.512655
20
-126.1466522
11
139.1513887
21
-119.5740503
0
LINE
8
0
10
139.1513887
20
-119.5740503
11
132.5787868
21
-131.9353166
0
LINE
8
0
10
129.7308798
20
-177.7624857
11
142.0921461
21
-184.3350876
0
LINE
8
0
10
142.0921461
20
-184.3350876
11
148.664748
21
-171.9738213
0
LINE
8
0
10
148.664748
20
-171.9738213
11
136.3034817
21
-165.4012194
0
LINE
8
0
10
136.3034817
20
-165.4012194
11
129.7308798
21
-177.7624857
0
LINE
8
0
10
138.6508395
20
-160.9864815
11
151.0121058
21
-167.5590834
0
LINE
8
0
10
151.0121058
20
-167.5590834
11
157.5847077
21
-155.1978171
0
LINE
8
0
10
157.5847077
20
-155.1978171
11
145.2234414
21
-148.6252152
0
LINE
8
0
10
145.2234414
20
-148.6252152
11
138.6508395
21
-160.9864815
0
LINE
8
0
10
147.5707992
20
-144.2104772
11
159.9320655
21
-150.7830791
0
LINE
8
0
10
159.9320655
20
-150.7830791
11
166.5046674
21
-138.4218128
0
LINE
8
0
10
166.5046674
20
-138.4218128
11
154.1434011
21
-131.8492109
0
LINE
8
0
10
154.1434011
20
-131.8492109
11
147.5707992
21
-144.2104772
0
LINE
8
0
10
77.7907942
20
-113.5634397
11
90.1520605
21
-120.1360416
0
LINE
8
0
10
90.1520605
20
-120.1360416
11
96.7246624
21
-107.7747753
0
LINE
8
0
10
96.7246624
20
-107.7747753
11
84.3633961
21
-101.2021734
0
LINE
8
0
10
84.3633961
20
-101.2021734
11
77.7907942
21
-113.5634397
0
LINE
8
0
10
105.8189078
20
-182.2633294
11
118.1801741
21
-188.8359313
0
LINE
8
0
10
118.1801741
20
-188.8359313
11
124.752776
21
-176.474665
0
LINE
8
0
10
124.752776
20
-176.474665
11
112.3915097
21
-169.9020631
0
LINE
8
0
10
112.3915097
20
-169.9020631
11
105.8189078
21
-182.2633294
0
LINE
8
0
10
120.8109201
20
-194.53849
11
133.1721864
21
-201.1110919
0
LINE
8
0
10
133.1721864
20
-201.1110919
11
139.7447883
21
-188.7498256
0
LINE
8
0
10
139.7447883
20
-188.7498256
11
127.383522
21
-182.1772237
0
LINE
8
0
10
127.383522
20
-182.1772237
11
120.8109201
21
-194.53849
0
LINE
8
0
10
135.8029324
20
-206.8136505
11
148.1641987
21
-213.3862524
0
LINE
8
0
10
148.1641987
20
-213.3862524
11
154.7368006
21
-201.0249861
0
LINE
8
0
10
154.7368006
20
-201.0249861
11
142.3755343
21
-194.4523842
0
LINE
8
0
10
142.3755343
20
-194.4523842
11
135.8029324
21
-206.8136505
0
LINE
8
0
10
320.3093398
20
-140.5740894
11
332.6706061
21
-134.0014875
0
LINE
8
0
10
332.6706061
20
-134.0014875
11
326.0980042
21
-121.6402212
0
LINE
8
0
10
326.0980042
20
-121.6402212
11
313.7367379
21
-128.2128231
0
LINE
8
0
10
313.7367379
20
-128.2128231
11
320.3093398
21
-140.5740894
0
LINE
8
0
10
301.8353032
20
-166.5360321
11
314.1965695
21
-159.9634302
0
LINE
8
0
10
314.1965695
20
-159.9634302
11
307.6239676
21
-147.6021639
0
LINE
8
0
10
307.6239676
20
-147.6021639
11
295.2627013
21
-154.1747658
0
LINE
8
0
10
295.2627013
20
-154.1747658
11
301.8353032
21
-166.5360321
0
LINE
8
0
10
301.3033456
20
-145.300048
11
313.6646119
21
-138.7274461
0
LINE
8
0
10
313.6646119
20
-138.7274461
11
307.09201
21
-126.3661798
0
LINE
8
0
10
307.09201
20
-126.3661798
11
294.7307437
21
-132.9387817
0
LINE
8
0
10
294.7307437
20
-132.9387817
11
301.3033456
21
-145.300048
0
LINE
8
0
10
284.5273414
20
-154.2200077
11
296.8886077
21
-147.6474058
0
LINE
8
0
10
296.8886077
20
-147.6474058
11
290.3160058
21
-135.2861395
0
LINE
8
0
10
290.3160058
20
-135.2861395
11
277.9547395
21
-141.8587414
0
LINE
8
0
10
277.9547395
20
-141.8587414
11
284.5273414
21
-154.2200077
0
LINE
8
0
10
275.6073817
20
-137.4440034
11
287.968648
21
-130.8714015
0
LINE
8
0
10
287.968648
20
-130.8714015
11
281.3960461
21
-118.5101352
0
LINE
8
0
10
281.3960461
20
-118.5101352
11
269.0347798
21
-125.0827371
0
LINE
8
0
10
269.0347798
20
-125.0827371
11
275.6073817
21
-137.4440034
0
LINE
8
0
10
266.687422
20
-120.6679992
11
279.0486883
21
-114.0953973
0
LINE
8
0
10
279.0486883
20
-114.0953973
11
272.4760864
21
-101.734131
0
LINE
8
0
10
272.4760864
20
-101.734131
11
260.1148201
21
-108.3067329
0
LINE
8
0
10
260.1148201
20
-108.3067329
11
266.687422
21
-120.6679992
0
LINE
8
0
10
263.2913573
20
-154.7519652
11
275.6526236
21
-148.1793633
0
LINE
8
0
10
275.6526236
20
-148.1793633
11
269.0800217
21
-135.818097
0
LINE
8
0
10
269.0800217
20
-135.818097
11
256.7187554
21
-142.3906989
0
LINE
8
0
10
256.7187554
20
-142.3906989
11
263.2913573
21
-154.7519652
0
LINE
8
0
10
254.3713976
20
-137.975961
11
266.7326639
21
-131.4033591
0
LINE
8
0
10
266.7326639
20
-131.4033591
11
260.160062
21
-119.0420928
0
LINE
8
0
10
260.160062
20
-119.0420928
11
247.7987957
21
-125.6146947
0
LINE
8
0
10
247.7987957
20
-125.6146947
11
254.3713976
21
-137.975961
0
LINE
8
0
10
245.4514379
20
-121.1999567
11
257.8127042
21
-114.6273548
0
LINE
8
0
10
257.8127042
20
-114.6273548
11
251.2401023
21
-102.2660885
0
LINE
8
0
10
251.2401023
20
-102.2660885
11
238.878836
21
-108.8386904
0
LINE
8
0
10
238.878836
20
-108.8386904
11
245.4514379
21
-121.1999567
0
LINE
8
0
10
250.9753329
20
-172.0599271
11
263.3365992
21
-165.4873252
0
LINE
8
0
10
263.3365992
20
-165.4873252
11
256.7639973
21
-153.1260589
0
LINE
8
0
10
256.7639973
20
-153.1260589
11
244.402731
21
-159.6986608
0
LINE
8
0
10
244.402731
20
-159.6986608
11
250.9753329
21
-172.0599271
0
LINE
8
0
10
242.0553732
20
-155.2839228
11
254.4166395
21
-148.7113209
0
LINE
8
0
10
254.4166395
20
-148.7113209
11
247.8440376
21
-136.3500546
0
LINE
8
0
10
247.8440376
20
-136.3500546
11
235.4827713
21
-142.9226565
0
LINE
8
0
10
235.4827713
20
-142.9226565
11
242.0553732
21
-155.2839228
0
LINE
8
0
10
233.1354135
20
-138.5079185
11
245.4966798
21
-131.9353166
0
LINE
8
0
10
245.4966798
20
-131.9353166
11
238.9240779
21
-119.5740503
0
LINE
8
0
10
238.9240779
20
-119.5740503
11
226.5628116
21
-126.1466522
0
LINE
8
0
10
226.5628116
20
-126.1466522
11
233.1354135
21
-138.5079185
0
LINE
8
0
10
235.9833205
20
-184.3350876
11
248.3445868
21
-177.7624857
0
LINE
8
0
10
248.3445868
20
-177.7624857
11
241.7719849
21
-165.4012194
0
LINE
8
0
10
241.7719849
20
-165.4012194
11
229.4107186
21
-171.9738213
0
LINE
8
0
10
229.4107186
20
-171.9738213
11
235.9833205
21
-184.3350876
0
LINE
8
0
10
227.0633608
20
-167.5590834
11
239.4246271
21
-160.9864815
0
LINE
8
0
10
239.4246271
20
-160.9864815
11
232.8520252
21
-148.6252152
0
LINE
8
0
10
232.8520252
20
-148.6252152
11
220.4907589
21
-155.1978171
0
LINE
8
0
10
220.4907589
20
-155.1978171
11
227.0633608
21
-167.5590834
0
LINE
8
0
10
218.1434011
20
-150.7830791
11
230.5046674
21
-144.2104772
0
LINE
8
0
10
230.5046674
20
-144.2104772
11
223.9320655
21
-131.8492109
0
LINE
8
0
10
223.9320655
20
-131.8492109
11
211.5707992
21
-138.4218128
0
LINE
8
0
10
211.5707992
20
-138.4218128
11
218.1434011
21
-150.7830791
0
LINE
8
0
10
287.9234061
20
-120.1360416
11
300.2846724
21
-113.5634397
0
LINE
8
0
10
300.2846724
20
-113.5634397
11
293.7120705
21
-101.2021734
0
LINE
8
0
10
293.7120705
20
-101.2021734
11
281.3508042
21
-107.7747753
0
LINE
8
0
10
281.3508042
20
-107.7747753
11
287.9234061
21
-120.1360416
0
LINE
8
0
10
259.8952925
20
-188.8359313
11
272.2565588
21
-182.2633294
0
LINE
8
0
10
272.2565588
20
-182.2633294
11
265.6839569
21
-169.9020631
0
LINE
8
0
10
265.6839569
20
-169.9020631
11
253.3226906
21
-176.474665
0
LINE
8
0
10
253.3226906
20
-176.474665
11
259.8952925
21
-188.8359313
0
LINE
8
0
10
244.9032802
20
-201.1110919
11
257.2645465
21
-194.53849
0
LINE
8
0
10
257.2645465
20
-194.53849
11
250.6919446
21
-182.1772237
0
LINE
8
0
10
250.6919446
20
-182.1772237
11
238.3306783
21
-188.7498256
0
LINE
8
0
10
238.3306783
20
-188.7498256
11
244.9032802
21
-201.1110919
0
LINE
8
0
10
229.9112679
20
-213.3862524
11
242.2725342
21
-206.8136505
0
LINE
8
0
10
242.2725342
20
-206.8136505
11
235.6999323
21
-194.4523842
0
LINE
8
0
10
235.6999323
20
-194.4523842
11
223.338666
21
-201.0249861
0
LINE
8
0
10
223.338666
20
-201.0249861
11
229.9112679
21
-213.3862524
0
LINE
8
0
10
42.7000222
20
-134.8284396
11
58.5930789
21
-143.2789277
0
LINE
8
0
10
58.5930789
20
-143.2789277
11
67.043567
21
-127.385871
0
LINE
8
0
10
67.043567
20
-127.385871
11
51.1505103
21
-118.9353829
0
LINE
8
0
10
51.1505103
20
-118.9353829
11
42.7000222
21
-134.8284396
0
LINE
8
0
10
61.1740588
20
-160.7903823
11
77.0671155
21
-169.2408704
0
LINE
8
0
10
77.0671155
20
-169.2408704
11
85.5176036
21
-153.3478137
0
LINE
8
0
10
85.5176036
20
-153.3478137
11
69.6245469
21
-144.8973256
0
LINE
8
0
10
69.6245469
20
-144.8973256
11
61.1740588
21
-160.7903823
0
LINE
8
0
10
61.7060164
20
-139.5543982
11
77.5990731
21
-148.0048863
0
LINE
8
0
10
77.5990731
20
-148.0048863
11
86.0495612
21
-132.1118296
0
LINE
8
0
10
86.0495612
20
-132.1118296
11
70.1565045
21
-123.6613415
0
LINE
8
0
10
70.1565045
20
-123.6613415
11
61.7060164
21
-139.5543982
0
LINE
8
0
10
78.4820206
20
-148.4743579
11
94.3750773
21
-156.924846
0
LINE
8
0
10
94.3750773
20
-156.924846
11
102.8255654
21
-141.0317893
0
LINE
8
0
10
102.8255654
20
-141.0317893
11
86.9325087
21
-132.5813012
0
LINE
8
0
10
86.9325087
20
-132.5813012
11
78.4820206
21
-148.4743579
0
LINE
8
0
10
87.4019803
20
-131.6983536
11
103.295037
21
-140.1488417
0
LINE
8
0
10
103.295037
20
-140.1488417
11
111.7455251
21
-124.255785
0
LINE
8
0
10
111.7455251
20
-124.255785
11
95.8524684
21
-115.8052969
0
LINE
8
0
10
95.8524684
20
-115.8052969
11
87.4019803
21
-131.6983536
0
LINE
8
0
10
96.32194
20
-114.9223494
11
112.2149967
21
-123.3728375
0
LINE
8
0
10
112.2149967
20
-123.3728375
11
120.6654848
21
-107.4797808
0
LINE
8
0
10
120.6654848
20
-107.4797808
11
104.7724281
21
-99.0292927
0
LINE
8
0
10
104.7724281
20
-99.0292927
11
96.32194
21
-114.9223494
0
LINE
8
0
10
99.7180047
20
-149.0063154
11
115.6110614
21
-157.4568035
0
LINE
8
0
10
115.6110614
20
-157.4568035
11
124.0615495
21
-141.5637468
0
LINE
8
0
10
124.0615495
20
-141.5637468
11
108.1684928
21
-133.1132587
0
LINE
8
0
10
108.1684928
20
-133.1132587
11
99.7180047
21
-149.0063154
0
LINE
8
0
10
108.6379644
20
-132.2303112
11
124.5310211
21
-140.6807993
0
LINE
8
0
10
124.5310211
20
-140.6807993
11
132.9815092
21
-124.7877426
0
LINE
8
0
10
132.9815092
20
-124.7877426
11
117.0884525
21
-116.3372545
0
LINE
8
0
10
117.0884525
20
-116.3372545
11
108.6379644
21
-132.2303112
0
LINE
8
0
10
117.5579241
20
-115.4543069
11
133.4509808
21
-123.904795
0
LINE
8
0
10
133.4509808
20
-123.904795
11
141.9014689
21
-108.0117383
0
LINE
8
0
10
141.9014689
20
-108.0117383
11
126.0084122
21
-99.5612502
0
LINE
8
0
10
126.0084122
20
-99.5612502
11
117.5579241
21
-115.4543069
0
LINE
8
0
10
112.0340291
20
-166.3142773
11
127.9270858
21
-174.7647654
0
LINE
8
0
10
127.9270858
20
-174.7647654
11
136.3775739
21
-158.8717087
0
LINE
8
0
10
136.3775739
20
-158.8717087
11
120.4845172
21
-150.4212206
0
LINE
8
0
10
120.4845172
20
-150.4212206
11
112.0340291
21
-166.3142773
0
LINE
8
0
10
120.9539888
20
-149.538273
11
136.8470455
21
-157.9887611
0
LINE
8
0
10
136.8470455
20
-157.9887611
11
145.2975336
21
-142.0957044
0
LINE
8
0
10
145.2975336
20
-142.0957044
11
129.4044769
21
-133.6452163
0
LINE
8
0
10
129.4044769
20
-133.6452163
11
120.9539888
21
-149.538273
0
LINE
8
0
10
129.8739485
20
-132.7622687
11
145.7670052
21
-141.2127568
0
LINE
8
0
10
145.7670052
20
-141.2127568
11
154.2174933
21
-125.3197001
0
LINE
8
0
10
154.2174933
20
-125.3197001
11
138.3244366
21
-116.869212
0
LINE
8
0
10
138.3244366
20
-116.869212
11
129.8739485
21
-132.7622687
0
LINE
8
0
10
127.0260415
20
-178.5894378
11
142.9190982
21
-187.0399259
0
LINE
8
0
10
142.9190982
20
-187.0399259
11
151.3695863
21
-171.1468692
0
LINE
8
0
10
151.3695863
20
-171.1468692
11
135.4765296
21
-162.6963811
0
LINE
8
0
10
135.4765296
20
-162.6963811
11
127.0260415
21
-178.5894378
0
LINE
8
0
10
135.9460012
20
-161.8134336
11
151.8390579
21
-170.2639217
0
LINE
8
0
10
151.8390579
20
-170.2639217
11
160.289546
21
-154.370865
0
LINE
8
0
10
160.289546
20
-154.370865
11
144.3964893
21
-145.9203769
0
LINE
8
0
10
144.3964893
20
-145.9203769
11
135.9460012
21
-161.8134336
0
LINE
8
0
10
144.8659609
20
-145.0374293
11
160.7590176
21
-153.4879174
0
LINE
8
0
10
160.7590176
20
-153.4879174
11
169.2095057
21
-137.5948607
0
LINE
8
0
10
169.2095057
20
-137.5948607
11
153.316449
21
-129.1443726
0
LINE
8
0
10
153.316449
20
-129.1443726
11
144.8659609
21
-145.0374293
0
LINE
8
0
10
75.0859559
20
-114.3903918
11
90.9790126
21
-122.8408799
0
LINE
8
0
10
90.9790126
20
-122.8408799
11
99.4295007
21
-106.9478232
0
LINE
8
0
10
99.4295007
20
-106.9478232
11
83.536444
21
-98.4973351
0
LINE
8
0
10
83.536444
20
-98.4973351
11
75.0859559
21
-114.3903918
0
LINE
8
0
10
103.1140695
20
-183.0902815
11
119.0071262
21
-191.5407696
0
LINE
8
0
10
119.0071262
20
-191.5407696
11
127.4576143
21
-175.6477129
0
LINE
8
0
10
127.4576143
20
-175.6477129
11
111.5645576
21
-167.1972248
0
LINE
8
0
10
111.5645576
20
-167.1972248
11
103.1140695
21
-183.0902815
0
LINE
8
0
10
118.1060818
20
-195.3654421
11
133.9991385
21
-203.8159302
0
LINE
8
0
10
133.9991385
20
-203.8159302
11
142.4496266
21
-187.9228735
0
LINE
8
0
10
142.4496266
20
-187.9228735
11
126.5565699
21
-179.4723854
0
LINE
8
0
10
126.5565699
20
-179.4723854
11
118.1060818
21
-195.3654421
0
LINE
8
0
10
133.0980941
20
-207.6406026
11
148.9911508
21
-216.0910907
0
LINE
8
0
10
148.9911508
20
-216.0910907
11
157.4416389
21
-200.198034
0
LINE
8
0
10
157.4416389
20
-200.198034
11
141.5485822
21
-191.7475459
0
LINE
8
0
10
141.5485822
20
-191.7475459
11
133.0980941
21
-207.6406026
0
LINE
8
0
10
319.4823877
20
-143.2789277
11
335.3754444
21
-134.8284396
0
LINE
8
0
10
335.3754444
20
-134.8284396
11
326.9249563
21
-118.9353829
0
LINE
8
0
10
326.9249563
20
-118.9353829
11
311.0318996
21
-127.385871
0
LINE
8
0
10
311.0318996
20
-127.385871
11
319.4823877
21
-143.2789277
0
LINE
8
0
10
301.0083511
20
-169.2408704
11
316.9014078
21
-160.7903823
0
LINE
8
0
10
316.9014078
20
-160.7903823
11
308.4509197
21
-144.8973256
0
LINE
8
0
10
308.4509197
20
-144.8973256
11
292.557863
21
-153.3478137
0
LINE
8
0
10
292.557863
20
-153.3478137
11
301.0083511
21
-169.2408704
0
LINE
8
0
10
300.4763935
20
-148.0048863
11
316.3694502
21
-139.5543982
0
LINE
8
0
10
316.3694502
20
-139.5543982
11
307.9189621
21
-123.6613415
0
LINE
8
0
10
307.9189621
20
-123.6613415
11
292.0259054
21
-132.1118296
0
LINE
8
0
10
292.0259054
20
-132.1118296
11
300.4763935
21
-148.0048863
0
LINE
8
0
10
283.7003893
20
-156.924846
11
299.593446
21
-148.4743579
0
LINE
8
0
10
299.593446
20
-148.4743579
11
291.1429579
21
-132.5813012
0
LINE
8
0
10
291.1429579
20
-132.5813012
11
275.2499012
21
-141.0317893
0
LINE
8
0
10
275.2499012
20
-141.0317893
11
283.7003893
21
-156.924846
0
LINE
8
0
10
274.7804296
20
-140.1488417
11
290.6734863
21
-131.6983536
0
LINE
8
0
10
290.6734863
20
-131.6983536
11
282.2229982
21
-115.8052969
0
LINE
8
0
10
282.2229982
20
-115.8052969
11
266.3299415
21
-124.255785
0
LINE
8
0
10
266.3299415
20
-124.255785
11
274.7804296
21
-140.1488417
0
LINE
8
0
10
265.8604699
20
-123.3728375
11
281.7535266
21
-114.9223494
0
LINE
8
0
10
281.7535266
20
-114.9223494
11
273.3030385
21
-99.0292927
0
LINE
8
0
10
273.3030385
20
-99.0292927
11
257.4099818
21
-107.4797808
0
LINE
8
0
10
257.4099818
20
-107.4797808
11
265.8604699
21
-123.3728375
0
LINE
8
0
10
262.4644052
20
-157.4568035
11
278.3574619
21
-149.0063154
0
LINE
8
0
10
278.3574619
20
-149.0063154
11
269.9069738
21
-133.1132587
0
LINE
8
0
10
269.9069738
20
-133.1132587
11
254.0139171
21
-141.5637468
0
LINE
8
0
10
254.0139171
20
-141.5637468
11
262.4644052
21
-157.4568035
0
LINE
8
0
10
253.5444455
20
-140.6807993
11
269.4375022
21
-132.2303112
0
LINE
8
0
10
269.4375022
20
-132.2303112
11
260.9870141
21
-116.3372545
0
LINE
8
0
10
260.9870141
20
-116.3372545
11
245.0939574
21
-124.7877426
0
LINE
8
0
10
245.0939574
20
-124.7877426
11
253.5444455
21
-140.6807993
0
LINE
8
0
10
244.6244858
20
-123.904795
11
260.5175425
21
-115.4543069
0
LINE
8
0
10
260.5175425
20
-115.4543069
11
252.0670544
21
-99.5612502
0
LINE
8
0
10
252.0670544
20
-99.5612502
11
236.1739977
21
-108.0117383
0
LINE
8
0
10
236.1739977
20
-108.0117383
11
244.6244858
21
-123.904795
0
LINE
8
0
10
250.1483808
20
-174.7647654
11
266.0414375
21
-166.3142773
0
LINE
8
0
10
266.0414375
20
-166.3142773
11
257.5909494
21
-150.4212206
0
LINE
8
0
10
257.5909494
20
-150.4212206
11
241.6978927
21
-158.8717087
0
LINE
8
0
10
241.6978927
20
-158.8717087
11
250.1483808
21
-174.7647654
0
LINE
8
0
10
241.2284211
20
-157.9887611
11
257.1214778
21
-149.538273
0
LINE
8
0
10
257.1214778
20
-149.538273
11
248.6709897
21
-133.6452163
0
LINE
8
0
10
248.6709897
20
-133.6452163
11
232.777933
21
-142.0957044
0
LINE
8
0
10
232.777933
20
-142.0957044
11
241.2284211
21
-157.9887611
0
LINE
8
0
10
232.3084614
20
-141.2127568
11
248.2015181
21
-132.7622687
0
LINE
8
0
10
248.2015181
20
-132.7622687
11
239.75103
21
-116.869212
0
LINE
8
0
10
239.75103
20
-116.869212
11
223.8579733
21
-125.3197001
0
LINE
8
0
10
223.8579733
20
-125.3197001
11
232.3084614
21
-141.2127568
0
LINE
8
0
10
235.1563684
20
-187.0399259
11
251.0494251
21
-178.5894378
0
LINE
8
0
10
251.0494251
20
-178.5894378
11
242.598937
21
-162.6963811
0
LINE
8
0
10
242.598937
20
-162.6963811
11
226.7058803
21
-171.1468692
0
LINE
8
0
10
226.7058803
20
-171.1468692
11
235.1563684
21
-187.0399259
0
LINE
8
0
10
226.2364087
20
-170.2639217
11
242.1294654
21
-161.8134336
0
LINE
8
0
10
242.1294654
20
-161.8134336
11
233.6789773
21
-145.9203769
0
LINE
8
0
10
233.6789773
20
-145.9203769
11
217.7859206
21
-154.370865
0
LINE
8
0
10
217.7859206
20
-154.370865
11
226.2364087
21
-170.2639217
0
LINE
8
0
10
217.316449
20
-153.4879174
11
233.2095057
21
-145.0374293
0
LINE
8
0
10
233.2095057
20
-145.0374293
11
224.7590176
21
-129.1443726
0
LINE
8
0
10
224.7590176
20
-129.1443726
11
208.8659609
21
-137.5948607
0
LINE
8
0
10
208.8659609
20
-137.5948607
11
217.316449
21
-153.4879174
0
LINE
8
0
10
287.096454
20
-122.8408799
11
302.9895107
21
-114.3903918
0
LINE
8
0
10
302.9895107
20
-114.3903918
11
294.5390226
21
-98.4973351
0
LINE
8
0
10
294.5390226
20
-98.4973351
11
278.6459659
21
-106.9478232
0
LINE
8
0
10
278.6459659
20
-106.9478232
11
287.096454
21
-122.8408799
0
LINE
8
0
10
259.0683404
20
-191.5407696
11
274.9613971
21
-183.0902815
0
LINE
8
0
10
274.9613971
20
-183.0902815
11
266.510909
21
-167.1972248
0
LINE
8
0
10
266.510909
20
-167.1972248
11
250.6178523
21
-175.6477129
0
LINE
8
0
10
250.6178523
20
-175.6477129
11
259.0683404
21
-191.5407696
0
LINE
8
0
10
244.0763281
20
-203.8159302
11
259.9693848
21
-195.3654421
0
LINE
8
0
10
259.9693848
20
-195.3654421
11
251.5188967
21
-179.4723854
0
LINE
8
0
10
251.5188967
20
-179.4723854
11
235.62584
21
-187.9228735
0
LINE
8
0
10
235.62584
20
-187.9228735
11
244.0763281
21
-203.8159302
0
LINE
8
0
10
229.0843158
20
-216.0910907
11
244.9773725
21
-207.6406026
0
LINE
8
0
10
244.9773725
20
-207.6406026
11
236.5268844
21
-191.7475459
0
LINE
8
0
10
236.5268844
20
-191.7475459
11
220.6338277
21
-200.198034
0
LINE
8
0
10
220.6338277
20
-200.198034
11
229.0843158
21
-216.0910907
0
LINE
8
0
10
214.7382977
20
-149.7041471
11
163.3371689
21
-149.7041471
0
LINE
8
0
10
141.9292656
20
-189.9665574
11
236.146201
21
-189.9665574
0
CIRCLE
8
0
10
64.9373972
20
-136.4591311
40
1
0
CIRCLE
8
0
10
313.1380694
20
-136.4591311
40
1
0
CIRCLE
8
0
10
97.8757204
20
-110.9350863
40
1
0
CIRCLE
8
0
10
280.1997462
20
-110.9350863
40
1
0
CIRCLE
8
0
10
150.433723
20
-133.5009642
40
1
0
CIRCLE
8
0
10
227.6417436
20
-133.5009642
40
1
0
CIRCLE
8
0
10
136.4358664
20
-200.2981387
40
1
0
CIRCLE
8
0
10
241.6396002
20
-200.2981387
40
1
0
ENDSEC
0
EOF